<?xml version="1.0" encoding="utf-8" standalone="no"?>
<!DOCTYPE svg PUBLIC "-//W3C//DTD SVG 1.1//EN"
  "http://www.w3.org/Graphics/SVG/1.1/DTD/svg11.dtd">
<svg xmlns:xlink="http://www.w3.org/1999/xlink" width="414.72pt" height="345.6pt" viewBox="0 0 414.72 345.6" xmlns="http://www.w3.org/2000/svg" version="1.1">
 <metadata>
  <rdf:RDF xmlns:dc="http://purl.org/dc/elements/1.1/" xmlns:cc="http://creativecommons.org/ns#" xmlns:rdf="http://www.w3.org/1999/02/22-rdf-syntax-ns#">
   <cc:Work>
    <dc:type rdf:resource="http://purl.org/dc/dcmitype/StillImage"/>
    <dc:date>2025-02-07T20:05:44.559854</dc:date>
    <dc:format>image/svg+xml</dc:format>
    <dc:creator>
     <cc:Agent>
      <dc:title>Matplotlib v3.10.0, https://matplotlib.org/</dc:title>
     </cc:Agent>
    </dc:creator>
   </cc:Work>
  </rdf:RDF>
 </metadata>
 <defs>
  <style type="text/css">*{stroke-linejoin: round; stroke-linecap: butt}</style>
 </defs>
 <g id="figure_1">
  <g id="axes_1">
   <g id="patch_1">
    <path d="M 0 345.6 
L 414.72 345.6 
L 414.72 -0 
L 0 -0 
L 0 345.6 
z
" style="fill: none"/>
   </g>
   <g id="patch_2">
    <path d="M 414.72 345.6 
L 414.72 345.6 
L 414.72 -0 
L 414.72 -0 
L 414.72 345.6 
" clip-path="url(#p72acef2d82)" style="fill: none; stroke: #0000ff; stroke-width: 0.36; stroke-linejoin: miter"/>
   </g>
   <g id="patch_3">
    <path d="M 414.72 345.6 
L 414.72 345.6 
L 0 345.6 
L 0 345.6 
L 414.72 345.6 
" clip-path="url(#p72acef2d82)" style="fill: none; stroke: #0000ff; stroke-width: 0.36; stroke-linejoin: miter"/>
   </g>
   <g id="patch_4">
    <path d="M 414.72 -0 
L 414.72 -0 
L 0 -0 
L 0 -0 
L 414.72 -0 
" clip-path="url(#p72acef2d82)" style="fill: none; stroke: #0000ff; stroke-width: 0.36; stroke-linejoin: miter"/>
   </g>
   <g id="patch_5">
    <path d="M 0 345.6 
L 0 345.6 
L 0 -0 
L 0 -0 
L 0 345.6 
" clip-path="url(#p72acef2d82)" style="fill: none; stroke: #0000ff; stroke-width: 0.36; stroke-linejoin: miter"/>
   </g>
   <g id="patch_6">
    <path d="M 414.72 345.6 
L 414.72 -0 
L 0 -0 
L 0 345.6 
L 414.72 345.6 
" clip-path="url(#p72acef2d82)" style="fill: none; stroke: #0000ff; stroke-width: 0.36; stroke-linejoin: miter"/>
   </g>
   <g id="patch_7">
    <path d="M 387.685548 322.56 
C 387.685548 323.514348 386.912969 324.288 385.959945 324.288 
C 385.00692 324.288 384.234341 323.514348 384.234341 322.56 
C 384.234341 321.605652 385.00692 320.832 385.959945 320.832 
C 386.912969 320.832 387.685548 321.605652 387.685548 322.56 
" clip-path="url(#p72acef2d82)" style="fill: none; stroke: #0000ff; stroke-width: 0.36; stroke-linejoin: miter"/>
   </g>
   <g id="patch_8">
    <path d="M 387.685548 23.04 
C 387.685548 23.994348 386.912969 24.768 385.959945 24.768 
C 385.00692 24.768 384.234341 23.994348 384.234341 23.04 
C 384.234341 22.085652 385.00692 21.312 385.959945 21.312 
C 386.912969 21.312 387.685548 22.085652 387.685548 23.04 
" clip-path="url(#p72acef2d82)" style="fill: none; stroke: #0000ff; stroke-width: 0.36; stroke-linejoin: miter"/>
   </g>
   <g id="patch_9">
    <path d="M 404.797781 5.472 
C 404.797781 6.426348 404.025202 7.2 403.072178 7.2 
C 402.119153 7.2 401.346574 6.426348 401.346574 5.472 
C 401.346574 4.517652 402.119153 3.744 403.072178 3.744 
C 404.025202 3.744 404.797781 4.517652 404.797781 5.472 
" clip-path="url(#p72acef2d82)" style="fill: none; stroke: #0000ff; stroke-width: 0.36; stroke-linejoin: miter"/>
   </g>
   <g id="patch_10">
    <path d="M 404.797781 340.128 
C 404.797781 341.082348 404.025202 341.856 403.072178 341.856 
C 402.119153 341.856 401.346574 341.082348 401.346574 340.128 
C 401.346574 339.173652 402.119153 338.4 403.072178 338.4 
C 404.025202 338.4 404.797781 339.173652 404.797781 340.128 
" clip-path="url(#p72acef2d82)" style="fill: none; stroke: #0000ff; stroke-width: 0.36; stroke-linejoin: miter"/>
   </g>
   <g id="patch_11">
    <path d="M 287.097254 322.56 
C 287.097254 323.514348 286.324675 324.288 285.37165 324.288 
C 284.418626 324.288 283.646047 323.514348 283.646047 322.56 
C 283.646047 321.605652 284.418626 320.832 285.37165 320.832 
C 286.324675 320.832 287.097254 321.605652 287.097254 322.56 
" clip-path="url(#p72acef2d82)" style="fill: none; stroke: #0000ff; stroke-width: 0.36; stroke-linejoin: miter"/>
   </g>
   <g id="patch_12">
    <path d="M 287.097254 23.04 
C 287.097254 23.994348 286.324675 24.768 285.37165 24.768 
C 284.418626 24.768 283.646047 23.994348 283.646047 23.04 
C 283.646047 22.085652 284.418626 21.312 285.37165 21.312 
C 286.324675 21.312 287.097254 22.085652 287.097254 23.04 
" clip-path="url(#p72acef2d82)" style="fill: none; stroke: #0000ff; stroke-width: 0.36; stroke-linejoin: miter"/>
   </g>
   <g id="patch_13">
    <path d="M 191.97337 322.56 
C 191.97337 323.514348 191.200791 324.288 190.247767 324.288 
C 189.294743 324.288 188.522164 323.514348 188.522164 322.56 
C 188.522164 321.605652 189.294743 320.832 190.247767 320.832 
C 191.200791 320.832 191.97337 321.605652 191.97337 322.56 
" clip-path="url(#p72acef2d82)" style="fill: none; stroke: #0000ff; stroke-width: 0.36; stroke-linejoin: miter"/>
   </g>
   <g id="patch_14">
    <path d="M 191.97337 23.04 
C 191.97337 23.994348 191.200791 24.768 190.247767 24.768 
C 189.294743 24.768 188.522164 23.994348 188.522164 23.04 
C 188.522164 22.085652 189.294743 21.312 190.247767 21.312 
C 191.200791 21.312 191.97337 22.085652 191.97337 23.04 
" clip-path="url(#p72acef2d82)" style="fill: none; stroke: #0000ff; stroke-width: 0.36; stroke-linejoin: miter"/>
   </g>
   <g id="patch_15">
    <path d="M 96.849487 322.56 
C 96.849487 323.514348 96.076908 324.288 95.123883 324.288 
C 94.170859 324.288 93.39828 323.514348 93.39828 322.56 
C 93.39828 321.605652 94.170859 320.832 95.123883 320.832 
C 96.076908 320.832 96.849487 321.605652 96.849487 322.56 
" clip-path="url(#p72acef2d82)" style="fill: none; stroke: #0000ff; stroke-width: 0.36; stroke-linejoin: miter"/>
   </g>
   <g id="patch_16">
    <path d="M 96.849487 23.04 
C 96.849487 23.994348 96.076908 24.768 95.123883 24.768 
C 94.170859 24.768 93.39828 23.994348 93.39828 23.04 
C 93.39828 22.085652 94.170859 21.312 95.123883 21.312 
C 96.076908 21.312 96.849487 22.085652 96.849487 23.04 
" clip-path="url(#p72acef2d82)" style="fill: none; stroke: #0000ff; stroke-width: 0.36; stroke-linejoin: miter"/>
   </g>
   <g id="patch_17">
    <path d="M 359.213093 5.472 
C 359.213093 6.426348 358.440514 7.2 357.48749 7.2 
C 356.534465 7.2 355.761886 6.426348 355.761886 5.472 
C 355.761886 4.517652 356.534465 3.744 357.48749 3.744 
C 358.440514 3.744 359.213093 4.517652 359.213093 5.472 
" clip-path="url(#p72acef2d82)" style="fill: none; stroke: #0000ff; stroke-width: 0.36; stroke-linejoin: miter"/>
   </g>
   <g id="patch_18">
    <path d="M 315.569709 5.472 
C 315.569709 6.426348 314.79713 7.2 313.844105 7.2 
C 312.891081 7.2 312.118502 6.426348 312.118502 5.472 
C 312.118502 4.517652 312.891081 3.744 313.844105 3.744 
C 314.79713 3.744 315.569709 4.517652 315.569709 5.472 
" clip-path="url(#p72acef2d82)" style="fill: none; stroke: #0000ff; stroke-width: 0.36; stroke-linejoin: miter"/>
   </g>
   <g id="patch_19">
    <path d="M 258.624799 5.472 
C 258.624799 6.426348 257.85222 7.2 256.899196 7.2 
C 255.946171 7.2 255.173592 6.426348 255.173592 5.472 
C 255.173592 4.517652 255.946171 3.744 256.899196 3.744 
C 257.85222 3.744 258.624799 4.517652 258.624799 5.472 
" clip-path="url(#p72acef2d82)" style="fill: none; stroke: #0000ff; stroke-width: 0.36; stroke-linejoin: miter"/>
   </g>
   <g id="patch_20">
    <path d="M 220.445825 5.472 
C 220.445825 6.426348 219.673246 7.2 218.720222 7.2 
C 217.767198 7.2 216.994619 6.426348 216.994619 5.472 
C 216.994619 4.517652 217.767198 3.744 218.720222 3.744 
C 219.673246 3.744 220.445825 4.517652 220.445825 5.472 
" clip-path="url(#p72acef2d82)" style="fill: none; stroke: #0000ff; stroke-width: 0.36; stroke-linejoin: miter"/>
   </g>
   <g id="patch_21">
    <path d="M 414.72 345.6 
L 414.72 -0 
L 0 -0 
L 0 345.6 
L 414.72 345.6 
" clip-path="url(#p72acef2d82)" style="fill: none; stroke: #0000ff; stroke-width: 0.36; stroke-linejoin: miter"/>
   </g>
   <g id="patch_22">
    <path d="M 24.158447 322.56 
C 24.158447 325.104928 22.098236 327.168 19.556838 327.168 
C 17.015439 327.168 14.955229 325.104928 14.955229 322.56 
C 14.955229 320.015072 17.015439 317.952 19.556838 317.952 
C 22.098236 317.952 24.158447 320.015072 24.158447 322.56 
" clip-path="url(#p72acef2d82)" style="fill: none; stroke: #0000ff; stroke-width: 0.36; stroke-linejoin: miter"/>
   </g>
   <g id="patch_23">
    <path d="M 24.158447 23.04 
C 24.158447 25.584928 22.098236 27.648 19.556838 27.648 
C 17.015439 27.648 14.955229 25.584928 14.955229 23.04 
C 14.955229 20.495072 17.015439 18.432 19.556838 18.432 
C 22.098236 18.432 24.158447 20.495072 24.158447 23.04 
" clip-path="url(#p72acef2d82)" style="fill: none; stroke: #0000ff; stroke-width: 0.36; stroke-linejoin: miter"/>
   </g>
   <g id="patch_24">
    <path d="M 387.685548 322.56 
C 387.685548 323.514348 386.912969 324.288 385.959945 324.288 
C 385.00692 324.288 384.234341 323.514348 384.234341 322.56 
C 384.234341 321.605652 385.00692 320.832 385.959945 320.832 
C 386.912969 320.832 387.685548 321.605652 387.685548 322.56 
" clip-path="url(#p72acef2d82)" style="fill: none; stroke: #0000ff; stroke-width: 0.36; stroke-linejoin: miter"/>
   </g>
   <g id="patch_25">
    <path d="M 387.685548 23.04 
C 387.685548 23.994348 386.912969 24.768 385.959945 24.768 
C 385.00692 24.768 384.234341 23.994348 384.234341 23.04 
C 384.234341 22.085652 385.00692 21.312 385.959945 21.312 
C 386.912969 21.312 387.685548 22.085652 387.685548 23.04 
" clip-path="url(#p72acef2d82)" style="fill: none; stroke: #0000ff; stroke-width: 0.36; stroke-linejoin: miter"/>
   </g>
   <g id="patch_26">
    <path d="M 404.797781 5.472 
C 404.797781 6.426348 404.025202 7.2 403.072178 7.2 
C 402.119153 7.2 401.346574 6.426348 401.346574 5.472 
C 401.346574 4.517652 402.119153 3.744 403.072178 3.744 
C 404.025202 3.744 404.797781 4.517652 404.797781 5.472 
" clip-path="url(#p72acef2d82)" style="fill: none; stroke: #0000ff; stroke-width: 0.36; stroke-linejoin: miter"/>
   </g>
   <g id="patch_27">
    <path d="M 404.797781 340.128 
C 404.797781 341.082348 404.025202 341.856 403.072178 341.856 
C 402.119153 341.856 401.346574 341.082348 401.346574 340.128 
C 401.346574 339.173652 402.119153 338.4 403.072178 338.4 
C 404.025202 338.4 404.797781 339.173652 404.797781 340.128 
" clip-path="url(#p72acef2d82)" style="fill: none; stroke: #0000ff; stroke-width: 0.36; stroke-linejoin: miter"/>
   </g>
   <g id="patch_28">
    <path d="M 287.097254 322.56 
C 287.097254 323.514348 286.324675 324.288 285.37165 324.288 
C 284.418626 324.288 283.646047 323.514348 283.646047 322.56 
C 283.646047 321.605652 284.418626 320.832 285.37165 320.832 
C 286.324675 320.832 287.097254 321.605652 287.097254 322.56 
" clip-path="url(#p72acef2d82)" style="fill: none; stroke: #0000ff; stroke-width: 0.36; stroke-linejoin: miter"/>
   </g>
   <g id="patch_29">
    <path d="M 287.097254 23.04 
C 287.097254 23.994348 286.324675 24.768 285.37165 24.768 
C 284.418626 24.768 283.646047 23.994348 283.646047 23.04 
C 283.646047 22.085652 284.418626 21.312 285.37165 21.312 
C 286.324675 21.312 287.097254 22.085652 287.097254 23.04 
" clip-path="url(#p72acef2d82)" style="fill: none; stroke: #0000ff; stroke-width: 0.36; stroke-linejoin: miter"/>
   </g>
   <g id="patch_30">
    <path d="M 191.97337 322.56 
C 191.97337 323.514348 191.200791 324.288 190.247767 324.288 
C 189.294743 324.288 188.522164 323.514348 188.522164 322.56 
C 188.522164 321.605652 189.294743 320.832 190.247767 320.832 
C 191.200791 320.832 191.97337 321.605652 191.97337 322.56 
" clip-path="url(#p72acef2d82)" style="fill: none; stroke: #0000ff; stroke-width: 0.36; stroke-linejoin: miter"/>
   </g>
   <g id="patch_31">
    <path d="M 191.97337 23.04 
C 191.97337 23.994348 191.200791 24.768 190.247767 24.768 
C 189.294743 24.768 188.522164 23.994348 188.522164 23.04 
C 188.522164 22.085652 189.294743 21.312 190.247767 21.312 
C 191.200791 21.312 191.97337 22.085652 191.97337 23.04 
" clip-path="url(#p72acef2d82)" style="fill: none; stroke: #0000ff; stroke-width: 0.36; stroke-linejoin: miter"/>
   </g>
   <g id="patch_32">
    <path d="M 96.849487 322.56 
C 96.849487 323.514348 96.076908 324.288 95.123883 324.288 
C 94.170859 324.288 93.39828 323.514348 93.39828 322.56 
C 93.39828 321.605652 94.170859 320.832 95.123883 320.832 
C 96.076908 320.832 96.849487 321.605652 96.849487 322.56 
" clip-path="url(#p72acef2d82)" style="fill: none; stroke: #0000ff; stroke-width: 0.36; stroke-linejoin: miter"/>
   </g>
   <g id="patch_33">
    <path d="M 96.849487 23.04 
C 96.849487 23.994348 96.076908 24.768 95.123883 24.768 
C 94.170859 24.768 93.39828 23.994348 93.39828 23.04 
C 93.39828 22.085652 94.170859 21.312 95.123883 21.312 
C 96.076908 21.312 96.849487 22.085652 96.849487 23.04 
" clip-path="url(#p72acef2d82)" style="fill: none; stroke: #0000ff; stroke-width: 0.36; stroke-linejoin: miter"/>
   </g>
   <g id="patch_34">
    <path d="M 359.213093 5.472 
C 359.213093 6.426348 358.440514 7.2 357.48749 7.2 
C 356.534465 7.2 355.761886 6.426348 355.761886 5.472 
C 355.761886 4.517652 356.534465 3.744 357.48749 3.744 
C 358.440514 3.744 359.213093 4.517652 359.213093 5.472 
" clip-path="url(#p72acef2d82)" style="fill: none; stroke: #0000ff; stroke-width: 0.36; stroke-linejoin: miter"/>
   </g>
   <g id="patch_35">
    <path d="M 315.569709 5.472 
C 315.569709 6.426348 314.79713 7.2 313.844105 7.2 
C 312.891081 7.2 312.118502 6.426348 312.118502 5.472 
C 312.118502 4.517652 312.891081 3.744 313.844105 3.744 
C 314.79713 3.744 315.569709 4.517652 315.569709 5.472 
" clip-path="url(#p72acef2d82)" style="fill: none; stroke: #0000ff; stroke-width: 0.36; stroke-linejoin: miter"/>
   </g>
   <g id="patch_36">
    <path d="M 258.624799 5.472 
C 258.624799 6.426348 257.85222 7.2 256.899196 7.2 
C 255.946171 7.2 255.173592 6.426348 255.173592 5.472 
C 255.173592 4.517652 255.946171 3.744 256.899196 3.744 
C 257.85222 3.744 258.624799 4.517652 258.624799 5.472 
" clip-path="url(#p72acef2d82)" style="fill: none; stroke: #0000ff; stroke-width: 0.36; stroke-linejoin: miter"/>
   </g>
   <g id="patch_37">
    <path d="M 220.445825 5.472 
C 220.445825 6.426348 219.673246 7.2 218.720222 7.2 
C 217.767198 7.2 216.994619 6.426348 216.994619 5.472 
C 216.994619 4.517652 217.767198 3.744 218.720222 3.744 
C 219.673246 3.744 220.445825 4.517652 220.445825 5.472 
" clip-path="url(#p72acef2d82)" style="fill: none; stroke: #0000ff; stroke-width: 0.36; stroke-linejoin: miter"/>
   </g>
  </g>
 </g>
 <defs>
  <clipPath id="p72acef2d82">
   <rect x="0" y="-0" width="414.72" height="345.6"/>
  </clipPath>
 </defs>
</svg>
