<?xml version="1.0" encoding="utf-8" standalone="no"?>
<!DOCTYPE svg PUBLIC "-//W3C//DTD SVG 1.1//EN"
  "http://www.w3.org/Graphics/SVG/1.1/DTD/svg11.dtd">
<svg xmlns:xlink="http://www.w3.org/1999/xlink" width="288pt" height="1152pt" viewBox="0 0 288 1152" xmlns="http://www.w3.org/2000/svg" version="1.1">
 <metadata>
  <rdf:RDF xmlns:dc="http://purl.org/dc/elements/1.1/" xmlns:cc="http://creativecommons.org/ns#" xmlns:rdf="http://www.w3.org/1999/02/22-rdf-syntax-ns#">
   <cc:Work>
    <dc:type rdf:resource="http://purl.org/dc/dcmitype/StillImage"/>
    <dc:date>2025-02-07T14:57:28.785974</dc:date>
    <dc:format>image/svg+xml</dc:format>
    <dc:creator>
     <cc:Agent>
      <dc:title>Matplotlib v3.10.0, https://matplotlib.org/</dc:title>
     </cc:Agent>
    </dc:creator>
   </cc:Work>
  </rdf:RDF>
 </metadata>
 <defs>
  <style type="text/css">*{stroke-linejoin: round; stroke-linecap: butt}</style>
 </defs>
 <g id="figure_1">
  <g id="axes_1">
   <g id="patch_1">
    <path d="M 0 1152 
L 288 1152 
L 288 0 
L 0 0 
L 0 1152 
z
" style="fill: none"/>
   </g>
   <g id="patch_2">
    <path d="M 71.754723 -0 
L 71.754723 1152 
L 71.754723 1152 
L 71.754723 -0 
" clip-path="url(#pca20be3811)" style="fill: none; stroke: #0000ff; stroke-width: 0.36; stroke-linejoin: miter"/>
   </g>
   <g id="patch_3">
    <path d="M 71.754723 -0 
L 71.754723 1152 
L 216.245277 1152 
L 216.245277 -0 
L 71.754723 -0 
" clip-path="url(#pca20be3811)" style="fill: none; stroke: #0000ff; stroke-width: 0.36; stroke-linejoin: miter"/>
   </g>
   <g id="patch_4">
    <path d="M 71.754723 -0 
L 216.245277 -0 
L 216.245277 -0 
L 71.754723 -0 
" clip-path="url(#pca20be3811)" style="fill: none; stroke: #0000ff; stroke-width: 0.36; stroke-linejoin: miter"/>
   </g>
   <g id="patch_5">
    <path d="M 71.754723 1152 
L 216.245277 1152 
L 216.245277 1152 
L 71.754723 1152 
" clip-path="url(#pca20be3811)" style="fill: none; stroke: #0000ff; stroke-width: 0.36; stroke-linejoin: miter"/>
   </g>
   <g id="patch_6">
    <path d="M 216.245277 -0 
L 216.245277 1152 
L 216.245277 1152 
L 216.245277 -0 
" clip-path="url(#pca20be3811)" style="fill: none; stroke: #0000ff; stroke-width: 0.36; stroke-linejoin: miter"/>
   </g>
   <g id="patch_7">
    <path d="M 71.754723 -0 
L 71.754723 1152 
L 216.245277 1152 
L 216.245277 -0 
L 71.754723 -0 
" clip-path="url(#pca20be3811)" style="fill: none; stroke: #0000ff; stroke-width: 0.36; stroke-linejoin: miter"/>
   </g>
  </g>
 </g>
 <defs>
  <clipPath id="pca20be3811">
   <rect x="0" y="0" width="288" height="1152"/>
  </clipPath>
 </defs>
</svg>
