<?xml version="1.0" encoding="utf-8" standalone="no"?>
<!DOCTYPE svg PUBLIC "-//W3C//DTD SVG 1.1//EN"
  "http://www.w3.org/Graphics/SVG/1.1/DTD/svg11.dtd">
<svg xmlns:xlink="http://www.w3.org/1999/xlink" width="414.72pt" height="345.6pt" viewBox="0 0 414.72 345.6" xmlns="http://www.w3.org/2000/svg" version="1.1">
 <metadata>
  <rdf:RDF xmlns:dc="http://purl.org/dc/elements/1.1/" xmlns:cc="http://creativecommons.org/ns#" xmlns:rdf="http://www.w3.org/1999/02/22-rdf-syntax-ns#">
   <cc:Work>
    <dc:type rdf:resource="http://purl.org/dc/dcmitype/StillImage"/>
    <dc:date>2025-02-05T16:39:27.093639</dc:date>
    <dc:format>image/svg+xml</dc:format>
    <dc:creator>
     <cc:Agent>
      <dc:title>Matplotlib v3.10.0, https://matplotlib.org/</dc:title>
     </cc:Agent>
    </dc:creator>
   </cc:Work>
  </rdf:RDF>
 </metadata>
 <defs>
  <style type="text/css">*{stroke-linejoin: round; stroke-linecap: butt}</style>
 </defs>
 <g id="figure_1">
  <g id="patch_1">
   <path d="M 0 345.6 
L 414.72 345.6 
L 414.72 0 
L 0 0 
z
" style="fill: #ffffff"/>
  </g>
  <g id="axes_1">
   <g id="patch_2">
    <path d="M 0 345.6 
L 414.72 345.6 
L 414.72 0 
L 0 0 
z
" style="fill: #212830"/>
   </g>
   <g id="patch_3">
    <path d="M 18.850909 329.890909 
L 18.850909 15.709091 
L 18.850909 15.709091 
L 18.850909 329.890909 
" clip-path="url(#pccd49df0e1)" style="fill: none; stroke: #0000ff; stroke-width: 0.36; stroke-linejoin: miter"/>
   </g>
   <g id="patch_4">
    <path d="M 18.850909 329.890909 
L 18.850909 15.709091 
L 395.869091 15.709091 
L 395.869091 329.890909 
L 18.850909 329.890909 
" clip-path="url(#pccd49df0e1)" style="fill: none; stroke: #0000ff; stroke-width: 0.36; stroke-linejoin: miter"/>
   </g>
   <g id="patch_5">
    <path d="M 18.850909 329.890909 
L 395.869091 329.890909 
L 395.869091 329.890909 
L 18.850909 329.890909 
" clip-path="url(#pccd49df0e1)" style="fill: none; stroke: #0000ff; stroke-width: 0.36; stroke-linejoin: miter"/>
   </g>
   <g id="patch_6">
    <path d="M 18.850909 15.709091 
L 395.869091 15.709091 
L 395.869091 15.709091 
L 18.850909 15.709091 
" clip-path="url(#pccd49df0e1)" style="fill: none; stroke: #0000ff; stroke-width: 0.36; stroke-linejoin: miter"/>
   </g>
   <g id="patch_7">
    <path d="M 395.869091 329.890909 
L 395.869091 15.709091 
L 395.869091 15.709091 
L 395.869091 329.890909 
" clip-path="url(#pccd49df0e1)" style="fill: none; stroke: #0000ff; stroke-width: 0.36; stroke-linejoin: miter"/>
   </g>
   <g id="patch_8">
    <path d="M 18.850909 329.890909 
L 18.850909 15.709091 
L 395.869091 15.709091 
L 395.869091 329.890909 
L 18.850909 329.890909 
" clip-path="url(#pccd49df0e1)" style="fill: none; stroke: #0000ff; stroke-width: 0.36; stroke-linejoin: miter"/>
   </g>
   <g id="patch_9">
    <path d="M 382.273428 36.654545 
C 382.273428 38.968116 380.40051 40.843636 378.090148 40.843636 
C 375.779785 40.843636 373.906867 38.968116 373.906867 36.654545 
C 373.906867 34.340974 375.779785 32.465455 378.090148 32.465455 
C 380.40051 32.465455 382.273428 34.340974 382.273428 36.654545 
" clip-path="url(#pccd49df0e1)" style="fill: none; stroke: #0000ff; stroke-width: 0.36; stroke-linejoin: miter"/>
   </g>
   <g id="patch_10">
    <path d="M 382.273428 308.945455 
C 382.273428 311.259026 380.40051 313.134545 378.090148 313.134545 
C 375.779785 313.134545 373.906867 311.259026 373.906867 308.945455 
C 373.906867 306.631884 375.779785 304.756364 378.090148 304.756364 
C 380.40051 304.756364 382.273428 306.631884 382.273428 308.945455 
" clip-path="url(#pccd49df0e1)" style="fill: none; stroke: #0000ff; stroke-width: 0.36; stroke-linejoin: miter"/>
   </g>
   <g id="patch_11">
    <path d="M 46.565144 308.945455 
C 46.565144 309.813044 45.8628 310.516364 44.996414 310.516364 
C 44.130028 310.516364 43.427684 309.813044 43.427684 308.945455 
C 43.427684 308.077865 44.130028 307.374545 44.996414 307.374545 
C 45.8628 307.374545 46.565144 308.077865 46.565144 308.945455 
" clip-path="url(#pccd49df0e1)" style="fill: none; stroke: #0000ff; stroke-width: 0.36; stroke-linejoin: miter"/>
   </g>
   <g id="patch_12">
    <path d="M 46.565144 36.654545 
C 46.565144 37.522135 45.8628 38.225455 44.996414 38.225455 
C 44.130028 38.225455 43.427684 37.522135 43.427684 36.654545 
C 43.427684 35.786956 44.130028 35.083636 44.996414 35.083636 
C 45.8628 35.083636 46.565144 35.786956 46.565144 36.654545 
" clip-path="url(#pccd49df0e1)" style="fill: none; stroke: #0000ff; stroke-width: 0.36; stroke-linejoin: miter"/>
   </g>
   <g id="patch_13">
    <path d="M 31.008569 20.683636 
C 31.008569 21.551225 30.306224 22.254545 29.439839 22.254545 
C 28.573453 22.254545 27.871108 21.551225 27.871108 20.683636 
C 27.871108 19.816047 28.573453 19.112727 29.439839 19.112727 
C 30.306224 19.112727 31.008569 19.816047 31.008569 20.683636 
" clip-path="url(#pccd49df0e1)" style="fill: none; stroke: #0000ff; stroke-width: 0.36; stroke-linejoin: miter"/>
   </g>
   <g id="patch_14">
    <path d="M 31.008569 324.916364 
C 31.008569 325.783953 30.306224 326.487273 29.439839 326.487273 
C 28.573453 326.487273 27.871108 325.783953 27.871108 324.916364 
C 27.871108 324.048775 28.573453 323.345455 29.439839 323.345455 
C 30.306224 323.345455 31.008569 324.048775 31.008569 324.916364 
" clip-path="url(#pccd49df0e1)" style="fill: none; stroke: #0000ff; stroke-width: 0.36; stroke-linejoin: miter"/>
   </g>
   <g id="patch_15">
    <path d="M 138.009048 308.945455 
C 138.009048 309.813044 137.306704 310.516364 136.440318 310.516364 
C 135.573932 310.516364 134.871587 309.813044 134.871587 308.945455 
C 134.871587 308.077865 135.573932 307.374545 136.440318 307.374545 
C 137.306704 307.374545 138.009048 308.077865 138.009048 308.945455 
" clip-path="url(#pccd49df0e1)" style="fill: none; stroke: #0000ff; stroke-width: 0.36; stroke-linejoin: miter"/>
   </g>
   <g id="patch_16">
    <path d="M 138.009048 36.654545 
C 138.009048 37.522135 137.306704 38.225455 136.440318 38.225455 
C 135.573932 38.225455 134.871587 37.522135 134.871587 36.654545 
C 134.871587 35.786956 135.573932 35.083636 136.440318 35.083636 
C 137.306704 35.083636 138.009048 35.786956 138.009048 36.654545 
" clip-path="url(#pccd49df0e1)" style="fill: none; stroke: #0000ff; stroke-width: 0.36; stroke-linejoin: miter"/>
   </g>
   <g id="patch_17">
    <path d="M 224.485306 308.945455 
C 224.485306 309.813044 223.782961 310.516364 222.916575 310.516364 
C 222.05019 310.516364 221.347845 309.813044 221.347845 308.945455 
C 221.347845 308.077865 222.05019 307.374545 222.916575 307.374545 
C 223.782961 307.374545 224.485306 308.077865 224.485306 308.945455 
" clip-path="url(#pccd49df0e1)" style="fill: none; stroke: #0000ff; stroke-width: 0.36; stroke-linejoin: miter"/>
   </g>
   <g id="patch_18">
    <path d="M 224.485306 36.654545 
C 224.485306 37.522135 223.782961 38.225455 222.916575 38.225455 
C 222.05019 38.225455 221.347845 37.522135 221.347845 36.654545 
C 221.347845 35.786956 222.05019 35.083636 222.916575 35.083636 
C 223.782961 35.083636 224.485306 35.786956 224.485306 36.654545 
" clip-path="url(#pccd49df0e1)" style="fill: none; stroke: #0000ff; stroke-width: 0.36; stroke-linejoin: miter"/>
   </g>
   <g id="patch_19">
    <path d="M 310.961563 308.945455 
C 310.961563 309.813044 310.259219 310.516364 309.392833 310.516364 
C 308.526447 310.516364 307.824103 309.813044 307.824103 308.945455 
C 307.824103 308.077865 308.526447 307.374545 309.392833 307.374545 
C 310.259219 307.374545 310.961563 308.077865 310.961563 308.945455 
" clip-path="url(#pccd49df0e1)" style="fill: none; stroke: #0000ff; stroke-width: 0.36; stroke-linejoin: miter"/>
   </g>
   <g id="patch_20">
    <path d="M 310.961563 36.654545 
C 310.961563 37.522135 310.259219 38.225455 309.392833 38.225455 
C 308.526447 38.225455 307.824103 37.522135 307.824103 36.654545 
C 307.824103 35.786956 308.526447 35.083636 309.392833 35.083636 
C 310.259219 35.083636 310.961563 35.786956 310.961563 36.654545 
" clip-path="url(#pccd49df0e1)" style="fill: none; stroke: #0000ff; stroke-width: 0.36; stroke-linejoin: miter"/>
   </g>
   <g id="patch_21">
    <path d="M 72.449194 20.683636 
C 72.449194 21.551225 71.74685 22.254545 70.880464 22.254545 
C 70.014078 22.254545 69.311734 21.551225 69.311734 20.683636 
C 69.311734 19.816047 70.014078 19.112727 70.880464 19.112727 
C 71.74685 19.112727 72.449194 19.816047 72.449194 20.683636 
" clip-path="url(#pccd49df0e1)" style="fill: none; stroke: #0000ff; stroke-width: 0.36; stroke-linejoin: miter"/>
   </g>
   <g id="patch_22">
    <path d="M 112.124998 20.683636 
C 112.124998 21.551225 111.422654 22.254545 110.556268 22.254545 
C 109.689882 22.254545 108.987538 21.551225 108.987538 20.683636 
C 108.987538 19.816047 109.689882 19.112727 110.556268 19.112727 
C 111.422654 19.112727 112.124998 19.816047 112.124998 20.683636 
" clip-path="url(#pccd49df0e1)" style="fill: none; stroke: #0000ff; stroke-width: 0.36; stroke-linejoin: miter"/>
   </g>
   <g id="patch_23">
    <path d="M 163.893098 20.683636 
C 163.893098 21.551225 163.190753 22.254545 162.324368 22.254545 
C 161.457982 22.254545 160.755637 21.551225 160.755637 20.683636 
C 160.755637 19.816047 161.457982 19.112727 162.324368 19.112727 
C 163.190753 19.112727 163.893098 19.816047 163.893098 20.683636 
" clip-path="url(#pccd49df0e1)" style="fill: none; stroke: #0000ff; stroke-width: 0.36; stroke-linejoin: miter"/>
   </g>
   <g id="patch_24">
    <path d="M 198.601256 20.683636 
C 198.601256 21.551225 197.898911 22.254545 197.032526 22.254545 
C 196.16614 22.254545 195.463795 21.551225 195.463795 20.683636 
C 195.463795 19.816047 196.16614 19.112727 197.032526 19.112727 
C 197.898911 19.112727 198.601256 19.816047 198.601256 20.683636 
" clip-path="url(#pccd49df0e1)" style="fill: none; stroke: #0000ff; stroke-width: 0.36; stroke-linejoin: miter"/>
   </g>
  </g>
 </g>
 <defs>
  <clipPath id="pccd49df0e1">
   <rect x="0" y="0" width="414.72" height="345.6"/>
  </clipPath>
 </defs>
</svg>
