<?xml version="1.0" encoding="utf-8" ?>
<svg xmlns="http://www.w3.org/2000/svg" xmlns:ev="http://www.w3.org/2001/xml-events" xmlns:xlink="http://www.w3.org/1999/xlink" baseProfile="tiny" height="2000mm" version="1.2" viewBox="0 0 2800 2000" width="2800mm">
  <defs/>
  <g transform="translate(288.0000,345.6001) rotate(0)">
    <path d="M 0.0,534.96 L 288.0,534.96 L 288.0,0.0 L 0.0,0.0 L 0.0,534.96" fill-opacity="0" stroke="red" stroke-width="1"/>
    <path d="M 0.0,534.96 L 288.0,534.96 L 288.0,0.0 L 0.0,0.0 L 0.0,534.96" fill-opacity="0" stroke="red" stroke-width="1"/>
    <path d="M 13.090909,510.643636 L 13.090909,510.643636 L 274.909091,510.643636 L 274.909091,510.643636 L 13.090909,510.643636" fill-opacity="0" stroke="red" stroke-width="1"/>
    <path d="M 13.090909,24.316364 L 13.090909,24.316364 L 274.909091,24.316364 L 274.909091,24.316364 L 13.090909,24.316364" fill-opacity="0" stroke="red" stroke-width="1"/>
    <path d="M 13.090909,510.643636 L 13.090909,510.643636 L 13.090909,24.316364 L 13.090909,24.316364 L 13.090909,510.643636" fill-opacity="0" stroke="red" stroke-width="1"/>
    <path d="M 274.909091,510.643636 L 274.909091,510.643636 L 274.909091,24.316364 L 274.909091,24.316364 L 274.909091,510.643636" fill-opacity="0" stroke="red" stroke-width="1"/>
    <path d="M 13.090909,510.643636 L 13.090909,24.316364 L 274.909091,24.316364 L 274.909091,510.643636 L 13.090909,510.643636" fill-opacity="0" stroke="red" stroke-width="1"/>
    <path d="M 47.956756,32.016545 C 47.956756,33.359501 46.867688,34.448182 45.524255,34.448182 C 44.180821,34.448182 43.091754,33.359501 43.091754,32.016545 C 43.091754,30.67359 44.180821,29.584909 45.524255,29.584909 C 46.867688,29.584909 47.956756,30.67359 47.956756,32.016545" fill-opacity="0" stroke="red" stroke-width="1"/>
    <path d="M 244.908246,32.016545 C 244.908246,33.359501 243.819179,34.448182 242.475745,34.448182 C 241.132312,34.448182 240.043244,33.359501 240.043244,32.016545 C 240.043244,30.67359 241.132312,29.584909 242.475745,29.584909 C 243.819179,29.584909 244.908246,30.67359 244.908246,32.016545" fill-opacity="0" stroke="red" stroke-width="1"/>
    <path d="M 13.090909,510.643636 L 13.090909,24.316364 L 274.909091,24.316364 L 274.909091,510.643636 L 13.090909,510.643636" fill-opacity="0" stroke="red" stroke-width="1"/>
    <path d="M 47.956756,32.016545 C 47.956756,33.359501 46.867688,34.448182 45.524255,34.448182 C 44.180821,34.448182 43.091754,33.359501 43.091754,32.016545 C 43.091754,30.67359 44.180821,29.584909 45.524255,29.584909 C 46.867688,29.584909 47.956756,30.67359 47.956756,32.016545" fill-opacity="0" stroke="red" stroke-width="1"/>
    <path d="M 244.908246,32.016545 C 244.908246,33.359501 243.819179,34.448182 242.475745,34.448182 C 241.132312,34.448182 240.043244,33.359501 240.043244,32.016545 C 240.043244,30.67359 241.132312,29.584909 242.475745,29.584909 C 243.819179,29.584909 244.908246,30.67359 244.908246,32.016545" fill-opacity="0" stroke="red" stroke-width="1"/>
    <path d="M 0.0,0.0 L 288.0,0.0 L 288.0,534.96 L 0.0,534.96 L 0.0,0.0" fill-opacity="0" stroke="red" stroke-width="1"/>
  </g>
  <g transform="translate(288.0000,880.5602) rotate(0)">
    <path d="M 0.0,345.6 L 414.72,345.6 L 414.72,0.0 L 0.0,0.0 L 0.0,345.6" fill-opacity="0" stroke="red" stroke-width="1"/>
    <path d="M 0.0,345.6 L 414.72,345.6 L 414.72,0.0 L 0.0,0.0 L 0.0,345.6" fill-opacity="0" stroke="red" stroke-width="1"/>
    <path d="M 395.869091,329.890909 L 395.869091,329.890909 L 395.869091,15.709091 L 395.869091,15.709091 L 395.869091,329.890909" fill-opacity="0" stroke="red" stroke-width="1"/>
    <path d="M 395.869091,329.890909 L 395.869091,329.890909 L 18.850909,329.890909 L 18.850909,329.890909 L 395.869091,329.890909" fill-opacity="0" stroke="red" stroke-width="1"/>
    <path d="M 395.869091,15.709091 L 395.869091,15.709091 L 18.850909,15.709091 L 18.850909,15.709091 L 395.869091,15.709091" fill-opacity="0" stroke="red" stroke-width="1"/>
    <path d="M 18.850909,329.890909 L 18.850909,329.890909 L 18.850909,15.709091 L 18.850909,15.709091 L 18.850909,329.890909" fill-opacity="0" stroke="red" stroke-width="1"/>
    <path d="M 395.869091,329.890909 L 395.869091,15.709091 L 18.850909,15.709091 L 18.850909,329.890909 L 395.869091,329.890909" fill-opacity="0" stroke="red" stroke-width="1"/>
    <path d="M 371.292316,308.945455 C 371.292316,309.813044 370.589972,310.516364 369.723586,310.516364 C 368.8572,310.516364 368.154856,309.813044 368.154856,308.945455 C 368.154856,308.077865 368.8572,307.374545 369.723586,307.374545 C 370.589972,307.374545 371.292316,308.077865 371.292316,308.945455" fill-opacity="0" stroke="red" stroke-width="1"/>
    <path d="M 371.292316,36.654545 C 371.292316,37.522135 370.589972,38.225455 369.723586,38.225455 C 368.8572,38.225455 368.154856,37.522135 368.154856,36.654545 C 368.154856,35.786956 368.8572,35.083636 369.723586,35.083636 C 370.589972,35.083636 371.292316,35.786956 371.292316,36.654545" fill-opacity="0" stroke="red" stroke-width="1"/>
    <path d="M 386.848892,20.683636 C 386.848892,21.551225 386.146547,22.254545 385.280161,22.254545 C 384.413776,22.254545 383.711431,21.551225 383.711431,20.683636 C 383.711431,19.816047 384.413776,19.112727 385.280161,19.112727 C 386.146547,19.112727 386.848892,19.816047 386.848892,20.683636" fill-opacity="0" stroke="red" stroke-width="1"/>
    <path d="M 386.848892,324.916364 C 386.848892,325.783953 386.146547,326.487273 385.280161,326.487273 C 384.413776,326.487273 383.711431,325.783953 383.711431,324.916364 C 383.711431,324.048775 384.413776,323.345455 385.280161,323.345455 C 386.146547,323.345455 386.848892,324.048775 386.848892,324.916364" fill-opacity="0" stroke="red" stroke-width="1"/>
    <path d="M 279.848413,308.945455 C 279.848413,309.813044 279.146068,310.516364 278.279682,310.516364 C 277.413296,310.516364 276.710952,309.813044 276.710952,308.945455 C 276.710952,308.077865 277.413296,307.374545 278.279682,307.374545 C 279.146068,307.374545 279.848413,308.077865 279.848413,308.945455" fill-opacity="0" stroke="red" stroke-width="1"/>
    <path d="M 279.848413,36.654545 C 279.848413,37.522135 279.146068,38.225455 278.279682,38.225455 C 277.413296,38.225455 276.710952,37.522135 276.710952,36.654545 C 276.710952,35.786956 277.413296,35.083636 278.279682,35.083636 C 279.146068,35.083636 279.848413,35.786956 279.848413,36.654545" fill-opacity="0" stroke="red" stroke-width="1"/>
    <path d="M 193.372155,308.945455 C 193.372155,309.813044 192.66981,310.516364 191.803425,310.516364 C 190.937039,310.516364 190.234694,309.813044 190.234694,308.945455 C 190.234694,308.077865 190.937039,307.374545 191.803425,307.374545 C 192.66981,307.374545 193.372155,308.077865 193.372155,308.945455" fill-opacity="0" stroke="red" stroke-width="1"/>
    <path d="M 193.372155,36.654545 C 193.372155,37.522135 192.66981,38.225455 191.803425,38.225455 C 190.937039,38.225455 190.234694,37.522135 190.234694,36.654545 C 190.234694,35.786956 190.937039,35.083636 191.803425,35.083636 C 192.66981,35.083636 193.372155,35.786956 193.372155,36.654545" fill-opacity="0" stroke="red" stroke-width="1"/>
    <path d="M 106.895897,308.945455 C 106.895897,309.813044 106.193553,310.516364 105.327167,310.516364 C 104.460781,310.516364 103.758437,309.813044 103.758437,308.945455 C 103.758437,308.077865 104.460781,307.374545 105.327167,307.374545 C 106.193553,307.374545 106.895897,308.077865 106.895897,308.945455" fill-opacity="0" stroke="red" stroke-width="1"/>
    <path d="M 106.895897,36.654545 C 106.895897,37.522135 106.193553,38.225455 105.327167,38.225455 C 104.460781,38.225455 103.758437,37.522135 103.758437,36.654545 C 103.758437,35.786956 104.460781,35.083636 105.327167,35.083636 C 106.193553,35.083636 106.895897,35.786956 106.895897,36.654545" fill-opacity="0" stroke="red" stroke-width="1"/>
    <path d="M 345.408266,20.683636 C 345.408266,21.551225 344.705922,22.254545 343.839536,22.254545 C 342.97315,22.254545 342.270806,21.551225 342.270806,20.683636 C 342.270806,19.816047 342.97315,19.112727 343.839536,19.112727 C 344.705922,19.112727 345.408266,19.816047 345.408266,20.683636" fill-opacity="0" stroke="red" stroke-width="1"/>
    <path d="M 305.732462,20.683636 C 305.732462,21.551225 305.030118,22.254545 304.163732,22.254545 C 303.297346,22.254545 302.595002,21.551225 302.595002,20.683636 C 302.595002,19.816047 303.297346,19.112727 304.163732,19.112727 C 305.030118,19.112727 305.732462,19.816047 305.732462,20.683636" fill-opacity="0" stroke="red" stroke-width="1"/>
    <path d="M 253.964363,20.683636 C 253.964363,21.551225 253.262018,22.254545 252.395632,22.254545 C 251.529247,22.254545 250.826902,21.551225 250.826902,20.683636 C 250.826902,19.816047 251.529247,19.112727 252.395632,19.112727 C 253.262018,19.112727 253.964363,19.816047 253.964363,20.683636" fill-opacity="0" stroke="red" stroke-width="1"/>
    <path d="M 219.256205,20.683636 C 219.256205,21.551225 218.55386,22.254545 217.687474,22.254545 C 216.821089,22.254545 216.118744,21.551225 216.118744,20.683636 C 216.118744,19.816047 216.821089,19.112727 217.687474,19.112727 C 218.55386,19.112727 219.256205,19.816047 219.256205,20.683636" fill-opacity="0" stroke="red" stroke-width="1"/>
    <path d="M 395.869091,329.890909 L 395.869091,15.709091 L 18.850909,15.709091 L 18.850909,329.890909 L 395.869091,329.890909" fill-opacity="0" stroke="red" stroke-width="1"/>
    <path d="M 40.813133,308.945455 C 40.813133,311.259026 38.940215,313.134545 36.629852,313.134545 C 34.31949,313.134545 32.446572,311.259026 32.446572,308.945455 C 32.446572,306.631884 34.31949,304.756364 36.629852,304.756364 C 38.940215,304.756364 40.813133,306.631884 40.813133,308.945455" fill-opacity="0" stroke="red" stroke-width="1"/>
    <path d="M 40.813133,36.654545 C 40.813133,38.968116 38.940215,40.843636 36.629852,40.843636 C 34.31949,40.843636 32.446572,38.968116 32.446572,36.654545 C 32.446572,34.340974 34.31949,32.465455 36.629852,32.465455 C 38.940215,32.465455 40.813133,34.340974 40.813133,36.654545" fill-opacity="0" stroke="red" stroke-width="1"/>
    <path d="M 371.292316,308.945455 C 371.292316,309.813044 370.589972,310.516364 369.723586,310.516364 C 368.8572,310.516364 368.154856,309.813044 368.154856,308.945455 C 368.154856,308.077865 368.8572,307.374545 369.723586,307.374545 C 370.589972,307.374545 371.292316,308.077865 371.292316,308.945455" fill-opacity="0" stroke="red" stroke-width="1"/>
    <path d="M 371.292316,36.654545 C 371.292316,37.522135 370.589972,38.225455 369.723586,38.225455 C 368.8572,38.225455 368.154856,37.522135 368.154856,36.654545 C 368.154856,35.786956 368.8572,35.083636 369.723586,35.083636 C 370.589972,35.083636 371.292316,35.786956 371.292316,36.654545" fill-opacity="0" stroke="red" stroke-width="1"/>
    <path d="M 386.848892,20.683636 C 386.848892,21.551225 386.146547,22.254545 385.280161,22.254545 C 384.413776,22.254545 383.711431,21.551225 383.711431,20.683636 C 383.711431,19.816047 384.413776,19.112727 385.280161,19.112727 C 386.146547,19.112727 386.848892,19.816047 386.848892,20.683636" fill-opacity="0" stroke="red" stroke-width="1"/>
    <path d="M 386.848892,324.916364 C 386.848892,325.783953 386.146547,326.487273 385.280161,326.487273 C 384.413776,326.487273 383.711431,325.783953 383.711431,324.916364 C 383.711431,324.048775 384.413776,323.345455 385.280161,323.345455 C 386.146547,323.345455 386.848892,324.048775 386.848892,324.916364" fill-opacity="0" stroke="red" stroke-width="1"/>
    <path d="M 279.848413,308.945455 C 279.848413,309.813044 279.146068,310.516364 278.279682,310.516364 C 277.413296,310.516364 276.710952,309.813044 276.710952,308.945455 C 276.710952,308.077865 277.413296,307.374545 278.279682,307.374545 C 279.146068,307.374545 279.848413,308.077865 279.848413,308.945455" fill-opacity="0" stroke="red" stroke-width="1"/>
    <path d="M 279.848413,36.654545 C 279.848413,37.522135 279.146068,38.225455 278.279682,38.225455 C 277.413296,38.225455 276.710952,37.522135 276.710952,36.654545 C 276.710952,35.786956 277.413296,35.083636 278.279682,35.083636 C 279.146068,35.083636 279.848413,35.786956 279.848413,36.654545" fill-opacity="0" stroke="red" stroke-width="1"/>
    <path d="M 193.372155,308.945455 C 193.372155,309.813044 192.66981,310.516364 191.803425,310.516364 C 190.937039,310.516364 190.234694,309.813044 190.234694,308.945455 C 190.234694,308.077865 190.937039,307.374545 191.803425,307.374545 C 192.66981,307.374545 193.372155,308.077865 193.372155,308.945455" fill-opacity="0" stroke="red" stroke-width="1"/>
    <path d="M 193.372155,36.654545 C 193.372155,37.522135 192.66981,38.225455 191.803425,38.225455 C 190.937039,38.225455 190.234694,37.522135 190.234694,36.654545 C 190.234694,35.786956 190.937039,35.083636 191.803425,35.083636 C 192.66981,35.083636 193.372155,35.786956 193.372155,36.654545" fill-opacity="0" stroke="red" stroke-width="1"/>
    <path d="M 106.895897,308.945455 C 106.895897,309.813044 106.193553,310.516364 105.327167,310.516364 C 104.460781,310.516364 103.758437,309.813044 103.758437,308.945455 C 103.758437,308.077865 104.460781,307.374545 105.327167,307.374545 C 106.193553,307.374545 106.895897,308.077865 106.895897,308.945455" fill-opacity="0" stroke="red" stroke-width="1"/>
    <path d="M 106.895897,36.654545 C 106.895897,37.522135 106.193553,38.225455 105.327167,38.225455 C 104.460781,38.225455 103.758437,37.522135 103.758437,36.654545 C 103.758437,35.786956 104.460781,35.083636 105.327167,35.083636 C 106.193553,35.083636 106.895897,35.786956 106.895897,36.654545" fill-opacity="0" stroke="red" stroke-width="1"/>
    <path d="M 345.408266,20.683636 C 345.408266,21.551225 344.705922,22.254545 343.839536,22.254545 C 342.97315,22.254545 342.270806,21.551225 342.270806,20.683636 C 342.270806,19.816047 342.97315,19.112727 343.839536,19.112727 C 344.705922,19.112727 345.408266,19.816047 345.408266,20.683636" fill-opacity="0" stroke="red" stroke-width="1"/>
    <path d="M 305.732462,20.683636 C 305.732462,21.551225 305.030118,22.254545 304.163732,22.254545 C 303.297346,22.254545 302.595002,21.551225 302.595002,20.683636 C 302.595002,19.816047 303.297346,19.112727 304.163732,19.112727 C 305.030118,19.112727 305.732462,19.816047 305.732462,20.683636" fill-opacity="0" stroke="red" stroke-width="1"/>
    <path d="M 253.964363,20.683636 C 253.964363,21.551225 253.262018,22.254545 252.395632,22.254545 C 251.529247,22.254545 250.826902,21.551225 250.826902,20.683636 C 250.826902,19.816047 251.529247,19.112727 252.395632,19.112727 C 253.262018,19.112727 253.964363,19.816047 253.964363,20.683636" fill-opacity="0" stroke="red" stroke-width="1"/>
    <path d="M 219.256205,20.683636 C 219.256205,21.551225 218.55386,22.254545 217.687474,22.254545 C 216.821089,22.254545 216.118744,21.551225 216.118744,20.683636 C 216.118744,19.816047 216.821089,19.112727 217.687474,19.112727 C 218.55386,19.112727 219.256205,19.816047 219.256205,20.683636" fill-opacity="0" stroke="red" stroke-width="1"/>
    <path d="M 0.0,0.0 L 414.72,0.0 L 414.72,345.6 L 0.0,345.6 L 0.0,0.0" fill-opacity="0" stroke="red" stroke-width="1"/>
  </g>
  <g transform="translate(0.0000,1497.6001) rotate(0)">
    <path d="M 0.0,345.6 L 414.72,345.6 L 414.72,0.0 L 0.0,0.0 L 0.0,345.6" fill-opacity="0" stroke="red" stroke-width="1"/>
    <path d="M 0.0,345.6 L 414.72,345.6 L 414.72,0.0 L 0.0,0.0 L 0.0,345.6" fill-opacity="0" stroke="red" stroke-width="1"/>
    <path d="M 18.850909,329.890909 L 18.850909,15.709091 L 18.850909,15.709091 L 18.850909,329.890909" fill-opacity="0" stroke="red" stroke-width="1"/>
    <path d="M 18.850909,329.890909 L 18.850909,15.709091 L 395.869091,15.709091 L 395.869091,329.890909 L 18.850909,329.890909" fill-opacity="0" stroke="red" stroke-width="1"/>
    <path d="M 18.850909,329.890909 L 395.869091,329.890909 L 395.869091,329.890909 L 18.850909,329.890909" fill-opacity="0" stroke="red" stroke-width="1"/>
    <path d="M 18.850909,15.709091 L 395.869091,15.709091 L 395.869091,15.709091 L 18.850909,15.709091" fill-opacity="0" stroke="red" stroke-width="1"/>
    <path d="M 395.869091,329.890909 L 395.869091,15.709091 L 395.869091,15.709091 L 395.869091,329.890909" fill-opacity="0" stroke="red" stroke-width="1"/>
    <path d="M 18.850909,329.890909 L 18.850909,15.709091 L 395.869091,15.709091 L 395.869091,329.890909 L 18.850909,329.890909" fill-opacity="0" stroke="red" stroke-width="1"/>
    <path d="M 382.273428,36.654545 C 382.273428,38.968116 380.40051,40.843636 378.090148,40.843636 C 375.779785,40.843636 373.906867,38.968116 373.906867,36.654545 C 373.906867,34.340974 375.779785,32.465455 378.090148,32.465455 C 380.40051,32.465455 382.273428,34.340974 382.273428,36.654545" fill-opacity="0" stroke="red" stroke-width="1"/>
    <path d="M 382.273428,308.945455 C 382.273428,311.259026 380.40051,313.134545 378.090148,313.134545 C 375.779785,313.134545 373.906867,311.259026 373.906867,308.945455 C 373.906867,306.631884 375.779785,304.756364 378.090148,304.756364 C 380.40051,304.756364 382.273428,306.631884 382.273428,308.945455" fill-opacity="0" stroke="red" stroke-width="1"/>
    <path d="M 46.565144,308.945455 C 46.565144,309.813044 45.8628,310.516364 44.996414,310.516364 C 44.130028,310.516364 43.427684,309.813044 43.427684,308.945455 C 43.427684,308.077865 44.130028,307.374545 44.996414,307.374545 C 45.8628,307.374545 46.565144,308.077865 46.565144,308.945455" fill-opacity="0" stroke="red" stroke-width="1"/>
    <path d="M 46.565144,36.654545 C 46.565144,37.522135 45.8628,38.225455 44.996414,38.225455 C 44.130028,38.225455 43.427684,37.522135 43.427684,36.654545 C 43.427684,35.786956 44.130028,35.083636 44.996414,35.083636 C 45.8628,35.083636 46.565144,35.786956 46.565144,36.654545" fill-opacity="0" stroke="red" stroke-width="1"/>
    <path d="M 31.008569,20.683636 C 31.008569,21.551225 30.306224,22.254545 29.439839,22.254545 C 28.573453,22.254545 27.871108,21.551225 27.871108,20.683636 C 27.871108,19.816047 28.573453,19.112727 29.439839,19.112727 C 30.306224,19.112727 31.008569,19.816047 31.008569,20.683636" fill-opacity="0" stroke="red" stroke-width="1"/>
    <path d="M 31.008569,324.916364 C 31.008569,325.783953 30.306224,326.487273 29.439839,326.487273 C 28.573453,326.487273 27.871108,325.783953 27.871108,324.916364 C 27.871108,324.048775 28.573453,323.345455 29.439839,323.345455 C 30.306224,323.345455 31.008569,324.048775 31.008569,324.916364" fill-opacity="0" stroke="red" stroke-width="1"/>
    <path d="M 138.009048,308.945455 C 138.009048,309.813044 137.306704,310.516364 136.440318,310.516364 C 135.573932,310.516364 134.871587,309.813044 134.871587,308.945455 C 134.871587,308.077865 135.573932,307.374545 136.440318,307.374545 C 137.306704,307.374545 138.009048,308.077865 138.009048,308.945455" fill-opacity="0" stroke="red" stroke-width="1"/>
    <path d="M 138.009048,36.654545 C 138.009048,37.522135 137.306704,38.225455 136.440318,38.225455 C 135.573932,38.225455 134.871587,37.522135 134.871587,36.654545 C 134.871587,35.786956 135.573932,35.083636 136.440318,35.083636 C 137.306704,35.083636 138.009048,35.786956 138.009048,36.654545" fill-opacity="0" stroke="red" stroke-width="1"/>
    <path d="M 224.485306,308.945455 C 224.485306,309.813044 223.782961,310.516364 222.916575,310.516364 C 222.05019,310.516364 221.347845,309.813044 221.347845,308.945455 C 221.347845,308.077865 222.05019,307.374545 222.916575,307.374545 C 223.782961,307.374545 224.485306,308.077865 224.485306,308.945455" fill-opacity="0" stroke="red" stroke-width="1"/>
    <path d="M 224.485306,36.654545 C 224.485306,37.522135 223.782961,38.225455 222.916575,38.225455 C 222.05019,38.225455 221.347845,37.522135 221.347845,36.654545 C 221.347845,35.786956 222.05019,35.083636 222.916575,35.083636 C 223.782961,35.083636 224.485306,35.786956 224.485306,36.654545" fill-opacity="0" stroke="red" stroke-width="1"/>
    <path d="M 310.961563,308.945455 C 310.961563,309.813044 310.259219,310.516364 309.392833,310.516364 C 308.526447,310.516364 307.824103,309.813044 307.824103,308.945455 C 307.824103,308.077865 308.526447,307.374545 309.392833,307.374545 C 310.259219,307.374545 310.961563,308.077865 310.961563,308.945455" fill-opacity="0" stroke="red" stroke-width="1"/>
    <path d="M 310.961563,36.654545 C 310.961563,37.522135 310.259219,38.225455 309.392833,38.225455 C 308.526447,38.225455 307.824103,37.522135 307.824103,36.654545 C 307.824103,35.786956 308.526447,35.083636 309.392833,35.083636 C 310.259219,35.083636 310.961563,35.786956 310.961563,36.654545" fill-opacity="0" stroke="red" stroke-width="1"/>
    <path d="M 72.449194,20.683636 C 72.449194,21.551225 71.74685,22.254545 70.880464,22.254545 C 70.014078,22.254545 69.311734,21.551225 69.311734,20.683636 C 69.311734,19.816047 70.014078,19.112727 70.880464,19.112727 C 71.74685,19.112727 72.449194,19.816047 72.449194,20.683636" fill-opacity="0" stroke="red" stroke-width="1"/>
    <path d="M 112.124998,20.683636 C 112.124998,21.551225 111.422654,22.254545 110.556268,22.254545 C 109.689882,22.254545 108.987538,21.551225 108.987538,20.683636 C 108.987538,19.816047 109.689882,19.112727 110.556268,19.112727 C 111.422654,19.112727 112.124998,19.816047 112.124998,20.683636" fill-opacity="0" stroke="red" stroke-width="1"/>
    <path d="M 163.893098,20.683636 C 163.893098,21.551225 163.190753,22.254545 162.324368,22.254545 C 161.457982,22.254545 160.755637,21.551225 160.755637,20.683636 C 160.755637,19.816047 161.457982,19.112727 162.324368,19.112727 C 163.190753,19.112727 163.893098,19.816047 163.893098,20.683636" fill-opacity="0" stroke="red" stroke-width="1"/>
    <path d="M 198.601256,20.683636 C 198.601256,21.551225 197.898911,22.254545 197.032526,22.254545 C 196.16614,22.254545 195.463795,21.551225 195.463795,20.683636 C 195.463795,19.816047 196.16614,19.112727 197.032526,19.112727 C 197.898911,19.112727 198.601256,19.816047 198.601256,20.683636" fill-opacity="0" stroke="red" stroke-width="1"/>
    <path d="M 0.0,0.0 L 414.72,0.0 L 414.72,345.6 L 0.0,345.6 L 0.0,0.0" fill-opacity="0" stroke="red" stroke-width="1"/>
  </g>
  <g transform="translate(0.0000,0.0000) rotate(0)">
    <path d="M 0.0,345.6 L 978.48,345.6 L 978.48,0.0 L 0.0,0.0 L 0.0,345.6" fill-opacity="0" stroke="red" stroke-width="1"/>
    <path d="M 0.0,345.6 L 978.48,345.6 L 978.48,0.0 L 0.0,0.0 L 0.0,345.6" fill-opacity="0" stroke="red" stroke-width="1"/>
    <path d="M 934.003636,329.890909 L 934.003636,329.890909 L 934.003636,15.709091 L 934.003636,15.709091 L 934.003636,329.890909" fill-opacity="0" stroke="red" stroke-width="1"/>
    <path d="M 44.476364,329.890909 L 44.476364,329.890909 L 44.476364,15.709091 L 44.476364,15.709091 L 44.476364,329.890909" fill-opacity="0" stroke="red" stroke-width="1"/>
    <path d="M 44.476364,329.890909 L 44.476364,329.890909 L 934.003636,329.890909 L 934.003636,329.890909 L 44.476364,329.890909" fill-opacity="0" stroke="red" stroke-width="1"/>
    <path d="M 934.003636,15.709091 L 934.003636,15.709091 L 44.476364,15.709091 L 44.476364,15.709091 L 934.003636,15.709091" fill-opacity="0" stroke="red" stroke-width="1"/>
    <path d="M 934.003636,329.890909 L 44.476364,329.890909 L 44.476364,15.709091 L 934.003636,15.709091 L 934.003636,329.890909" fill-opacity="0" stroke="red" stroke-width="1"/>
    <path d="M 44.476364,329.890909 L 934.003636,329.890909 L 934.003636,15.709091 L 44.476364,15.709091 L 44.476364,329.890909" fill-opacity="0" stroke="red" stroke-width="1"/>
    <path d="M 930.602503,308.945455 C 930.602503,309.813044 929.8997,310.516364 929.032749,310.516364 C 928.165797,310.516364 927.462995,309.813044 927.462995,308.945455 C 927.462995,308.077865 928.165797,307.374545 929.032749,307.374545 C 929.8997,307.374545 930.602503,308.077865 930.602503,308.945455" fill-opacity="0" stroke="red" stroke-width="1"/>
    <path d="M 930.602503,36.654545 C 930.602503,37.522135 929.8997,38.225455 929.032749,38.225455 C 928.165797,38.225455 927.462995,37.522135 927.462995,36.654545 C 927.462995,35.786956 928.165797,35.083636 929.032749,35.083636 C 929.8997,35.083636 930.602503,35.786956 930.602503,36.654545" fill-opacity="0" stroke="red" stroke-width="1"/>
    <path d="M 51.017005,36.654545 C 51.017005,37.522135 50.314203,38.225455 49.447251,38.225455 C 48.5803,38.225455 47.877497,37.522135 47.877497,36.654545 C 47.877497,35.786956 48.5803,35.083636 49.447251,35.083636 C 50.314203,35.083636 51.017005,35.786956 51.017005,36.654545" fill-opacity="0" stroke="red" stroke-width="1"/>
    <path d="M 51.017005,308.945455 C 51.017005,309.813044 50.314203,310.516364 49.447251,310.516364 C 48.5803,310.516364 47.877497,309.813044 47.877497,308.945455 C 47.877497,308.077865 48.5803,307.374545 49.447251,307.374545 C 50.314203,307.374545 51.017005,308.077865 51.017005,308.945455" fill-opacity="0" stroke="red" stroke-width="1"/>
    <path d="M 229.916637,308.945455 C 229.916637,309.813044 229.213835,310.516364 228.346883,310.516364 C 227.479932,310.516364 226.777129,309.813044 226.777129,308.945455 C 226.777129,308.077865 227.479932,307.374545 228.346883,307.374545 C 229.213835,307.374545 229.916637,308.077865 229.916637,308.945455" fill-opacity="0" stroke="red" stroke-width="1"/>
    <path d="M 229.916637,36.654545 C 229.916637,37.522135 229.213835,38.225455 228.346883,38.225455 C 227.479932,38.225455 226.777129,37.522135 226.777129,36.654545 C 226.777129,35.786956 227.479932,35.083636 228.346883,35.083636 C 229.213835,35.083636 229.916637,35.786956 229.916637,36.654545" fill-opacity="0" stroke="red" stroke-width="1"/>
    <path d="M 403.845382,308.945455 C 403.845382,309.813044 403.142579,310.516364 402.275628,310.516364 C 401.408677,310.516364 400.705874,309.813044 400.705874,308.945455 C 400.705874,308.077865 401.408677,307.374545 402.275628,307.374545 C 403.142579,307.374545 403.845382,308.077865 403.845382,308.945455" fill-opacity="0" stroke="red" stroke-width="1"/>
    <path d="M 403.845382,36.654545 C 403.845382,37.522135 403.142579,38.225455 402.275628,38.225455 C 401.408677,38.225455 400.705874,37.522135 400.705874,36.654545 C 400.705874,35.786956 401.408677,35.083636 402.275628,35.083636 C 403.142579,35.083636 403.845382,35.786956 403.845382,36.654545" fill-opacity="0" stroke="red" stroke-width="1"/>
    <path d="M 577.774126,308.945455 C 577.774126,309.813044 577.071323,310.516364 576.204372,310.516364 C 575.337421,310.516364 574.634618,309.813044 574.634618,308.945455 C 574.634618,308.077865 575.337421,307.374545 576.204372,307.374545 C 577.071323,307.374545 577.774126,308.077865 577.774126,308.945455" fill-opacity="0" stroke="red" stroke-width="1"/>
    <path d="M 577.774126,36.654545 C 577.774126,37.522135 577.071323,38.225455 576.204372,38.225455 C 575.337421,38.225455 574.634618,37.522135 574.634618,36.654545 C 574.634618,35.786956 575.337421,35.083636 576.204372,35.083636 C 577.071323,35.083636 577.774126,35.786956 577.774126,36.654545" fill-opacity="0" stroke="red" stroke-width="1"/>
    <path d="M 751.702871,308.945455 C 751.702871,309.813044 751.000068,310.516364 750.133117,310.516364 C 749.266165,310.516364 748.563363,309.813044 748.563363,308.945455 C 748.563363,308.077865 749.266165,307.374545 750.133117,307.374545 C 751.000068,307.374545 751.702871,308.077865 751.702871,308.945455" fill-opacity="0" stroke="red" stroke-width="1"/>
    <path d="M 751.702871,36.654545 C 751.702871,37.522135 751.000068,38.225455 750.133117,38.225455 C 749.266165,38.225455 748.563363,37.522135 748.563363,36.654545 C 748.563363,35.786956 749.266165,35.083636 750.133117,35.083636 C 751.000068,35.083636 751.702871,35.786956 751.702871,36.654545" fill-opacity="0" stroke="red" stroke-width="1"/>
    <path d="M 0.0,0.0 L 978.48,0.0 L 978.48,345.6 L 0.0,345.6 L 0.0,0.0" fill-opacity="0" stroke="red" stroke-width="1"/>
  </g>
  <g transform="translate(702.7201,1152.0000) rotate(0)">
    <path d="M 0.0,345.6 L 414.72,345.6 L 414.72,0.0 L 0.0,0.0 L 0.0,345.6" fill-opacity="0" stroke="red" stroke-width="1"/>
    <path d="M 0.0,345.6 L 414.72,345.6 L 414.72,0.0 L 0.0,0.0 L 0.0,345.6" fill-opacity="0" stroke="red" stroke-width="1"/>
    <path d="M 395.869091,329.890909 L 395.869091,329.890909 L 395.869091,15.709091 L 395.869091,15.709091 L 395.869091,329.890909" fill-opacity="0" stroke="red" stroke-width="1"/>
    <path d="M 395.869091,329.890909 L 395.869091,15.709091 L 18.850909,15.709091 L 18.850909,329.890909 L 395.869091,329.890909" fill-opacity="0" stroke="red" stroke-width="1"/>
    <path d="M 395.869091,329.890909 L 395.869091,329.890909 L 18.850909,329.890909 L 18.850909,329.890909 L 395.869091,329.890909" fill-opacity="0" stroke="red" stroke-width="1"/>
    <path d="M 395.869091,15.709091 L 395.869091,15.709091 L 18.850909,15.709091 L 18.850909,15.709091 L 395.869091,15.709091" fill-opacity="0" stroke="red" stroke-width="1"/>
    <path d="M 18.850909,329.890909 L 18.850909,329.890909 L 18.850909,15.709091 L 18.850909,15.709091 L 18.850909,329.890909" fill-opacity="0" stroke="red" stroke-width="1"/>
    <path d="M 395.869091,329.890909 L 395.869091,15.709091 L 18.850909,15.709091 L 18.850909,329.890909 L 395.869091,329.890909" fill-opacity="0" stroke="red" stroke-width="1"/>
    <path d="M 40.813133,308.945455 C 40.813133,311.259026 38.940215,313.134545 36.629852,313.134545 C 34.31949,313.134545 32.446572,311.259026 32.446572,308.945455 C 32.446572,306.631884 34.31949,304.756364 36.629852,304.756364 C 38.940215,304.756364 40.813133,306.631884 40.813133,308.945455" fill-opacity="0" stroke="red" stroke-width="1"/>
    <path d="M 40.813133,36.654545 C 40.813133,38.968116 38.940215,40.843636 36.629852,40.843636 C 34.31949,40.843636 32.446572,38.968116 32.446572,36.654545 C 32.446572,34.340974 34.31949,32.465455 36.629852,32.465455 C 38.940215,32.465455 40.813133,34.340974 40.813133,36.654545" fill-opacity="0" stroke="red" stroke-width="1"/>
    <path d="M 371.292316,308.945455 C 371.292316,309.813044 370.589972,310.516364 369.723586,310.516364 C 368.8572,310.516364 368.154856,309.813044 368.154856,308.945455 C 368.154856,308.077865 368.8572,307.374545 369.723586,307.374545 C 370.589972,307.374545 371.292316,308.077865 371.292316,308.945455" fill-opacity="0" stroke="red" stroke-width="1"/>
    <path d="M 371.292316,36.654545 C 371.292316,37.522135 370.589972,38.225455 369.723586,38.225455 C 368.8572,38.225455 368.154856,37.522135 368.154856,36.654545 C 368.154856,35.786956 368.8572,35.083636 369.723586,35.083636 C 370.589972,35.083636 371.292316,35.786956 371.292316,36.654545" fill-opacity="0" stroke="red" stroke-width="1"/>
    <path d="M 386.848892,20.683636 C 386.848892,21.551225 386.146547,22.254545 385.280161,22.254545 C 384.413776,22.254545 383.711431,21.551225 383.711431,20.683636 C 383.711431,19.816047 384.413776,19.112727 385.280161,19.112727 C 386.146547,19.112727 386.848892,19.816047 386.848892,20.683636" fill-opacity="0" stroke="red" stroke-width="1"/>
    <path d="M 386.848892,324.916364 C 386.848892,325.783953 386.146547,326.487273 385.280161,326.487273 C 384.413776,326.487273 383.711431,325.783953 383.711431,324.916364 C 383.711431,324.048775 384.413776,323.345455 385.280161,323.345455 C 386.146547,323.345455 386.848892,324.048775 386.848892,324.916364" fill-opacity="0" stroke="red" stroke-width="1"/>
    <path d="M 279.848413,308.945455 C 279.848413,309.813044 279.146068,310.516364 278.279682,310.516364 C 277.413296,310.516364 276.710952,309.813044 276.710952,308.945455 C 276.710952,308.077865 277.413296,307.374545 278.279682,307.374545 C 279.146068,307.374545 279.848413,308.077865 279.848413,308.945455" fill-opacity="0" stroke="red" stroke-width="1"/>
    <path d="M 279.848413,36.654545 C 279.848413,37.522135 279.146068,38.225455 278.279682,38.225455 C 277.413296,38.225455 276.710952,37.522135 276.710952,36.654545 C 276.710952,35.786956 277.413296,35.083636 278.279682,35.083636 C 279.146068,35.083636 279.848413,35.786956 279.848413,36.654545" fill-opacity="0" stroke="red" stroke-width="1"/>
    <path d="M 193.372155,308.945455 C 193.372155,309.813044 192.66981,310.516364 191.803425,310.516364 C 190.937039,310.516364 190.234694,309.813044 190.234694,308.945455 C 190.234694,308.077865 190.937039,307.374545 191.803425,307.374545 C 192.66981,307.374545 193.372155,308.077865 193.372155,308.945455" fill-opacity="0" stroke="red" stroke-width="1"/>
    <path d="M 193.372155,36.654545 C 193.372155,37.522135 192.66981,38.225455 191.803425,38.225455 C 190.937039,38.225455 190.234694,37.522135 190.234694,36.654545 C 190.234694,35.786956 190.937039,35.083636 191.803425,35.083636 C 192.66981,35.083636 193.372155,35.786956 193.372155,36.654545" fill-opacity="0" stroke="red" stroke-width="1"/>
    <path d="M 106.895897,308.945455 C 106.895897,309.813044 106.193553,310.516364 105.327167,310.516364 C 104.460781,310.516364 103.758437,309.813044 103.758437,308.945455 C 103.758437,308.077865 104.460781,307.374545 105.327167,307.374545 C 106.193553,307.374545 106.895897,308.077865 106.895897,308.945455" fill-opacity="0" stroke="red" stroke-width="1"/>
    <path d="M 106.895897,36.654545 C 106.895897,37.522135 106.193553,38.225455 105.327167,38.225455 C 104.460781,38.225455 103.758437,37.522135 103.758437,36.654545 C 103.758437,35.786956 104.460781,35.083636 105.327167,35.083636 C 106.193553,35.083636 106.895897,35.786956 106.895897,36.654545" fill-opacity="0" stroke="red" stroke-width="1"/>
    <path d="M 345.408266,324.916364 C 345.408266,325.783953 344.705922,326.487273 343.839536,326.487273 C 342.97315,326.487273 342.270806,325.783953 342.270806,324.916364 C 342.270806,324.048775 342.97315,323.345455 343.839536,323.345455 C 344.705922,323.345455 345.408266,324.048775 345.408266,324.916364" fill-opacity="0" stroke="red" stroke-width="1"/>
    <path d="M 305.732462,324.916364 C 305.732462,325.783953 305.030118,326.487273 304.163732,326.487273 C 303.297346,326.487273 302.595002,325.783953 302.595002,324.916364 C 302.595002,324.048775 303.297346,323.345455 304.163732,323.345455 C 305.030118,323.345455 305.732462,324.048775 305.732462,324.916364" fill-opacity="0" stroke="red" stroke-width="1"/>
    <path d="M 253.964363,324.916364 C 253.964363,325.783953 253.262018,326.487273 252.395632,326.487273 C 251.529247,326.487273 250.826902,325.783953 250.826902,324.916364 C 250.826902,324.048775 251.529247,323.345455 252.395632,323.345455 C 253.262018,323.345455 253.964363,324.048775 253.964363,324.916364" fill-opacity="0" stroke="red" stroke-width="1"/>
    <path d="M 219.256205,324.916364 C 219.256205,325.783953 218.55386,326.487273 217.687474,326.487273 C 216.821089,326.487273 216.118744,325.783953 216.118744,324.916364 C 216.118744,324.048775 216.821089,323.345455 217.687474,323.345455 C 218.55386,323.345455 219.256205,324.048775 219.256205,324.916364" fill-opacity="0" stroke="red" stroke-width="1"/>
    <path d="M 0.0,0.0 L 414.72,0.0 L 414.72,345.6 L 0.0,345.6 L 0.0,0.0" fill-opacity="0" stroke="red" stroke-width="1"/>
  </g>
  <g transform="translate(414.7201,1497.6001) rotate(0)">
    <path d="M 0.0,345.6 L 414.72,345.6 L 414.72,0.0 L 0.0,0.0 L 0.0,345.6" fill-opacity="0" stroke="red" stroke-width="1"/>
    <path d="M 0.0,345.6 L 414.72,345.6 L 414.72,0.0 L 0.0,0.0 L 0.0,345.6" fill-opacity="0" stroke="red" stroke-width="1"/>
    <path d="M 395.869091,329.890909 L 395.869091,329.890909 L 395.869091,15.709091 L 395.869091,15.709091 L 395.869091,329.890909" fill-opacity="0" stroke="red" stroke-width="1"/>
    <path d="M 395.869091,329.890909 L 395.869091,329.890909 L 18.850909,329.890909 L 18.850909,329.890909 L 395.869091,329.890909" fill-opacity="0" stroke="red" stroke-width="1"/>
    <path d="M 395.869091,15.709091 L 395.869091,15.709091 L 18.850909,15.709091 L 18.850909,15.709091 L 395.869091,15.709091" fill-opacity="0" stroke="red" stroke-width="1"/>
    <path d="M 18.850909,329.890909 L 18.850909,329.890909 L 18.850909,15.709091 L 18.850909,15.709091 L 18.850909,329.890909" fill-opacity="0" stroke="red" stroke-width="1"/>
    <path d="M 395.869091,329.890909 L 395.869091,15.709091 L 18.850909,15.709091 L 18.850909,329.890909 L 395.869091,329.890909" fill-opacity="0" stroke="red" stroke-width="1"/>
    <path d="M 371.292316,308.945455 C 371.292316,309.813044 370.589972,310.516364 369.723586,310.516364 C 368.8572,310.516364 368.154856,309.813044 368.154856,308.945455 C 368.154856,308.077865 368.8572,307.374545 369.723586,307.374545 C 370.589972,307.374545 371.292316,308.077865 371.292316,308.945455" fill-opacity="0" stroke="red" stroke-width="1"/>
    <path d="M 371.292316,36.654545 C 371.292316,37.522135 370.589972,38.225455 369.723586,38.225455 C 368.8572,38.225455 368.154856,37.522135 368.154856,36.654545 C 368.154856,35.786956 368.8572,35.083636 369.723586,35.083636 C 370.589972,35.083636 371.292316,35.786956 371.292316,36.654545" fill-opacity="0" stroke="red" stroke-width="1"/>
    <path d="M 386.848892,20.683636 C 386.848892,21.551225 386.146547,22.254545 385.280161,22.254545 C 384.413776,22.254545 383.711431,21.551225 383.711431,20.683636 C 383.711431,19.816047 384.413776,19.112727 385.280161,19.112727 C 386.146547,19.112727 386.848892,19.816047 386.848892,20.683636" fill-opacity="0" stroke="red" stroke-width="1"/>
    <path d="M 386.848892,324.916364 C 386.848892,325.783953 386.146547,326.487273 385.280161,326.487273 C 384.413776,326.487273 383.711431,325.783953 383.711431,324.916364 C 383.711431,324.048775 384.413776,323.345455 385.280161,323.345455 C 386.146547,323.345455 386.848892,324.048775 386.848892,324.916364" fill-opacity="0" stroke="red" stroke-width="1"/>
    <path d="M 279.848413,308.945455 C 279.848413,309.813044 279.146068,310.516364 278.279682,310.516364 C 277.413296,310.516364 276.710952,309.813044 276.710952,308.945455 C 276.710952,308.077865 277.413296,307.374545 278.279682,307.374545 C 279.146068,307.374545 279.848413,308.077865 279.848413,308.945455" fill-opacity="0" stroke="red" stroke-width="1"/>
    <path d="M 279.848413,36.654545 C 279.848413,37.522135 279.146068,38.225455 278.279682,38.225455 C 277.413296,38.225455 276.710952,37.522135 276.710952,36.654545 C 276.710952,35.786956 277.413296,35.083636 278.279682,35.083636 C 279.146068,35.083636 279.848413,35.786956 279.848413,36.654545" fill-opacity="0" stroke="red" stroke-width="1"/>
    <path d="M 193.372155,308.945455 C 193.372155,309.813044 192.66981,310.516364 191.803425,310.516364 C 190.937039,310.516364 190.234694,309.813044 190.234694,308.945455 C 190.234694,308.077865 190.937039,307.374545 191.803425,307.374545 C 192.66981,307.374545 193.372155,308.077865 193.372155,308.945455" fill-opacity="0" stroke="red" stroke-width="1"/>
    <path d="M 193.372155,36.654545 C 193.372155,37.522135 192.66981,38.225455 191.803425,38.225455 C 190.937039,38.225455 190.234694,37.522135 190.234694,36.654545 C 190.234694,35.786956 190.937039,35.083636 191.803425,35.083636 C 192.66981,35.083636 193.372155,35.786956 193.372155,36.654545" fill-opacity="0" stroke="red" stroke-width="1"/>
    <path d="M 106.895897,308.945455 C 106.895897,309.813044 106.193553,310.516364 105.327167,310.516364 C 104.460781,310.516364 103.758437,309.813044 103.758437,308.945455 C 103.758437,308.077865 104.460781,307.374545 105.327167,307.374545 C 106.193553,307.374545 106.895897,308.077865 106.895897,308.945455" fill-opacity="0" stroke="red" stroke-width="1"/>
    <path d="M 106.895897,36.654545 C 106.895897,37.522135 106.193553,38.225455 105.327167,38.225455 C 104.460781,38.225455 103.758437,37.522135 103.758437,36.654545 C 103.758437,35.786956 104.460781,35.083636 105.327167,35.083636 C 106.193553,35.083636 106.895897,35.786956 106.895897,36.654545" fill-opacity="0" stroke="red" stroke-width="1"/>
    <path d="M 345.408266,324.916364 C 345.408266,325.783953 344.705922,326.487273 343.839536,326.487273 C 342.97315,326.487273 342.270806,325.783953 342.270806,324.916364 C 342.270806,324.048775 342.97315,323.345455 343.839536,323.345455 C 344.705922,323.345455 345.408266,324.048775 345.408266,324.916364" fill-opacity="0" stroke="red" stroke-width="1"/>
    <path d="M 305.732462,324.916364 C 305.732462,325.783953 305.030118,326.487273 304.163732,326.487273 C 303.297346,326.487273 302.595002,325.783953 302.595002,324.916364 C 302.595002,324.048775 303.297346,323.345455 304.163732,323.345455 C 305.030118,323.345455 305.732462,324.048775 305.732462,324.916364" fill-opacity="0" stroke="red" stroke-width="1"/>
    <path d="M 253.964363,324.916364 C 253.964363,325.783953 253.262018,326.487273 252.395632,326.487273 C 251.529247,326.487273 250.826902,325.783953 250.826902,324.916364 C 250.826902,324.048775 251.529247,323.345455 252.395632,323.345455 C 253.262018,323.345455 253.964363,324.048775 253.964363,324.916364" fill-opacity="0" stroke="red" stroke-width="1"/>
    <path d="M 219.256205,324.916364 C 219.256205,325.783953 218.55386,326.487273 217.687474,326.487273 C 216.821089,326.487273 216.118744,325.783953 216.118744,324.916364 C 216.118744,324.048775 216.821089,323.345455 217.687474,323.345455 C 218.55386,323.345455 219.256205,324.048775 219.256205,324.916364" fill-opacity="0" stroke="red" stroke-width="1"/>
    <path d="M 395.869091,329.890909 L 395.869091,15.709091 L 18.850909,15.709091 L 18.850909,329.890909 L 395.869091,329.890909" fill-opacity="0" stroke="red" stroke-width="1"/>
    <path d="M 40.813133,308.945455 C 40.813133,311.259026 38.940215,313.134545 36.629852,313.134545 C 34.31949,313.134545 32.446572,311.259026 32.446572,308.945455 C 32.446572,306.631884 34.31949,304.756364 36.629852,304.756364 C 38.940215,304.756364 40.813133,306.631884 40.813133,308.945455" fill-opacity="0" stroke="red" stroke-width="1"/>
    <path d="M 40.813133,36.654545 C 40.813133,38.968116 38.940215,40.843636 36.629852,40.843636 C 34.31949,40.843636 32.446572,38.968116 32.446572,36.654545 C 32.446572,34.340974 34.31949,32.465455 36.629852,32.465455 C 38.940215,32.465455 40.813133,34.340974 40.813133,36.654545" fill-opacity="0" stroke="red" stroke-width="1"/>
    <path d="M 371.292316,308.945455 C 371.292316,309.813044 370.589972,310.516364 369.723586,310.516364 C 368.8572,310.516364 368.154856,309.813044 368.154856,308.945455 C 368.154856,308.077865 368.8572,307.374545 369.723586,307.374545 C 370.589972,307.374545 371.292316,308.077865 371.292316,308.945455" fill-opacity="0" stroke="red" stroke-width="1"/>
    <path d="M 371.292316,36.654545 C 371.292316,37.522135 370.589972,38.225455 369.723586,38.225455 C 368.8572,38.225455 368.154856,37.522135 368.154856,36.654545 C 368.154856,35.786956 368.8572,35.083636 369.723586,35.083636 C 370.589972,35.083636 371.292316,35.786956 371.292316,36.654545" fill-opacity="0" stroke="red" stroke-width="1"/>
    <path d="M 386.848892,20.683636 C 386.848892,21.551225 386.146547,22.254545 385.280161,22.254545 C 384.413776,22.254545 383.711431,21.551225 383.711431,20.683636 C 383.711431,19.816047 384.413776,19.112727 385.280161,19.112727 C 386.146547,19.112727 386.848892,19.816047 386.848892,20.683636" fill-opacity="0" stroke="red" stroke-width="1"/>
    <path d="M 386.848892,324.916364 C 386.848892,325.783953 386.146547,326.487273 385.280161,326.487273 C 384.413776,326.487273 383.711431,325.783953 383.711431,324.916364 C 383.711431,324.048775 384.413776,323.345455 385.280161,323.345455 C 386.146547,323.345455 386.848892,324.048775 386.848892,324.916364" fill-opacity="0" stroke="red" stroke-width="1"/>
    <path d="M 279.848413,308.945455 C 279.848413,309.813044 279.146068,310.516364 278.279682,310.516364 C 277.413296,310.516364 276.710952,309.813044 276.710952,308.945455 C 276.710952,308.077865 277.413296,307.374545 278.279682,307.374545 C 279.146068,307.374545 279.848413,308.077865 279.848413,308.945455" fill-opacity="0" stroke="red" stroke-width="1"/>
    <path d="M 279.848413,36.654545 C 279.848413,37.522135 279.146068,38.225455 278.279682,38.225455 C 277.413296,38.225455 276.710952,37.522135 276.710952,36.654545 C 276.710952,35.786956 277.413296,35.083636 278.279682,35.083636 C 279.146068,35.083636 279.848413,35.786956 279.848413,36.654545" fill-opacity="0" stroke="red" stroke-width="1"/>
    <path d="M 193.372155,308.945455 C 193.372155,309.813044 192.66981,310.516364 191.803425,310.516364 C 190.937039,310.516364 190.234694,309.813044 190.234694,308.945455 C 190.234694,308.077865 190.937039,307.374545 191.803425,307.374545 C 192.66981,307.374545 193.372155,308.077865 193.372155,308.945455" fill-opacity="0" stroke="red" stroke-width="1"/>
    <path d="M 193.372155,36.654545 C 193.372155,37.522135 192.66981,38.225455 191.803425,38.225455 C 190.937039,38.225455 190.234694,37.522135 190.234694,36.654545 C 190.234694,35.786956 190.937039,35.083636 191.803425,35.083636 C 192.66981,35.083636 193.372155,35.786956 193.372155,36.654545" fill-opacity="0" stroke="red" stroke-width="1"/>
    <path d="M 106.895897,308.945455 C 106.895897,309.813044 106.193553,310.516364 105.327167,310.516364 C 104.460781,310.516364 103.758437,309.813044 103.758437,308.945455 C 103.758437,308.077865 104.460781,307.374545 105.327167,307.374545 C 106.193553,307.374545 106.895897,308.077865 106.895897,308.945455" fill-opacity="0" stroke="red" stroke-width="1"/>
    <path d="M 106.895897,36.654545 C 106.895897,37.522135 106.193553,38.225455 105.327167,38.225455 C 104.460781,38.225455 103.758437,37.522135 103.758437,36.654545 C 103.758437,35.786956 104.460781,35.083636 105.327167,35.083636 C 106.193553,35.083636 106.895897,35.786956 106.895897,36.654545" fill-opacity="0" stroke="red" stroke-width="1"/>
    <path d="M 345.408266,324.916364 C 345.408266,325.783953 344.705922,326.487273 343.839536,326.487273 C 342.97315,326.487273 342.270806,325.783953 342.270806,324.916364 C 342.270806,324.048775 342.97315,323.345455 343.839536,323.345455 C 344.705922,323.345455 345.408266,324.048775 345.408266,324.916364" fill-opacity="0" stroke="red" stroke-width="1"/>
    <path d="M 305.732462,324.916364 C 305.732462,325.783953 305.030118,326.487273 304.163732,326.487273 C 303.297346,326.487273 302.595002,325.783953 302.595002,324.916364 C 302.595002,324.048775 303.297346,323.345455 304.163732,323.345455 C 305.030118,323.345455 305.732462,324.048775 305.732462,324.916364" fill-opacity="0" stroke="red" stroke-width="1"/>
    <path d="M 253.964363,324.916364 C 253.964363,325.783953 253.262018,326.487273 252.395632,326.487273 C 251.529247,326.487273 250.826902,325.783953 250.826902,324.916364 C 250.826902,324.048775 251.529247,323.345455 252.395632,323.345455 C 253.262018,323.345455 253.964363,324.048775 253.964363,324.916364" fill-opacity="0" stroke="red" stroke-width="1"/>
    <path d="M 219.256205,324.916364 C 219.256205,325.783953 218.55386,326.487273 217.687474,326.487273 C 216.821089,326.487273 216.118744,325.783953 216.118744,324.916364 C 216.118744,324.048775 216.821089,323.345455 217.687474,323.345455 C 218.55386,323.345455 219.256205,324.048775 219.256205,324.916364" fill-opacity="0" stroke="red" stroke-width="1"/>
    <path d="M 0.0,0.0 L 414.72,0.0 L 414.72,345.6 L 0.0,345.6 L 0.0,0.0" fill-opacity="0" stroke="red" stroke-width="1"/>
  </g>
  <g transform="translate(829.4402,1497.6001) rotate(0)">
    <path d="M 0.0,345.6 L 414.72,345.6 L 414.72,0.0 L 0.0,0.0 L 0.0,345.6" fill-opacity="0" stroke="red" stroke-width="1"/>
    <path d="M 0.0,345.6 L 414.72,345.6 L 414.72,0.0 L 0.0,0.0 L 0.0,345.6" fill-opacity="0" stroke="red" stroke-width="1"/>
    <path d="M 395.869091,329.890909 L 395.869091,329.890909 L 395.869091,15.709091 L 395.869091,15.709091 L 395.869091,329.890909" fill-opacity="0" stroke="red" stroke-width="1"/>
    <path d="M 395.869091,329.890909 L 395.869091,329.890909 L 18.850909,329.890909 L 18.850909,329.890909 L 395.869091,329.890909" fill-opacity="0" stroke="red" stroke-width="1"/>
    <path d="M 395.869091,15.709091 L 395.869091,15.709091 L 18.850909,15.709091 L 18.850909,15.709091 L 395.869091,15.709091" fill-opacity="0" stroke="red" stroke-width="1"/>
    <path d="M 18.850909,329.890909 L 18.850909,329.890909 L 18.850909,15.709091 L 18.850909,15.709091 L 18.850909,329.890909" fill-opacity="0" stroke="red" stroke-width="1"/>
    <path d="M 395.869091,329.890909 L 395.869091,15.709091 L 18.850909,15.709091 L 18.850909,329.890909 L 395.869091,329.890909" fill-opacity="0" stroke="red" stroke-width="1"/>
    <path d="M 371.292316,308.945455 C 371.292316,309.813044 370.589972,310.516364 369.723586,310.516364 C 368.8572,310.516364 368.154856,309.813044 368.154856,308.945455 C 368.154856,308.077865 368.8572,307.374545 369.723586,307.374545 C 370.589972,307.374545 371.292316,308.077865 371.292316,308.945455" fill-opacity="0" stroke="red" stroke-width="1"/>
    <path d="M 371.292316,36.654545 C 371.292316,37.522135 370.589972,38.225455 369.723586,38.225455 C 368.8572,38.225455 368.154856,37.522135 368.154856,36.654545 C 368.154856,35.786956 368.8572,35.083636 369.723586,35.083636 C 370.589972,35.083636 371.292316,35.786956 371.292316,36.654545" fill-opacity="0" stroke="red" stroke-width="1"/>
    <path d="M 386.848892,20.683636 C 386.848892,21.551225 386.146547,22.254545 385.280161,22.254545 C 384.413776,22.254545 383.711431,21.551225 383.711431,20.683636 C 383.711431,19.816047 384.413776,19.112727 385.280161,19.112727 C 386.146547,19.112727 386.848892,19.816047 386.848892,20.683636" fill-opacity="0" stroke="red" stroke-width="1"/>
    <path d="M 386.848892,324.916364 C 386.848892,325.783953 386.146547,326.487273 385.280161,326.487273 C 384.413776,326.487273 383.711431,325.783953 383.711431,324.916364 C 383.711431,324.048775 384.413776,323.345455 385.280161,323.345455 C 386.146547,323.345455 386.848892,324.048775 386.848892,324.916364" fill-opacity="0" stroke="red" stroke-width="1"/>
    <path d="M 279.848413,308.945455 C 279.848413,309.813044 279.146068,310.516364 278.279682,310.516364 C 277.413296,310.516364 276.710952,309.813044 276.710952,308.945455 C 276.710952,308.077865 277.413296,307.374545 278.279682,307.374545 C 279.146068,307.374545 279.848413,308.077865 279.848413,308.945455" fill-opacity="0" stroke="red" stroke-width="1"/>
    <path d="M 279.848413,36.654545 C 279.848413,37.522135 279.146068,38.225455 278.279682,38.225455 C 277.413296,38.225455 276.710952,37.522135 276.710952,36.654545 C 276.710952,35.786956 277.413296,35.083636 278.279682,35.083636 C 279.146068,35.083636 279.848413,35.786956 279.848413,36.654545" fill-opacity="0" stroke="red" stroke-width="1"/>
    <path d="M 193.372155,308.945455 C 193.372155,309.813044 192.66981,310.516364 191.803425,310.516364 C 190.937039,310.516364 190.234694,309.813044 190.234694,308.945455 C 190.234694,308.077865 190.937039,307.374545 191.803425,307.374545 C 192.66981,307.374545 193.372155,308.077865 193.372155,308.945455" fill-opacity="0" stroke="red" stroke-width="1"/>
    <path d="M 193.372155,36.654545 C 193.372155,37.522135 192.66981,38.225455 191.803425,38.225455 C 190.937039,38.225455 190.234694,37.522135 190.234694,36.654545 C 190.234694,35.786956 190.937039,35.083636 191.803425,35.083636 C 192.66981,35.083636 193.372155,35.786956 193.372155,36.654545" fill-opacity="0" stroke="red" stroke-width="1"/>
    <path d="M 106.895897,308.945455 C 106.895897,309.813044 106.193553,310.516364 105.327167,310.516364 C 104.460781,310.516364 103.758437,309.813044 103.758437,308.945455 C 103.758437,308.077865 104.460781,307.374545 105.327167,307.374545 C 106.193553,307.374545 106.895897,308.077865 106.895897,308.945455" fill-opacity="0" stroke="red" stroke-width="1"/>
    <path d="M 106.895897,36.654545 C 106.895897,37.522135 106.193553,38.225455 105.327167,38.225455 C 104.460781,38.225455 103.758437,37.522135 103.758437,36.654545 C 103.758437,35.786956 104.460781,35.083636 105.327167,35.083636 C 106.193553,35.083636 106.895897,35.786956 106.895897,36.654545" fill-opacity="0" stroke="red" stroke-width="1"/>
    <path d="M 345.408266,324.916364 C 345.408266,325.783953 344.705922,326.487273 343.839536,326.487273 C 342.97315,326.487273 342.270806,325.783953 342.270806,324.916364 C 342.270806,324.048775 342.97315,323.345455 343.839536,323.345455 C 344.705922,323.345455 345.408266,324.048775 345.408266,324.916364" fill-opacity="0" stroke="red" stroke-width="1"/>
    <path d="M 305.732462,324.916364 C 305.732462,325.783953 305.030118,326.487273 304.163732,326.487273 C 303.297346,326.487273 302.595002,325.783953 302.595002,324.916364 C 302.595002,324.048775 303.297346,323.345455 304.163732,323.345455 C 305.030118,323.345455 305.732462,324.048775 305.732462,324.916364" fill-opacity="0" stroke="red" stroke-width="1"/>
    <path d="M 253.964363,324.916364 C 253.964363,325.783953 253.262018,326.487273 252.395632,326.487273 C 251.529247,326.487273 250.826902,325.783953 250.826902,324.916364 C 250.826902,324.048775 251.529247,323.345455 252.395632,323.345455 C 253.262018,323.345455 253.964363,324.048775 253.964363,324.916364" fill-opacity="0" stroke="red" stroke-width="1"/>
    <path d="M 219.256205,324.916364 C 219.256205,325.783953 218.55386,326.487273 217.687474,326.487273 C 216.821089,326.487273 216.118744,325.783953 216.118744,324.916364 C 216.118744,324.048775 216.821089,323.345455 217.687474,323.345455 C 218.55386,323.345455 219.256205,324.048775 219.256205,324.916364" fill-opacity="0" stroke="red" stroke-width="1"/>
    <path d="M 395.869091,329.890909 L 395.869091,15.709091 L 18.850909,15.709091 L 18.850909,329.890909 L 395.869091,329.890909" fill-opacity="0" stroke="red" stroke-width="1"/>
    <path d="M 40.813133,308.945455 C 40.813133,311.259026 38.940215,313.134545 36.629852,313.134545 C 34.31949,313.134545 32.446572,311.259026 32.446572,308.945455 C 32.446572,306.631884 34.31949,304.756364 36.629852,304.756364 C 38.940215,304.756364 40.813133,306.631884 40.813133,308.945455" fill-opacity="0" stroke="red" stroke-width="1"/>
    <path d="M 40.813133,36.654545 C 40.813133,38.968116 38.940215,40.843636 36.629852,40.843636 C 34.31949,40.843636 32.446572,38.968116 32.446572,36.654545 C 32.446572,34.340974 34.31949,32.465455 36.629852,32.465455 C 38.940215,32.465455 40.813133,34.340974 40.813133,36.654545" fill-opacity="0" stroke="red" stroke-width="1"/>
    <path d="M 371.292316,308.945455 C 371.292316,309.813044 370.589972,310.516364 369.723586,310.516364 C 368.8572,310.516364 368.154856,309.813044 368.154856,308.945455 C 368.154856,308.077865 368.8572,307.374545 369.723586,307.374545 C 370.589972,307.374545 371.292316,308.077865 371.292316,308.945455" fill-opacity="0" stroke="red" stroke-width="1"/>
    <path d="M 371.292316,36.654545 C 371.292316,37.522135 370.589972,38.225455 369.723586,38.225455 C 368.8572,38.225455 368.154856,37.522135 368.154856,36.654545 C 368.154856,35.786956 368.8572,35.083636 369.723586,35.083636 C 370.589972,35.083636 371.292316,35.786956 371.292316,36.654545" fill-opacity="0" stroke="red" stroke-width="1"/>
    <path d="M 386.848892,20.683636 C 386.848892,21.551225 386.146547,22.254545 385.280161,22.254545 C 384.413776,22.254545 383.711431,21.551225 383.711431,20.683636 C 383.711431,19.816047 384.413776,19.112727 385.280161,19.112727 C 386.146547,19.112727 386.848892,19.816047 386.848892,20.683636" fill-opacity="0" stroke="red" stroke-width="1"/>
    <path d="M 386.848892,324.916364 C 386.848892,325.783953 386.146547,326.487273 385.280161,326.487273 C 384.413776,326.487273 383.711431,325.783953 383.711431,324.916364 C 383.711431,324.048775 384.413776,323.345455 385.280161,323.345455 C 386.146547,323.345455 386.848892,324.048775 386.848892,324.916364" fill-opacity="0" stroke="red" stroke-width="1"/>
    <path d="M 279.848413,308.945455 C 279.848413,309.813044 279.146068,310.516364 278.279682,310.516364 C 277.413296,310.516364 276.710952,309.813044 276.710952,308.945455 C 276.710952,308.077865 277.413296,307.374545 278.279682,307.374545 C 279.146068,307.374545 279.848413,308.077865 279.848413,308.945455" fill-opacity="0" stroke="red" stroke-width="1"/>
    <path d="M 279.848413,36.654545 C 279.848413,37.522135 279.146068,38.225455 278.279682,38.225455 C 277.413296,38.225455 276.710952,37.522135 276.710952,36.654545 C 276.710952,35.786956 277.413296,35.083636 278.279682,35.083636 C 279.146068,35.083636 279.848413,35.786956 279.848413,36.654545" fill-opacity="0" stroke="red" stroke-width="1"/>
    <path d="M 193.372155,308.945455 C 193.372155,309.813044 192.66981,310.516364 191.803425,310.516364 C 190.937039,310.516364 190.234694,309.813044 190.234694,308.945455 C 190.234694,308.077865 190.937039,307.374545 191.803425,307.374545 C 192.66981,307.374545 193.372155,308.077865 193.372155,308.945455" fill-opacity="0" stroke="red" stroke-width="1"/>
    <path d="M 193.372155,36.654545 C 193.372155,37.522135 192.66981,38.225455 191.803425,38.225455 C 190.937039,38.225455 190.234694,37.522135 190.234694,36.654545 C 190.234694,35.786956 190.937039,35.083636 191.803425,35.083636 C 192.66981,35.083636 193.372155,35.786956 193.372155,36.654545" fill-opacity="0" stroke="red" stroke-width="1"/>
    <path d="M 106.895897,308.945455 C 106.895897,309.813044 106.193553,310.516364 105.327167,310.516364 C 104.460781,310.516364 103.758437,309.813044 103.758437,308.945455 C 103.758437,308.077865 104.460781,307.374545 105.327167,307.374545 C 106.193553,307.374545 106.895897,308.077865 106.895897,308.945455" fill-opacity="0" stroke="red" stroke-width="1"/>
    <path d="M 106.895897,36.654545 C 106.895897,37.522135 106.193553,38.225455 105.327167,38.225455 C 104.460781,38.225455 103.758437,37.522135 103.758437,36.654545 C 103.758437,35.786956 104.460781,35.083636 105.327167,35.083636 C 106.193553,35.083636 106.895897,35.786956 106.895897,36.654545" fill-opacity="0" stroke="red" stroke-width="1"/>
    <path d="M 345.408266,20.683636 C 345.408266,21.551225 344.705922,22.254545 343.839536,22.254545 C 342.97315,22.254545 342.270806,21.551225 342.270806,20.683636 C 342.270806,19.816047 342.97315,19.112727 343.839536,19.112727 C 344.705922,19.112727 345.408266,19.816047 345.408266,20.683636" fill-opacity="0" stroke="red" stroke-width="1"/>
    <path d="M 305.732462,20.683636 C 305.732462,21.551225 305.030118,22.254545 304.163732,22.254545 C 303.297346,22.254545 302.595002,21.551225 302.595002,20.683636 C 302.595002,19.816047 303.297346,19.112727 304.163732,19.112727 C 305.030118,19.112727 305.732462,19.816047 305.732462,20.683636" fill-opacity="0" stroke="red" stroke-width="1"/>
    <path d="M 253.964363,20.683636 C 253.964363,21.551225 253.262018,22.254545 252.395632,22.254545 C 251.529247,22.254545 250.826902,21.551225 250.826902,20.683636 C 250.826902,19.816047 251.529247,19.112727 252.395632,19.112727 C 253.262018,19.112727 253.964363,19.816047 253.964363,20.683636" fill-opacity="0" stroke="red" stroke-width="1"/>
    <path d="M 219.256205,20.683636 C 219.256205,21.551225 218.55386,22.254545 217.687474,22.254545 C 216.821089,22.254545 216.118744,21.551225 216.118744,20.683636 C 216.118744,19.816047 216.821089,19.112727 217.687474,19.112727 C 218.55386,19.112727 219.256205,19.816047 219.256205,20.683636" fill-opacity="0" stroke="red" stroke-width="1"/>
    <path d="M 0.0,0.0 L 414.72,0.0 L 414.72,345.6 L 0.0,345.6 L 0.0,0.0" fill-opacity="0" stroke="red" stroke-width="1"/>
  </g>
  <g transform="translate(1117.4402,1152.0000) rotate(0)">
    <path d="M 0.0,345.6 L 414.72,345.6 L 414.72,0.0 L 0.0,0.0 L 0.0,345.6" fill-opacity="0" stroke="red" stroke-width="1"/>
    <path d="M 0.0,345.6 L 414.72,345.6 L 414.72,0.0 L 0.0,0.0 L 0.0,345.6" fill-opacity="0" stroke="red" stroke-width="1"/>
    <path d="M 395.869091,329.890909 L 395.869091,329.890909 L 395.869091,15.709091 L 395.869091,15.709091 L 395.869091,329.890909" fill-opacity="0" stroke="red" stroke-width="1"/>
    <path d="M 395.869091,329.890909 L 395.869091,329.890909 L 18.850909,329.890909 L 18.850909,329.890909 L 395.869091,329.890909" fill-opacity="0" stroke="red" stroke-width="1"/>
    <path d="M 395.869091,15.709091 L 395.869091,15.709091 L 18.850909,15.709091 L 18.850909,15.709091 L 395.869091,15.709091" fill-opacity="0" stroke="red" stroke-width="1"/>
    <path d="M 18.850909,329.890909 L 18.850909,329.890909 L 18.850909,15.709091 L 18.850909,15.709091 L 18.850909,329.890909" fill-opacity="0" stroke="red" stroke-width="1"/>
    <path d="M 395.869091,329.890909 L 395.869091,15.709091 L 18.850909,15.709091 L 18.850909,329.890909 L 395.869091,329.890909" fill-opacity="0" stroke="red" stroke-width="1"/>
    <path d="M 371.292316,308.945455 C 371.292316,309.813044 370.589972,310.516364 369.723586,310.516364 C 368.8572,310.516364 368.154856,309.813044 368.154856,308.945455 C 368.154856,308.077865 368.8572,307.374545 369.723586,307.374545 C 370.589972,307.374545 371.292316,308.077865 371.292316,308.945455" fill-opacity="0" stroke="red" stroke-width="1"/>
    <path d="M 371.292316,36.654545 C 371.292316,37.522135 370.589972,38.225455 369.723586,38.225455 C 368.8572,38.225455 368.154856,37.522135 368.154856,36.654545 C 368.154856,35.786956 368.8572,35.083636 369.723586,35.083636 C 370.589972,35.083636 371.292316,35.786956 371.292316,36.654545" fill-opacity="0" stroke="red" stroke-width="1"/>
    <path d="M 386.848892,20.683636 C 386.848892,21.551225 386.146547,22.254545 385.280161,22.254545 C 384.413776,22.254545 383.711431,21.551225 383.711431,20.683636 C 383.711431,19.816047 384.413776,19.112727 385.280161,19.112727 C 386.146547,19.112727 386.848892,19.816047 386.848892,20.683636" fill-opacity="0" stroke="red" stroke-width="1"/>
    <path d="M 386.848892,324.916364 C 386.848892,325.783953 386.146547,326.487273 385.280161,326.487273 C 384.413776,326.487273 383.711431,325.783953 383.711431,324.916364 C 383.711431,324.048775 384.413776,323.345455 385.280161,323.345455 C 386.146547,323.345455 386.848892,324.048775 386.848892,324.916364" fill-opacity="0" stroke="red" stroke-width="1"/>
    <path d="M 279.848413,308.945455 C 279.848413,309.813044 279.146068,310.516364 278.279682,310.516364 C 277.413296,310.516364 276.710952,309.813044 276.710952,308.945455 C 276.710952,308.077865 277.413296,307.374545 278.279682,307.374545 C 279.146068,307.374545 279.848413,308.077865 279.848413,308.945455" fill-opacity="0" stroke="red" stroke-width="1"/>
    <path d="M 279.848413,36.654545 C 279.848413,37.522135 279.146068,38.225455 278.279682,38.225455 C 277.413296,38.225455 276.710952,37.522135 276.710952,36.654545 C 276.710952,35.786956 277.413296,35.083636 278.279682,35.083636 C 279.146068,35.083636 279.848413,35.786956 279.848413,36.654545" fill-opacity="0" stroke="red" stroke-width="1"/>
    <path d="M 193.372155,308.945455 C 193.372155,309.813044 192.66981,310.516364 191.803425,310.516364 C 190.937039,310.516364 190.234694,309.813044 190.234694,308.945455 C 190.234694,308.077865 190.937039,307.374545 191.803425,307.374545 C 192.66981,307.374545 193.372155,308.077865 193.372155,308.945455" fill-opacity="0" stroke="red" stroke-width="1"/>
    <path d="M 193.372155,36.654545 C 193.372155,37.522135 192.66981,38.225455 191.803425,38.225455 C 190.937039,38.225455 190.234694,37.522135 190.234694,36.654545 C 190.234694,35.786956 190.937039,35.083636 191.803425,35.083636 C 192.66981,35.083636 193.372155,35.786956 193.372155,36.654545" fill-opacity="0" stroke="red" stroke-width="1"/>
    <path d="M 106.895897,308.945455 C 106.895897,309.813044 106.193553,310.516364 105.327167,310.516364 C 104.460781,310.516364 103.758437,309.813044 103.758437,308.945455 C 103.758437,308.077865 104.460781,307.374545 105.327167,307.374545 C 106.193553,307.374545 106.895897,308.077865 106.895897,308.945455" fill-opacity="0" stroke="red" stroke-width="1"/>
    <path d="M 106.895897,36.654545 C 106.895897,37.522135 106.193553,38.225455 105.327167,38.225455 C 104.460781,38.225455 103.758437,37.522135 103.758437,36.654545 C 103.758437,35.786956 104.460781,35.083636 105.327167,35.083636 C 106.193553,35.083636 106.895897,35.786956 106.895897,36.654545" fill-opacity="0" stroke="red" stroke-width="1"/>
    <path d="M 345.408266,324.916364 C 345.408266,325.783953 344.705922,326.487273 343.839536,326.487273 C 342.97315,326.487273 342.270806,325.783953 342.270806,324.916364 C 342.270806,324.048775 342.97315,323.345455 343.839536,323.345455 C 344.705922,323.345455 345.408266,324.048775 345.408266,324.916364" fill-opacity="0" stroke="red" stroke-width="1"/>
    <path d="M 305.732462,324.916364 C 305.732462,325.783953 305.030118,326.487273 304.163732,326.487273 C 303.297346,326.487273 302.595002,325.783953 302.595002,324.916364 C 302.595002,324.048775 303.297346,323.345455 304.163732,323.345455 C 305.030118,323.345455 305.732462,324.048775 305.732462,324.916364" fill-opacity="0" stroke="red" stroke-width="1"/>
    <path d="M 253.964363,324.916364 C 253.964363,325.783953 253.262018,326.487273 252.395632,326.487273 C 251.529247,326.487273 250.826902,325.783953 250.826902,324.916364 C 250.826902,324.048775 251.529247,323.345455 252.395632,323.345455 C 253.262018,323.345455 253.964363,324.048775 253.964363,324.916364" fill-opacity="0" stroke="red" stroke-width="1"/>
    <path d="M 219.256205,324.916364 C 219.256205,325.783953 218.55386,326.487273 217.687474,326.487273 C 216.821089,326.487273 216.118744,325.783953 216.118744,324.916364 C 216.118744,324.048775 216.821089,323.345455 217.687474,323.345455 C 218.55386,323.345455 219.256205,324.048775 219.256205,324.916364" fill-opacity="0" stroke="red" stroke-width="1"/>
    <path d="M 395.869091,329.890909 L 395.869091,15.709091 L 18.850909,15.709091 L 18.850909,329.890909 L 395.869091,329.890909" fill-opacity="0" stroke="red" stroke-width="1"/>
    <path d="M 40.813133,308.945455 C 40.813133,311.259026 38.940215,313.134545 36.629852,313.134545 C 34.31949,313.134545 32.446572,311.259026 32.446572,308.945455 C 32.446572,306.631884 34.31949,304.756364 36.629852,304.756364 C 38.940215,304.756364 40.813133,306.631884 40.813133,308.945455" fill-opacity="0" stroke="red" stroke-width="1"/>
    <path d="M 40.813133,36.654545 C 40.813133,38.968116 38.940215,40.843636 36.629852,40.843636 C 34.31949,40.843636 32.446572,38.968116 32.446572,36.654545 C 32.446572,34.340974 34.31949,32.465455 36.629852,32.465455 C 38.940215,32.465455 40.813133,34.340974 40.813133,36.654545" fill-opacity="0" stroke="red" stroke-width="1"/>
    <path d="M 371.292316,308.945455 C 371.292316,309.813044 370.589972,310.516364 369.723586,310.516364 C 368.8572,310.516364 368.154856,309.813044 368.154856,308.945455 C 368.154856,308.077865 368.8572,307.374545 369.723586,307.374545 C 370.589972,307.374545 371.292316,308.077865 371.292316,308.945455" fill-opacity="0" stroke="red" stroke-width="1"/>
    <path d="M 371.292316,36.654545 C 371.292316,37.522135 370.589972,38.225455 369.723586,38.225455 C 368.8572,38.225455 368.154856,37.522135 368.154856,36.654545 C 368.154856,35.786956 368.8572,35.083636 369.723586,35.083636 C 370.589972,35.083636 371.292316,35.786956 371.292316,36.654545" fill-opacity="0" stroke="red" stroke-width="1"/>
    <path d="M 386.848892,20.683636 C 386.848892,21.551225 386.146547,22.254545 385.280161,22.254545 C 384.413776,22.254545 383.711431,21.551225 383.711431,20.683636 C 383.711431,19.816047 384.413776,19.112727 385.280161,19.112727 C 386.146547,19.112727 386.848892,19.816047 386.848892,20.683636" fill-opacity="0" stroke="red" stroke-width="1"/>
    <path d="M 386.848892,324.916364 C 386.848892,325.783953 386.146547,326.487273 385.280161,326.487273 C 384.413776,326.487273 383.711431,325.783953 383.711431,324.916364 C 383.711431,324.048775 384.413776,323.345455 385.280161,323.345455 C 386.146547,323.345455 386.848892,324.048775 386.848892,324.916364" fill-opacity="0" stroke="red" stroke-width="1"/>
    <path d="M 279.848413,308.945455 C 279.848413,309.813044 279.146068,310.516364 278.279682,310.516364 C 277.413296,310.516364 276.710952,309.813044 276.710952,308.945455 C 276.710952,308.077865 277.413296,307.374545 278.279682,307.374545 C 279.146068,307.374545 279.848413,308.077865 279.848413,308.945455" fill-opacity="0" stroke="red" stroke-width="1"/>
    <path d="M 279.848413,36.654545 C 279.848413,37.522135 279.146068,38.225455 278.279682,38.225455 C 277.413296,38.225455 276.710952,37.522135 276.710952,36.654545 C 276.710952,35.786956 277.413296,35.083636 278.279682,35.083636 C 279.146068,35.083636 279.848413,35.786956 279.848413,36.654545" fill-opacity="0" stroke="red" stroke-width="1"/>
    <path d="M 193.372155,308.945455 C 193.372155,309.813044 192.66981,310.516364 191.803425,310.516364 C 190.937039,310.516364 190.234694,309.813044 190.234694,308.945455 C 190.234694,308.077865 190.937039,307.374545 191.803425,307.374545 C 192.66981,307.374545 193.372155,308.077865 193.372155,308.945455" fill-opacity="0" stroke="red" stroke-width="1"/>
    <path d="M 193.372155,36.654545 C 193.372155,37.522135 192.66981,38.225455 191.803425,38.225455 C 190.937039,38.225455 190.234694,37.522135 190.234694,36.654545 C 190.234694,35.786956 190.937039,35.083636 191.803425,35.083636 C 192.66981,35.083636 193.372155,35.786956 193.372155,36.654545" fill-opacity="0" stroke="red" stroke-width="1"/>
    <path d="M 106.895897,308.945455 C 106.895897,309.813044 106.193553,310.516364 105.327167,310.516364 C 104.460781,310.516364 103.758437,309.813044 103.758437,308.945455 C 103.758437,308.077865 104.460781,307.374545 105.327167,307.374545 C 106.193553,307.374545 106.895897,308.077865 106.895897,308.945455" fill-opacity="0" stroke="red" stroke-width="1"/>
    <path d="M 106.895897,36.654545 C 106.895897,37.522135 106.193553,38.225455 105.327167,38.225455 C 104.460781,38.225455 103.758437,37.522135 103.758437,36.654545 C 103.758437,35.786956 104.460781,35.083636 105.327167,35.083636 C 106.193553,35.083636 106.895897,35.786956 106.895897,36.654545" fill-opacity="0" stroke="red" stroke-width="1"/>
    <path d="M 345.408266,324.916364 C 345.408266,325.783953 344.705922,326.487273 343.839536,326.487273 C 342.97315,326.487273 342.270806,325.783953 342.270806,324.916364 C 342.270806,324.048775 342.97315,323.345455 343.839536,323.345455 C 344.705922,323.345455 345.408266,324.048775 345.408266,324.916364" fill-opacity="0" stroke="red" stroke-width="1"/>
    <path d="M 305.732462,324.916364 C 305.732462,325.783953 305.030118,326.487273 304.163732,326.487273 C 303.297346,326.487273 302.595002,325.783953 302.595002,324.916364 C 302.595002,324.048775 303.297346,323.345455 304.163732,323.345455 C 305.030118,323.345455 305.732462,324.048775 305.732462,324.916364" fill-opacity="0" stroke="red" stroke-width="1"/>
    <path d="M 253.964363,324.916364 C 253.964363,325.783953 253.262018,326.487273 252.395632,326.487273 C 251.529247,326.487273 250.826902,325.783953 250.826902,324.916364 C 250.826902,324.048775 251.529247,323.345455 252.395632,323.345455 C 253.262018,323.345455 253.964363,324.048775 253.964363,324.916364" fill-opacity="0" stroke="red" stroke-width="1"/>
    <path d="M 219.256205,324.916364 C 219.256205,325.783953 218.55386,326.487273 217.687474,326.487273 C 216.821089,326.487273 216.118744,325.783953 216.118744,324.916364 C 216.118744,324.048775 216.821089,323.345455 217.687474,323.345455 C 218.55386,323.345455 219.256205,324.048775 219.256205,324.916364" fill-opacity="0" stroke="red" stroke-width="1"/>
    <path d="M 0.0,0.0 L 414.72,0.0 L 414.72,345.6 L 0.0,345.6 L 0.0,0.0" fill-opacity="0" stroke="red" stroke-width="1"/>
  </g>
  <g transform="translate(576.0000,345.6001) rotate(0)">
    <path d="M 0.0,534.96 L 288.0,534.96 L 288.0,0.0 L 0.0,0.0 L 0.0,534.96" fill-opacity="0" stroke="red" stroke-width="1"/>
    <path d="M 0.0,534.96 L 288.0,534.96 L 288.0,0.0 L 0.0,0.0 L 0.0,534.96" fill-opacity="0" stroke="red" stroke-width="1"/>
    <path d="M 13.090909,510.643636 L 13.090909,510.643636 L 274.909091,510.643636 L 274.909091,510.643636 L 13.090909,510.643636" fill-opacity="0" stroke="red" stroke-width="1"/>
    <path d="M 13.090909,24.316364 L 13.090909,24.316364 L 274.909091,24.316364 L 274.909091,24.316364 L 13.090909,24.316364" fill-opacity="0" stroke="red" stroke-width="1"/>
    <path d="M 13.090909,510.643636 L 13.090909,510.643636 L 13.090909,24.316364 L 13.090909,24.316364 L 13.090909,510.643636" fill-opacity="0" stroke="red" stroke-width="1"/>
    <path d="M 274.909091,510.643636 L 274.909091,510.643636 L 274.909091,24.316364 L 274.909091,24.316364 L 274.909091,510.643636" fill-opacity="0" stroke="red" stroke-width="1"/>
    <path d="M 13.090909,510.643636 L 13.090909,24.316364 L 274.909091,24.316364 L 274.909091,510.643636 L 13.090909,510.643636" fill-opacity="0" stroke="red" stroke-width="1"/>
    <path d="M 47.956756,32.016545 C 47.956756,33.359501 46.867688,34.448182 45.524255,34.448182 C 44.180821,34.448182 43.091754,33.359501 43.091754,32.016545 C 43.091754,30.67359 44.180821,29.584909 45.524255,29.584909 C 46.867688,29.584909 47.956756,30.67359 47.956756,32.016545" fill-opacity="0" stroke="red" stroke-width="1"/>
    <path d="M 244.908246,32.016545 C 244.908246,33.359501 243.819179,34.448182 242.475745,34.448182 C 241.132312,34.448182 240.043244,33.359501 240.043244,32.016545 C 240.043244,30.67359 241.132312,29.584909 242.475745,29.584909 C 243.819179,29.584909 244.908246,30.67359 244.908246,32.016545" fill-opacity="0" stroke="red" stroke-width="1"/>
    <path d="M 13.090909,510.643636 L 13.090909,24.316364 L 274.909091,24.316364 L 274.909091,510.643636 L 13.090909,510.643636" fill-opacity="0" stroke="red" stroke-width="1"/>
    <path d="M 47.956756,32.016545 C 47.956756,33.359501 46.867688,34.448182 45.524255,34.448182 C 44.180821,34.448182 43.091754,33.359501 43.091754,32.016545 C 43.091754,30.67359 44.180821,29.584909 45.524255,29.584909 C 46.867688,29.584909 47.956756,30.67359 47.956756,32.016545" fill-opacity="0" stroke="red" stroke-width="1"/>
    <path d="M 244.908246,32.016545 C 244.908246,33.359501 243.819179,34.448182 242.475745,34.448182 C 241.132312,34.448182 240.043244,33.359501 240.043244,32.016545 C 240.043244,30.67359 241.132312,29.584909 242.475745,29.584909 C 243.819179,29.584909 244.908246,30.67359 244.908246,32.016545" fill-opacity="0" stroke="red" stroke-width="1"/>
    <path d="M 244.908246,502.943455 C 244.908246,504.28641 243.819179,505.375091 242.475745,505.375091 C 241.132312,505.375091 240.043244,504.28641 240.043244,502.943455 C 240.043244,501.600499 241.132312,500.511818 242.475745,500.511818 C 243.819179,500.511818 244.908246,501.600499 244.908246,502.943455" fill-opacity="0" stroke="red" stroke-width="1"/>
    <path d="M 47.956756,502.943455 C 47.956756,504.28641 46.867688,505.375091 45.524255,505.375091 C 44.180821,505.375091 43.091754,504.28641 43.091754,502.943455 C 43.091754,501.600499 44.180821,500.511818 45.524255,500.511818 C 46.867688,500.511818 47.956756,501.600499 47.956756,502.943455" fill-opacity="0" stroke="red" stroke-width="1"/>
    <path d="M 0.0,0.0 L 288.0,0.0 L 288.0,534.96 L 0.0,534.96 L 0.0,0.0" fill-opacity="0" stroke="red" stroke-width="1"/>
  </g>
  <g transform="translate(978.4801,0.0000) rotate(0)">
    <path d="M 0.0,1152.0 L 288.0,1152.0 L 288.0,0.0 L 0.0,0.0 L 0.0,1152.0" fill-opacity="0" stroke="red" stroke-width="1"/>
    <path d="M 0.0,1152.0 L 288.0,1152.0 L 288.0,0.0 L 0.0,0.0 L 0.0,1152.0" fill-opacity="0" stroke="red" stroke-width="1"/>
    <path d="M 78.322475,52.363636 L 78.322475,1099.636364 L 78.322475,1099.636364 L 78.322475,52.363636" fill-opacity="0" stroke="red" stroke-width="1"/>
    <path d="M 78.322475,52.363636 L 78.322475,1099.636364 L 209.677525,1099.636364 L 209.677525,52.363636 L 78.322475,52.363636" fill-opacity="0" stroke="red" stroke-width="1"/>
    <path d="M 78.322475,52.363636 L 209.677525,52.363636 L 209.677525,52.363636 L 78.322475,52.363636" fill-opacity="0" stroke="red" stroke-width="1"/>
    <path d="M 78.322475,1099.636364 L 209.677525,1099.636364 L 209.677525,1099.636364 L 78.322475,1099.636364" fill-opacity="0" stroke="red" stroke-width="1"/>
    <path d="M 209.677525,52.363636 L 209.677525,1099.636364 L 209.677525,1099.636364 L 209.677525,52.363636" fill-opacity="0" stroke="red" stroke-width="1"/>
    <path d="M 78.322475,52.363636 L 78.322475,1099.636364 L 209.677525,1099.636364 L 209.677525,52.363636 L 78.322475,52.363636" fill-opacity="0" stroke="red" stroke-width="1"/>
    <path d="M 0.0,0.0 L 288.0,0.0 L 288.0,1152.0 L 0.0,1152.0 L 0.0,0.0" fill-opacity="0" stroke="red" stroke-width="1"/>
  </g>
  <g transform="translate(0.0000,345.6001) rotate(0)">
    <path d="M 0.0,1152.0 L 288.0,1152.0 L 288.0,0.0 L 0.0,0.0 L 0.0,1152.0" fill-opacity="0" stroke="red" stroke-width="1"/>
    <path d="M 0.0,1152.0 L 288.0,1152.0 L 288.0,0.0 L 0.0,0.0 L 0.0,1152.0" fill-opacity="0" stroke="red" stroke-width="1"/>
    <path d="M 209.677525,52.363636 L 209.677525,52.363636 L 209.677525,1099.636364 L 209.677525,1099.636364 L 209.677525,52.363636" fill-opacity="0" stroke="red" stroke-width="1"/>
    <path d="M 209.677525,52.363636 L 209.677525,1099.636364 L 78.322475,1099.636364 L 78.322475,52.363636 L 209.677525,52.363636" fill-opacity="0" stroke="red" stroke-width="1"/>
    <path d="M 209.677525,52.363636 L 209.677525,52.363636 L 78.322475,52.363636 L 78.322475,52.363636 L 209.677525,52.363636" fill-opacity="0" stroke="red" stroke-width="1"/>
    <path d="M 209.677525,1099.636364 L 209.677525,1099.636364 L 78.322475,1099.636364 L 78.322475,1099.636364 L 209.677525,1099.636364" fill-opacity="0" stroke="red" stroke-width="1"/>
    <path d="M 78.322475,52.363636 L 78.322475,52.363636 L 78.322475,1099.636364 L 78.322475,1099.636364 L 78.322475,52.363636" fill-opacity="0" stroke="red" stroke-width="1"/>
    <path d="M 209.677525,52.363636 L 209.677525,1099.636364 L 78.322475,1099.636364 L 78.322475,52.363636 L 209.677525,52.363636" fill-opacity="0" stroke="red" stroke-width="1"/>
    <path d="M 0.0,0.0 L 288.0,0.0 L 288.0,1152.0 L 0.0,1152.0 L 0.0,0.0" fill-opacity="0" stroke="red" stroke-width="1"/>
  </g>
  <rect fill-opacity="0" height="2000" stroke="lightgray" width="2800" x="0" y="0"/>
</svg>
