<?xml version="1.0" encoding="utf-8" ?>
<svg xmlns="http://www.w3.org/2000/svg" xmlns:ev="http://www.w3.org/2001/xml-events" xmlns:xlink="http://www.w3.org/1999/xlink" baseProfile="tiny" height="2000mm" version="1.2" viewBox="0 0 2800 2000" width="2800mm">
  <defs/>
  <g transform="translate(288.0000,345.6001) rotate(0)">
    <path d="M 0.0,534.96 L 0.0,534.96 L 288.0,534.96 L 288.0,534.96 L 0.0,534.96" fill-opacity="0" stroke="red" stroke-width="1"/>
    <path d="M 0.0,0.0 L 0.0,0.0 L 288.0,0.0 L 288.0,0.0 L 0.0,0.0" fill-opacity="0" stroke="red" stroke-width="1"/>
    <path d="M 0.0,534.96 L 0.0,534.96 L 0.0,0.0 L 0.0,0.0 L 0.0,534.96" fill-opacity="0" stroke="red" stroke-width="1"/>
    <path d="M 288.0,534.96 L 288.0,534.96 L 288.0,0.0 L 288.0,0.0 L 288.0,534.96" fill-opacity="0" stroke="red" stroke-width="1"/>
    <path d="M 0.0,534.96 L 0.0,0.0 L 288.0,0.0 L 288.0,534.96 L 0.0,534.96" fill-opacity="0" stroke="red" stroke-width="1"/>
    <path d="M 38.352431,8.4702 C 38.352431,9.947451 37.154457,11.145 35.67668,11.145 C 34.198904,11.145 33.000929,9.947451 33.000929,8.4702 C 33.000929,6.992949 34.198904,5.7954 35.67668,5.7954 C 37.154457,5.7954 38.352431,6.992949 38.352431,8.4702" fill-opacity="0" stroke="red" stroke-width="1"/>
    <path d="M 254.999071,8.4702 C 254.999071,9.947451 253.801096,11.145 252.32332,11.145 C 250.845543,11.145 249.647569,9.947451 249.647569,8.4702 C 249.647569,6.992949 250.845543,5.7954 252.32332,5.7954 C 253.801096,5.7954 254.999071,6.992949 254.999071,8.4702" fill-opacity="0" stroke="red" stroke-width="1"/>
    <path d="M 0.0,534.96 L 0.0,0.0 L 288.0,0.0 L 288.0,534.96 L 0.0,534.96" fill-opacity="0" stroke="red" stroke-width="1"/>
    <path d="M 38.352431,8.4702 C 38.352431,9.947451 37.154457,11.145 35.67668,11.145 C 34.198904,11.145 33.000929,9.947451 33.000929,8.4702 C 33.000929,6.992949 34.198904,5.7954 35.67668,5.7954 C 37.154457,5.7954 38.352431,6.992949 38.352431,8.4702" fill-opacity="0" stroke="red" stroke-width="1"/>
    <path d="M 254.999071,8.4702 C 254.999071,9.947451 253.801096,11.145 252.32332,11.145 C 250.845543,11.145 249.647569,9.947451 249.647569,8.4702 C 249.647569,6.992949 250.845543,5.7954 252.32332,5.7954 C 253.801096,5.7954 254.999071,6.992949 254.999071,8.4702" fill-opacity="0" stroke="red" stroke-width="1"/>
    <path d="M 0.0,0.0 L 288.0,0.0 L 288.0,534.96 L 0.0,534.96 L 0.0,0.0" fill-opacity="0" stroke="red" stroke-width="1"/>
  </g>
  <g transform="translate(288.0000,880.5602) rotate(0)">
    <path d="M 414.72,345.6 L 414.72,345.6 L 414.72,0.0 L 414.72,0.0 L 414.72,345.6" fill-opacity="0" stroke="red" stroke-width="1"/>
    <path d="M 414.72,345.6 L 414.72,345.6 L 0.0,345.6 L 0.0,345.6 L 414.72,345.6" fill-opacity="0" stroke="red" stroke-width="1"/>
    <path d="M 414.72,0.0 L 414.72,0.0 L 0.0,0.0 L 0.0,0.0 L 414.72,0.0" fill-opacity="0" stroke="red" stroke-width="1"/>
    <path d="M 0.0,345.6 L 0.0,345.6 L 0.0,0.0 L 0.0,0.0 L 0.0,345.6" fill-opacity="0" stroke="red" stroke-width="1"/>
    <path d="M 414.72,345.6 L 414.72,0.0 L 0.0,0.0 L 0.0,345.6 L 414.72,345.6" fill-opacity="0" stroke="red" stroke-width="1"/>
    <path d="M 387.685548,322.56 C 387.685548,323.514348 386.912969,324.288 385.959945,324.288 C 385.00692,324.288 384.234341,323.514348 384.234341,322.56 C 384.234341,321.605652 385.00692,320.832 385.959945,320.832 C 386.912969,320.832 387.685548,321.605652 387.685548,322.56" fill-opacity="0" stroke="red" stroke-width="1"/>
    <path d="M 387.685548,23.04 C 387.685548,23.994348 386.912969,24.768 385.959945,24.768 C 385.00692,24.768 384.234341,23.994348 384.234341,23.04 C 384.234341,22.085652 385.00692,21.312 385.959945,21.312 C 386.912969,21.312 387.685548,22.085652 387.685548,23.04" fill-opacity="0" stroke="red" stroke-width="1"/>
    <path d="M 404.797781,5.472 C 404.797781,6.426348 404.025202,7.2 403.072178,7.2 C 402.119153,7.2 401.346574,6.426348 401.346574,5.472 C 401.346574,4.517652 402.119153,3.744 403.072178,3.744 C 404.025202,3.744 404.797781,4.517652 404.797781,5.472" fill-opacity="0" stroke="red" stroke-width="1"/>
    <path d="M 404.797781,340.128 C 404.797781,341.082348 404.025202,341.856 403.072178,341.856 C 402.119153,341.856 401.346574,341.082348 401.346574,340.128 C 401.346574,339.173652 402.119153,338.4 403.072178,338.4 C 404.025202,338.4 404.797781,339.173652 404.797781,340.128" fill-opacity="0" stroke="red" stroke-width="1"/>
    <path d="M 287.097254,322.56 C 287.097254,323.514348 286.324675,324.288 285.37165,324.288 C 284.418626,324.288 283.646047,323.514348 283.646047,322.56 C 283.646047,321.605652 284.418626,320.832 285.37165,320.832 C 286.324675,320.832 287.097254,321.605652 287.097254,322.56" fill-opacity="0" stroke="red" stroke-width="1"/>
    <path d="M 287.097254,23.04 C 287.097254,23.994348 286.324675,24.768 285.37165,24.768 C 284.418626,24.768 283.646047,23.994348 283.646047,23.04 C 283.646047,22.085652 284.418626,21.312 285.37165,21.312 C 286.324675,21.312 287.097254,22.085652 287.097254,23.04" fill-opacity="0" stroke="red" stroke-width="1"/>
    <path d="M 191.97337,322.56 C 191.97337,323.514348 191.200791,324.288 190.247767,324.288 C 189.294743,324.288 188.522164,323.514348 188.522164,322.56 C 188.522164,321.605652 189.294743,320.832 190.247767,320.832 C 191.200791,320.832 191.97337,321.605652 191.97337,322.56" fill-opacity="0" stroke="red" stroke-width="1"/>
    <path d="M 191.97337,23.04 C 191.97337,23.994348 191.200791,24.768 190.247767,24.768 C 189.294743,24.768 188.522164,23.994348 188.522164,23.04 C 188.522164,22.085652 189.294743,21.312 190.247767,21.312 C 191.200791,21.312 191.97337,22.085652 191.97337,23.04" fill-opacity="0" stroke="red" stroke-width="1"/>
    <path d="M 96.849487,322.56 C 96.849487,323.514348 96.076908,324.288 95.123883,324.288 C 94.170859,324.288 93.39828,323.514348 93.39828,322.56 C 93.39828,321.605652 94.170859,320.832 95.123883,320.832 C 96.076908,320.832 96.849487,321.605652 96.849487,322.56" fill-opacity="0" stroke="red" stroke-width="1"/>
    <path d="M 96.849487,23.04 C 96.849487,23.994348 96.076908,24.768 95.123883,24.768 C 94.170859,24.768 93.39828,23.994348 93.39828,23.04 C 93.39828,22.085652 94.170859,21.312 95.123883,21.312 C 96.076908,21.312 96.849487,22.085652 96.849487,23.04" fill-opacity="0" stroke="red" stroke-width="1"/>
    <path d="M 359.213093,5.472 C 359.213093,6.426348 358.440514,7.2 357.48749,7.2 C 356.534465,7.2 355.761886,6.426348 355.761886,5.472 C 355.761886,4.517652 356.534465,3.744 357.48749,3.744 C 358.440514,3.744 359.213093,4.517652 359.213093,5.472" fill-opacity="0" stroke="red" stroke-width="1"/>
    <path d="M 315.569709,5.472 C 315.569709,6.426348 314.79713,7.2 313.844105,7.2 C 312.891081,7.2 312.118502,6.426348 312.118502,5.472 C 312.118502,4.517652 312.891081,3.744 313.844105,3.744 C 314.79713,3.744 315.569709,4.517652 315.569709,5.472" fill-opacity="0" stroke="red" stroke-width="1"/>
    <path d="M 258.624799,5.472 C 258.624799,6.426348 257.85222,7.2 256.899196,7.2 C 255.946171,7.2 255.173592,6.426348 255.173592,5.472 C 255.173592,4.517652 255.946171,3.744 256.899196,3.744 C 257.85222,3.744 258.624799,4.517652 258.624799,5.472" fill-opacity="0" stroke="red" stroke-width="1"/>
    <path d="M 220.445825,5.472 C 220.445825,6.426348 219.673246,7.2 218.720222,7.2 C 217.767198,7.2 216.994619,6.426348 216.994619,5.472 C 216.994619,4.517652 217.767198,3.744 218.720222,3.744 C 219.673246,3.744 220.445825,4.517652 220.445825,5.472" fill-opacity="0" stroke="red" stroke-width="1"/>
    <path d="M 414.72,345.6 L 414.72,0.0 L 0.0,0.0 L 0.0,345.6 L 414.72,345.6" fill-opacity="0" stroke="red" stroke-width="1"/>
    <path d="M 24.158447,322.56 C 24.158447,325.104928 22.098236,327.168 19.556838,327.168 C 17.015439,327.168 14.955229,325.104928 14.955229,322.56 C 14.955229,320.015072 17.015439,317.952 19.556838,317.952 C 22.098236,317.952 24.158447,320.015072 24.158447,322.56" fill-opacity="0" stroke="red" stroke-width="1"/>
    <path d="M 24.158447,23.04 C 24.158447,25.584928 22.098236,27.648 19.556838,27.648 C 17.015439,27.648 14.955229,25.584928 14.955229,23.04 C 14.955229,20.495072 17.015439,18.432 19.556838,18.432 C 22.098236,18.432 24.158447,20.495072 24.158447,23.04" fill-opacity="0" stroke="red" stroke-width="1"/>
    <path d="M 387.685548,322.56 C 387.685548,323.514348 386.912969,324.288 385.959945,324.288 C 385.00692,324.288 384.234341,323.514348 384.234341,322.56 C 384.234341,321.605652 385.00692,320.832 385.959945,320.832 C 386.912969,320.832 387.685548,321.605652 387.685548,322.56" fill-opacity="0" stroke="red" stroke-width="1"/>
    <path d="M 387.685548,23.04 C 387.685548,23.994348 386.912969,24.768 385.959945,24.768 C 385.00692,24.768 384.234341,23.994348 384.234341,23.04 C 384.234341,22.085652 385.00692,21.312 385.959945,21.312 C 386.912969,21.312 387.685548,22.085652 387.685548,23.04" fill-opacity="0" stroke="red" stroke-width="1"/>
    <path d="M 404.797781,5.472 C 404.797781,6.426348 404.025202,7.2 403.072178,7.2 C 402.119153,7.2 401.346574,6.426348 401.346574,5.472 C 401.346574,4.517652 402.119153,3.744 403.072178,3.744 C 404.025202,3.744 404.797781,4.517652 404.797781,5.472" fill-opacity="0" stroke="red" stroke-width="1"/>
    <path d="M 404.797781,340.128 C 404.797781,341.082348 404.025202,341.856 403.072178,341.856 C 402.119153,341.856 401.346574,341.082348 401.346574,340.128 C 401.346574,339.173652 402.119153,338.4 403.072178,338.4 C 404.025202,338.4 404.797781,339.173652 404.797781,340.128" fill-opacity="0" stroke="red" stroke-width="1"/>
    <path d="M 287.097254,322.56 C 287.097254,323.514348 286.324675,324.288 285.37165,324.288 C 284.418626,324.288 283.646047,323.514348 283.646047,322.56 C 283.646047,321.605652 284.418626,320.832 285.37165,320.832 C 286.324675,320.832 287.097254,321.605652 287.097254,322.56" fill-opacity="0" stroke="red" stroke-width="1"/>
    <path d="M 287.097254,23.04 C 287.097254,23.994348 286.324675,24.768 285.37165,24.768 C 284.418626,24.768 283.646047,23.994348 283.646047,23.04 C 283.646047,22.085652 284.418626,21.312 285.37165,21.312 C 286.324675,21.312 287.097254,22.085652 287.097254,23.04" fill-opacity="0" stroke="red" stroke-width="1"/>
    <path d="M 191.97337,322.56 C 191.97337,323.514348 191.200791,324.288 190.247767,324.288 C 189.294743,324.288 188.522164,323.514348 188.522164,322.56 C 188.522164,321.605652 189.294743,320.832 190.247767,320.832 C 191.200791,320.832 191.97337,321.605652 191.97337,322.56" fill-opacity="0" stroke="red" stroke-width="1"/>
    <path d="M 191.97337,23.04 C 191.97337,23.994348 191.200791,24.768 190.247767,24.768 C 189.294743,24.768 188.522164,23.994348 188.522164,23.04 C 188.522164,22.085652 189.294743,21.312 190.247767,21.312 C 191.200791,21.312 191.97337,22.085652 191.97337,23.04" fill-opacity="0" stroke="red" stroke-width="1"/>
    <path d="M 96.849487,322.56 C 96.849487,323.514348 96.076908,324.288 95.123883,324.288 C 94.170859,324.288 93.39828,323.514348 93.39828,322.56 C 93.39828,321.605652 94.170859,320.832 95.123883,320.832 C 96.076908,320.832 96.849487,321.605652 96.849487,322.56" fill-opacity="0" stroke="red" stroke-width="1"/>
    <path d="M 96.849487,23.04 C 96.849487,23.994348 96.076908,24.768 95.123883,24.768 C 94.170859,24.768 93.39828,23.994348 93.39828,23.04 C 93.39828,22.085652 94.170859,21.312 95.123883,21.312 C 96.076908,21.312 96.849487,22.085652 96.849487,23.04" fill-opacity="0" stroke="red" stroke-width="1"/>
    <path d="M 359.213093,5.472 C 359.213093,6.426348 358.440514,7.2 357.48749,7.2 C 356.534465,7.2 355.761886,6.426348 355.761886,5.472 C 355.761886,4.517652 356.534465,3.744 357.48749,3.744 C 358.440514,3.744 359.213093,4.517652 359.213093,5.472" fill-opacity="0" stroke="red" stroke-width="1"/>
    <path d="M 315.569709,5.472 C 315.569709,6.426348 314.79713,7.2 313.844105,7.2 C 312.891081,7.2 312.118502,6.426348 312.118502,5.472 C 312.118502,4.517652 312.891081,3.744 313.844105,3.744 C 314.79713,3.744 315.569709,4.517652 315.569709,5.472" fill-opacity="0" stroke="red" stroke-width="1"/>
    <path d="M 258.624799,5.472 C 258.624799,6.426348 257.85222,7.2 256.899196,7.2 C 255.946171,7.2 255.173592,6.426348 255.173592,5.472 C 255.173592,4.517652 255.946171,3.744 256.899196,3.744 C 257.85222,3.744 258.624799,4.517652 258.624799,5.472" fill-opacity="0" stroke="red" stroke-width="1"/>
    <path d="M 220.445825,5.472 C 220.445825,6.426348 219.673246,7.2 218.720222,7.2 C 217.767198,7.2 216.994619,6.426348 216.994619,5.472 C 216.994619,4.517652 217.767198,3.744 218.720222,3.744 C 219.673246,3.744 220.445825,4.517652 220.445825,5.472" fill-opacity="0" stroke="red" stroke-width="1"/>
    <path d="M 0.0,0.0 L 414.72,0.0 L 414.72,345.6 L 0.0,345.6 L 0.0,0.0" fill-opacity="0" stroke="red" stroke-width="1"/>
  </g>
  <g transform="translate(0.0000,1497.6001) rotate(0)">
    <path d="M 0.0,345.6 L 0.0,0.0 L 0.0,0.0 L 0.0,345.6" fill-opacity="0" stroke="red" stroke-width="1"/>
    <path d="M 0.0,345.6 L 0.0,0.0 L 414.72,0.0 L 414.72,345.6 L 0.0,345.6" fill-opacity="0" stroke="red" stroke-width="1"/>
    <path d="M 0.0,345.6 L 414.72,345.6 L 414.72,345.6 L 0.0,345.6" fill-opacity="0" stroke="red" stroke-width="1"/>
    <path d="M 0.0,0.0 L 414.72,0.0 L 414.72,0.0 L 0.0,0.0" fill-opacity="0" stroke="red" stroke-width="1"/>
    <path d="M 414.72,345.6 L 414.72,0.0 L 414.72,0.0 L 414.72,345.6" fill-opacity="0" stroke="red" stroke-width="1"/>
    <path d="M 0.0,345.6 L 0.0,0.0 L 414.72,0.0 L 414.72,345.6 L 0.0,345.6" fill-opacity="0" stroke="red" stroke-width="1"/>
    <path d="M 399.764771,23.04 C 399.764771,25.584928 397.704561,27.648 395.163162,27.648 C 392.621764,27.648 390.561553,25.584928 390.561553,23.04 C 390.561553,20.495072 392.621764,18.432 395.163162,18.432 C 397.704561,18.432 399.764771,20.495072 399.764771,23.04" fill-opacity="0" stroke="red" stroke-width="1"/>
    <path d="M 399.764771,322.56 C 399.764771,325.104928 397.704561,327.168 395.163162,327.168 C 392.621764,327.168 390.561553,325.104928 390.561553,322.56 C 390.561553,320.015072 392.621764,317.952 395.163162,317.952 C 397.704561,317.952 399.764771,320.015072 399.764771,322.56" fill-opacity="0" stroke="red" stroke-width="1"/>
    <path d="M 30.485659,322.56 C 30.485659,323.514348 29.71308,324.288 28.760055,324.288 C 27.807031,324.288 27.034452,323.514348 27.034452,322.56 C 27.034452,321.605652 27.807031,320.832 28.760055,320.832 C 29.71308,320.832 30.485659,321.605652 30.485659,322.56" fill-opacity="0" stroke="red" stroke-width="1"/>
    <path d="M 30.485659,23.04 C 30.485659,23.994348 29.71308,24.768 28.760055,24.768 C 27.807031,24.768 27.034452,23.994348 27.034452,23.04 C 27.034452,22.085652 27.807031,21.312 28.760055,21.312 C 29.71308,21.312 30.485659,22.085652 30.485659,23.04" fill-opacity="0" stroke="red" stroke-width="1"/>
    <path d="M 13.373426,5.472 C 13.373426,6.426348 12.600847,7.2 11.647822,7.2 C 10.694798,7.2 9.922219,6.426348 9.922219,5.472 C 9.922219,4.517652 10.694798,3.744 11.647822,3.744 C 12.600847,3.744 13.373426,4.517652 13.373426,5.472" fill-opacity="0" stroke="red" stroke-width="1"/>
    <path d="M 13.373426,340.128 C 13.373426,341.082348 12.600847,341.856 11.647822,341.856 C 10.694798,341.856 9.922219,341.082348 9.922219,340.128 C 9.922219,339.173652 10.694798,338.4 11.647822,338.4 C 12.600847,338.4 13.373426,339.173652 13.373426,340.128" fill-opacity="0" stroke="red" stroke-width="1"/>
    <path d="M 131.073953,322.56 C 131.073953,323.514348 130.301374,324.288 129.34835,324.288 C 128.395325,324.288 127.622746,323.514348 127.622746,322.56 C 127.622746,321.605652 128.395325,320.832 129.34835,320.832 C 130.301374,320.832 131.073953,321.605652 131.073953,322.56" fill-opacity="0" stroke="red" stroke-width="1"/>
    <path d="M 131.073953,23.04 C 131.073953,23.994348 130.301374,24.768 129.34835,24.768 C 128.395325,24.768 127.622746,23.994348 127.622746,23.04 C 127.622746,22.085652 128.395325,21.312 129.34835,21.312 C 130.301374,21.312 131.073953,22.085652 131.073953,23.04" fill-opacity="0" stroke="red" stroke-width="1"/>
    <path d="M 226.197836,322.56 C 226.197836,323.514348 225.425257,324.288 224.472233,324.288 C 223.519209,324.288 222.74663,323.514348 222.74663,322.56 C 222.74663,321.605652 223.519209,320.832 224.472233,320.832 C 225.425257,320.832 226.197836,321.605652 226.197836,322.56" fill-opacity="0" stroke="red" stroke-width="1"/>
    <path d="M 226.197836,23.04 C 226.197836,23.994348 225.425257,24.768 224.472233,24.768 C 223.519209,24.768 222.74663,23.994348 222.74663,23.04 C 222.74663,22.085652 223.519209,21.312 224.472233,21.312 C 225.425257,21.312 226.197836,22.085652 226.197836,23.04" fill-opacity="0" stroke="red" stroke-width="1"/>
    <path d="M 321.32172,322.56 C 321.32172,323.514348 320.549141,324.288 319.596117,324.288 C 318.643092,324.288 317.870513,323.514348 317.870513,322.56 C 317.870513,321.605652 318.643092,320.832 319.596117,320.832 C 320.549141,320.832 321.32172,321.605652 321.32172,322.56" fill-opacity="0" stroke="red" stroke-width="1"/>
    <path d="M 321.32172,23.04 C 321.32172,23.994348 320.549141,24.768 319.596117,24.768 C 318.643092,24.768 317.870513,23.994348 317.870513,23.04 C 317.870513,22.085652 318.643092,21.312 319.596117,21.312 C 320.549141,21.312 321.32172,22.085652 321.32172,23.04" fill-opacity="0" stroke="red" stroke-width="1"/>
    <path d="M 58.958114,5.472 C 58.958114,6.426348 58.185535,7.2 57.23251,7.2 C 56.279486,7.2 55.506907,6.426348 55.506907,5.472 C 55.506907,4.517652 56.279486,3.744 57.23251,3.744 C 58.185535,3.744 58.958114,4.517652 58.958114,5.472" fill-opacity="0" stroke="red" stroke-width="1"/>
    <path d="M 102.601498,5.472 C 102.601498,6.426348 101.828919,7.2 100.875895,7.2 C 99.92287,7.2 99.150291,6.426348 99.150291,5.472 C 99.150291,4.517652 99.92287,3.744 100.875895,3.744 C 101.828919,3.744 102.601498,4.517652 102.601498,5.472" fill-opacity="0" stroke="red" stroke-width="1"/>
    <path d="M 159.546408,5.472 C 159.546408,6.426348 158.773829,7.2 157.820804,7.2 C 156.86778,7.2 156.095201,6.426348 156.095201,5.472 C 156.095201,4.517652 156.86778,3.744 157.820804,3.744 C 158.773829,3.744 159.546408,4.517652 159.546408,5.472" fill-opacity="0" stroke="red" stroke-width="1"/>
    <path d="M 197.725381,5.472 C 197.725381,6.426348 196.952802,7.2 195.999778,7.2 C 195.046754,7.2 194.274175,6.426348 194.274175,5.472 C 194.274175,4.517652 195.046754,3.744 195.999778,3.744 C 196.952802,3.744 197.725381,4.517652 197.725381,5.472" fill-opacity="0" stroke="red" stroke-width="1"/>
    <path d="M 0.0,0.0 L 414.72,0.0 L 414.72,345.6 L 0.0,345.6 L 0.0,0.0" fill-opacity="0" stroke="red" stroke-width="1"/>
  </g>
  <g transform="translate(0.0000,0.0000) rotate(0)">
    <path d="M 978.48,345.6 L 978.48,345.6 L 978.48,0.0 L 978.48,0.0 L 978.48,345.6" fill-opacity="0" stroke="red" stroke-width="1"/>
    <path d="M 0.0,345.6 L 0.0,345.6 L 0.0,0.0 L 0.0,0.0 L 0.0,345.6" fill-opacity="0" stroke="red" stroke-width="1"/>
    <path d="M 0.0,345.6 L 0.0,345.6 L 978.48,345.6 L 978.48,345.6 L 0.0,345.6" fill-opacity="0" stroke="red" stroke-width="1"/>
    <path d="M 978.48,0.0 L 978.48,0.0 L 0.0,0.0 L 0.0,0.0 L 978.48,0.0" fill-opacity="0" stroke="red" stroke-width="1"/>
    <path d="M 978.48,345.6 L 0.0,345.6 L 0.0,0.0 L 978.48,0.0 L 978.48,345.6" fill-opacity="0" stroke="red" stroke-width="1"/>
    <path d="M 0.0,345.6 L 978.48,345.6 L 978.48,0.0 L 0.0,0.0 L 0.0,345.6" fill-opacity="0" stroke="red" stroke-width="1"/>
    <path d="M 974.738753,322.56 C 974.738753,323.514348 973.96567,324.288 973.012024,324.288 C 972.058377,324.288 971.285294,323.514348 971.285294,322.56 C 971.285294,321.605652 972.058377,320.832 973.012024,320.832 C 973.96567,320.832 974.738753,321.605652 974.738753,322.56" fill-opacity="0" stroke="red" stroke-width="1"/>
    <path d="M 974.738753,23.04 C 974.738753,23.994348 973.96567,24.768 973.012024,24.768 C 972.058377,24.768 971.285294,23.994348 971.285294,23.04 C 971.285294,22.085652 972.058377,21.312 973.012024,21.312 C 973.96567,21.312 974.738753,22.085652 974.738753,23.04" fill-opacity="0" stroke="red" stroke-width="1"/>
    <path d="M 7.194706,23.04 C 7.194706,23.994348 6.421623,24.768 5.467976,24.768 C 4.51433,24.768 3.741247,23.994348 3.741247,23.04 C 3.741247,22.085652 4.51433,21.312 5.467976,21.312 C 6.421623,21.312 7.194706,22.085652 7.194706,23.04" fill-opacity="0" stroke="red" stroke-width="1"/>
    <path d="M 7.194706,322.56 C 7.194706,323.514348 6.421623,324.288 5.467976,324.288 C 4.51433,324.288 3.741247,323.514348 3.741247,322.56 C 3.741247,321.605652 4.51433,320.832 5.467976,320.832 C 6.421623,320.832 7.194706,321.605652 7.194706,322.56" fill-opacity="0" stroke="red" stroke-width="1"/>
    <path d="M 203.984301,322.56 C 203.984301,323.514348 203.211218,324.288 202.257572,324.288 C 201.303925,324.288 200.530842,323.514348 200.530842,322.56 C 200.530842,321.605652 201.303925,320.832 202.257572,320.832 C 203.211218,320.832 203.984301,321.605652 203.984301,322.56" fill-opacity="0" stroke="red" stroke-width="1"/>
    <path d="M 203.984301,23.04 C 203.984301,23.994348 203.211218,24.768 202.257572,24.768 C 201.303925,24.768 200.530842,23.994348 200.530842,23.04 C 200.530842,22.085652 201.303925,21.312 202.257572,21.312 C 203.211218,21.312 203.984301,22.085652 203.984301,23.04" fill-opacity="0" stroke="red" stroke-width="1"/>
    <path d="M 395.30592,322.56 C 395.30592,323.514348 394.532837,324.288 393.579191,324.288 C 392.625544,324.288 391.852461,323.514348 391.852461,322.56 C 391.852461,321.605652 392.625544,320.832 393.579191,320.832 C 394.532837,320.832 395.30592,321.605652 395.30592,322.56" fill-opacity="0" stroke="red" stroke-width="1"/>
    <path d="M 395.30592,23.04 C 395.30592,23.994348 394.532837,24.768 393.579191,24.768 C 392.625544,24.768 391.852461,23.994348 391.852461,23.04 C 391.852461,22.085652 392.625544,21.312 393.579191,21.312 C 394.532837,21.312 395.30592,22.085652 395.30592,23.04" fill-opacity="0" stroke="red" stroke-width="1"/>
    <path d="M 586.627539,322.56 C 586.627539,323.514348 585.854456,324.288 584.900809,324.288 C 583.947163,324.288 583.17408,323.514348 583.17408,322.56 C 583.17408,321.605652 583.947163,320.832 584.900809,320.832 C 585.854456,320.832 586.627539,321.605652 586.627539,322.56" fill-opacity="0" stroke="red" stroke-width="1"/>
    <path d="M 586.627539,23.04 C 586.627539,23.994348 585.854456,24.768 584.900809,24.768 C 583.947163,24.768 583.17408,23.994348 583.17408,23.04 C 583.17408,22.085652 583.947163,21.312 584.900809,21.312 C 585.854456,21.312 586.627539,22.085652 586.627539,23.04" fill-opacity="0" stroke="red" stroke-width="1"/>
    <path d="M 777.949158,322.56 C 777.949158,323.514348 777.176075,324.288 776.222428,324.288 C 775.268782,324.288 774.495699,323.514348 774.495699,322.56 C 774.495699,321.605652 775.268782,320.832 776.222428,320.832 C 777.176075,320.832 777.949158,321.605652 777.949158,322.56" fill-opacity="0" stroke="red" stroke-width="1"/>
    <path d="M 777.949158,23.04 C 777.949158,23.994348 777.176075,24.768 776.222428,24.768 C 775.268782,24.768 774.495699,23.994348 774.495699,23.04 C 774.495699,22.085652 775.268782,21.312 776.222428,21.312 C 777.176075,21.312 777.949158,22.085652 777.949158,23.04" fill-opacity="0" stroke="red" stroke-width="1"/>
    <path d="M 0.0,0.0 L 978.48,0.0 L 978.48,345.6 L 0.0,345.6 L 0.0,0.0" fill-opacity="0" stroke="red" stroke-width="1"/>
  </g>
  <g transform="translate(702.7201,1152.0000) rotate(0)">
    <path d="M 414.72,345.6 L 414.72,345.6 L 414.72,0.0 L 414.72,0.0 L 414.72,345.6" fill-opacity="0" stroke="red" stroke-width="1"/>
    <path d="M 414.72,345.6 L 414.72,0.0 L 0.0,0.0 L 0.0,345.6 L 414.72,345.6" fill-opacity="0" stroke="red" stroke-width="1"/>
    <path d="M 414.72,345.6 L 414.72,345.6 L 0.0,345.6 L 0.0,345.6 L 414.72,345.6" fill-opacity="0" stroke="red" stroke-width="1"/>
    <path d="M 414.72,0.0 L 414.72,0.0 L 0.0,0.0 L 0.0,0.0 L 414.72,0.0" fill-opacity="0" stroke="red" stroke-width="1"/>
    <path d="M 0.0,345.6 L 0.0,345.6 L 0.0,0.0 L 0.0,0.0 L 0.0,345.6" fill-opacity="0" stroke="red" stroke-width="1"/>
    <path d="M 414.72,345.6 L 414.72,0.0 L 0.0,0.0 L 0.0,345.6 L 414.72,345.6" fill-opacity="0" stroke="red" stroke-width="1"/>
    <path d="M 24.158447,322.56 C 24.158447,325.104928 22.098236,327.168 19.556838,327.168 C 17.015439,327.168 14.955229,325.104928 14.955229,322.56 C 14.955229,320.015072 17.015439,317.952 19.556838,317.952 C 22.098236,317.952 24.158447,320.015072 24.158447,322.56" fill-opacity="0" stroke="red" stroke-width="1"/>
    <path d="M 24.158447,23.04 C 24.158447,25.584928 22.098236,27.648 19.556838,27.648 C 17.015439,27.648 14.955229,25.584928 14.955229,23.04 C 14.955229,20.495072 17.015439,18.432 19.556838,18.432 C 22.098236,18.432 24.158447,20.495072 24.158447,23.04" fill-opacity="0" stroke="red" stroke-width="1"/>
    <path d="M 387.685548,322.56 C 387.685548,323.514348 386.912969,324.288 385.959945,324.288 C 385.00692,324.288 384.234341,323.514348 384.234341,322.56 C 384.234341,321.605652 385.00692,320.832 385.959945,320.832 C 386.912969,320.832 387.685548,321.605652 387.685548,322.56" fill-opacity="0" stroke="red" stroke-width="1"/>
    <path d="M 387.685548,23.04 C 387.685548,23.994348 386.912969,24.768 385.959945,24.768 C 385.00692,24.768 384.234341,23.994348 384.234341,23.04 C 384.234341,22.085652 385.00692,21.312 385.959945,21.312 C 386.912969,21.312 387.685548,22.085652 387.685548,23.04" fill-opacity="0" stroke="red" stroke-width="1"/>
    <path d="M 404.797781,5.472 C 404.797781,6.426348 404.025202,7.2 403.072178,7.2 C 402.119153,7.2 401.346574,6.426348 401.346574,5.472 C 401.346574,4.517652 402.119153,3.744 403.072178,3.744 C 404.025202,3.744 404.797781,4.517652 404.797781,5.472" fill-opacity="0" stroke="red" stroke-width="1"/>
    <path d="M 404.797781,340.128 C 404.797781,341.082348 404.025202,341.856 403.072178,341.856 C 402.119153,341.856 401.346574,341.082348 401.346574,340.128 C 401.346574,339.173652 402.119153,338.4 403.072178,338.4 C 404.025202,338.4 404.797781,339.173652 404.797781,340.128" fill-opacity="0" stroke="red" stroke-width="1"/>
    <path d="M 287.097254,322.56 C 287.097254,323.514348 286.324675,324.288 285.37165,324.288 C 284.418626,324.288 283.646047,323.514348 283.646047,322.56 C 283.646047,321.605652 284.418626,320.832 285.37165,320.832 C 286.324675,320.832 287.097254,321.605652 287.097254,322.56" fill-opacity="0" stroke="red" stroke-width="1"/>
    <path d="M 287.097254,23.04 C 287.097254,23.994348 286.324675,24.768 285.37165,24.768 C 284.418626,24.768 283.646047,23.994348 283.646047,23.04 C 283.646047,22.085652 284.418626,21.312 285.37165,21.312 C 286.324675,21.312 287.097254,22.085652 287.097254,23.04" fill-opacity="0" stroke="red" stroke-width="1"/>
    <path d="M 191.97337,322.56 C 191.97337,323.514348 191.200791,324.288 190.247767,324.288 C 189.294743,324.288 188.522164,323.514348 188.522164,322.56 C 188.522164,321.605652 189.294743,320.832 190.247767,320.832 C 191.200791,320.832 191.97337,321.605652 191.97337,322.56" fill-opacity="0" stroke="red" stroke-width="1"/>
    <path d="M 191.97337,23.04 C 191.97337,23.994348 191.200791,24.768 190.247767,24.768 C 189.294743,24.768 188.522164,23.994348 188.522164,23.04 C 188.522164,22.085652 189.294743,21.312 190.247767,21.312 C 191.200791,21.312 191.97337,22.085652 191.97337,23.04" fill-opacity="0" stroke="red" stroke-width="1"/>
    <path d="M 96.849487,322.56 C 96.849487,323.514348 96.076908,324.288 95.123883,324.288 C 94.170859,324.288 93.39828,323.514348 93.39828,322.56 C 93.39828,321.605652 94.170859,320.832 95.123883,320.832 C 96.076908,320.832 96.849487,321.605652 96.849487,322.56" fill-opacity="0" stroke="red" stroke-width="1"/>
    <path d="M 96.849487,23.04 C 96.849487,23.994348 96.076908,24.768 95.123883,24.768 C 94.170859,24.768 93.39828,23.994348 93.39828,23.04 C 93.39828,22.085652 94.170859,21.312 95.123883,21.312 C 96.076908,21.312 96.849487,22.085652 96.849487,23.04" fill-opacity="0" stroke="red" stroke-width="1"/>
    <path d="M 359.213093,340.128 C 359.213093,341.082348 358.440514,341.856 357.48749,341.856 C 356.534465,341.856 355.761886,341.082348 355.761886,340.128 C 355.761886,339.173652 356.534465,338.4 357.48749,338.4 C 358.440514,338.4 359.213093,339.173652 359.213093,340.128" fill-opacity="0" stroke="red" stroke-width="1"/>
    <path d="M 315.569709,340.128 C 315.569709,341.082348 314.79713,341.856 313.844105,341.856 C 312.891081,341.856 312.118502,341.082348 312.118502,340.128 C 312.118502,339.173652 312.891081,338.4 313.844105,338.4 C 314.79713,338.4 315.569709,339.173652 315.569709,340.128" fill-opacity="0" stroke="red" stroke-width="1"/>
    <path d="M 258.624799,340.128 C 258.624799,341.082348 257.85222,341.856 256.899196,341.856 C 255.946171,341.856 255.173592,341.082348 255.173592,340.128 C 255.173592,339.173652 255.946171,338.4 256.899196,338.4 C 257.85222,338.4 258.624799,339.173652 258.624799,340.128" fill-opacity="0" stroke="red" stroke-width="1"/>
    <path d="M 220.445825,340.128 C 220.445825,341.082348 219.673246,341.856 218.720222,341.856 C 217.767198,341.856 216.994619,341.082348 216.994619,340.128 C 216.994619,339.173652 217.767198,338.4 218.720222,338.4 C 219.673246,338.4 220.445825,339.173652 220.445825,340.128" fill-opacity="0" stroke="red" stroke-width="1"/>
    <path d="M 0.0,0.0 L 414.72,0.0 L 414.72,345.6 L 0.0,345.6 L 0.0,0.0" fill-opacity="0" stroke="red" stroke-width="1"/>
  </g>
  <g transform="translate(414.7201,1497.6001) rotate(0)">
    <path d="M 414.72,345.6 L 414.72,345.6 L 414.72,0.0 L 414.72,0.0 L 414.72,345.6" fill-opacity="0" stroke="red" stroke-width="1"/>
    <path d="M 414.72,345.6 L 414.72,345.6 L 0.0,345.6 L 0.0,345.6 L 414.72,345.6" fill-opacity="0" stroke="red" stroke-width="1"/>
    <path d="M 414.72,0.0 L 414.72,0.0 L 0.0,0.0 L 0.0,0.0 L 414.72,0.0" fill-opacity="0" stroke="red" stroke-width="1"/>
    <path d="M 0.0,345.6 L 0.0,345.6 L 0.0,0.0 L 0.0,0.0 L 0.0,345.6" fill-opacity="0" stroke="red" stroke-width="1"/>
    <path d="M 414.72,345.6 L 414.72,0.0 L 0.0,0.0 L 0.0,345.6 L 414.72,345.6" fill-opacity="0" stroke="red" stroke-width="1"/>
    <path d="M 387.685548,322.56 C 387.685548,323.514348 386.912969,324.288 385.959945,324.288 C 385.00692,324.288 384.234341,323.514348 384.234341,322.56 C 384.234341,321.605652 385.00692,320.832 385.959945,320.832 C 386.912969,320.832 387.685548,321.605652 387.685548,322.56" fill-opacity="0" stroke="red" stroke-width="1"/>
    <path d="M 387.685548,23.04 C 387.685548,23.994348 386.912969,24.768 385.959945,24.768 C 385.00692,24.768 384.234341,23.994348 384.234341,23.04 C 384.234341,22.085652 385.00692,21.312 385.959945,21.312 C 386.912969,21.312 387.685548,22.085652 387.685548,23.04" fill-opacity="0" stroke="red" stroke-width="1"/>
    <path d="M 404.797781,5.472 C 404.797781,6.426348 404.025202,7.2 403.072178,7.2 C 402.119153,7.2 401.346574,6.426348 401.346574,5.472 C 401.346574,4.517652 402.119153,3.744 403.072178,3.744 C 404.025202,3.744 404.797781,4.517652 404.797781,5.472" fill-opacity="0" stroke="red" stroke-width="1"/>
    <path d="M 404.797781,340.128 C 404.797781,341.082348 404.025202,341.856 403.072178,341.856 C 402.119153,341.856 401.346574,341.082348 401.346574,340.128 C 401.346574,339.173652 402.119153,338.4 403.072178,338.4 C 404.025202,338.4 404.797781,339.173652 404.797781,340.128" fill-opacity="0" stroke="red" stroke-width="1"/>
    <path d="M 287.097254,322.56 C 287.097254,323.514348 286.324675,324.288 285.37165,324.288 C 284.418626,324.288 283.646047,323.514348 283.646047,322.56 C 283.646047,321.605652 284.418626,320.832 285.37165,320.832 C 286.324675,320.832 287.097254,321.605652 287.097254,322.56" fill-opacity="0" stroke="red" stroke-width="1"/>
    <path d="M 287.097254,23.04 C 287.097254,23.994348 286.324675,24.768 285.37165,24.768 C 284.418626,24.768 283.646047,23.994348 283.646047,23.04 C 283.646047,22.085652 284.418626,21.312 285.37165,21.312 C 286.324675,21.312 287.097254,22.085652 287.097254,23.04" fill-opacity="0" stroke="red" stroke-width="1"/>
    <path d="M 191.97337,322.56 C 191.97337,323.514348 191.200791,324.288 190.247767,324.288 C 189.294743,324.288 188.522164,323.514348 188.522164,322.56 C 188.522164,321.605652 189.294743,320.832 190.247767,320.832 C 191.200791,320.832 191.97337,321.605652 191.97337,322.56" fill-opacity="0" stroke="red" stroke-width="1"/>
    <path d="M 191.97337,23.04 C 191.97337,23.994348 191.200791,24.768 190.247767,24.768 C 189.294743,24.768 188.522164,23.994348 188.522164,23.04 C 188.522164,22.085652 189.294743,21.312 190.247767,21.312 C 191.200791,21.312 191.97337,22.085652 191.97337,23.04" fill-opacity="0" stroke="red" stroke-width="1"/>
    <path d="M 96.849487,322.56 C 96.849487,323.514348 96.076908,324.288 95.123883,324.288 C 94.170859,324.288 93.39828,323.514348 93.39828,322.56 C 93.39828,321.605652 94.170859,320.832 95.123883,320.832 C 96.076908,320.832 96.849487,321.605652 96.849487,322.56" fill-opacity="0" stroke="red" stroke-width="1"/>
    <path d="M 96.849487,23.04 C 96.849487,23.994348 96.076908,24.768 95.123883,24.768 C 94.170859,24.768 93.39828,23.994348 93.39828,23.04 C 93.39828,22.085652 94.170859,21.312 95.123883,21.312 C 96.076908,21.312 96.849487,22.085652 96.849487,23.04" fill-opacity="0" stroke="red" stroke-width="1"/>
    <path d="M 359.213093,340.128 C 359.213093,341.082348 358.440514,341.856 357.48749,341.856 C 356.534465,341.856 355.761886,341.082348 355.761886,340.128 C 355.761886,339.173652 356.534465,338.4 357.48749,338.4 C 358.440514,338.4 359.213093,339.173652 359.213093,340.128" fill-opacity="0" stroke="red" stroke-width="1"/>
    <path d="M 315.569709,340.128 C 315.569709,341.082348 314.79713,341.856 313.844105,341.856 C 312.891081,341.856 312.118502,341.082348 312.118502,340.128 C 312.118502,339.173652 312.891081,338.4 313.844105,338.4 C 314.79713,338.4 315.569709,339.173652 315.569709,340.128" fill-opacity="0" stroke="red" stroke-width="1"/>
    <path d="M 258.624799,340.128 C 258.624799,341.082348 257.85222,341.856 256.899196,341.856 C 255.946171,341.856 255.173592,341.082348 255.173592,340.128 C 255.173592,339.173652 255.946171,338.4 256.899196,338.4 C 257.85222,338.4 258.624799,339.173652 258.624799,340.128" fill-opacity="0" stroke="red" stroke-width="1"/>
    <path d="M 220.445825,340.128 C 220.445825,341.082348 219.673246,341.856 218.720222,341.856 C 217.767198,341.856 216.994619,341.082348 216.994619,340.128 C 216.994619,339.173652 217.767198,338.4 218.720222,338.4 C 219.673246,338.4 220.445825,339.173652 220.445825,340.128" fill-opacity="0" stroke="red" stroke-width="1"/>
    <path d="M 414.72,345.6 L 414.72,0.0 L 0.0,0.0 L 0.0,345.6 L 414.72,345.6" fill-opacity="0" stroke="red" stroke-width="1"/>
    <path d="M 24.158447,322.56 C 24.158447,325.104928 22.098236,327.168 19.556838,327.168 C 17.015439,327.168 14.955229,325.104928 14.955229,322.56 C 14.955229,320.015072 17.015439,317.952 19.556838,317.952 C 22.098236,317.952 24.158447,320.015072 24.158447,322.56" fill-opacity="0" stroke="red" stroke-width="1"/>
    <path d="M 24.158447,23.04 C 24.158447,25.584928 22.098236,27.648 19.556838,27.648 C 17.015439,27.648 14.955229,25.584928 14.955229,23.04 C 14.955229,20.495072 17.015439,18.432 19.556838,18.432 C 22.098236,18.432 24.158447,20.495072 24.158447,23.04" fill-opacity="0" stroke="red" stroke-width="1"/>
    <path d="M 387.685548,322.56 C 387.685548,323.514348 386.912969,324.288 385.959945,324.288 C 385.00692,324.288 384.234341,323.514348 384.234341,322.56 C 384.234341,321.605652 385.00692,320.832 385.959945,320.832 C 386.912969,320.832 387.685548,321.605652 387.685548,322.56" fill-opacity="0" stroke="red" stroke-width="1"/>
    <path d="M 387.685548,23.04 C 387.685548,23.994348 386.912969,24.768 385.959945,24.768 C 385.00692,24.768 384.234341,23.994348 384.234341,23.04 C 384.234341,22.085652 385.00692,21.312 385.959945,21.312 C 386.912969,21.312 387.685548,22.085652 387.685548,23.04" fill-opacity="0" stroke="red" stroke-width="1"/>
    <path d="M 404.797781,5.472 C 404.797781,6.426348 404.025202,7.2 403.072178,7.2 C 402.119153,7.2 401.346574,6.426348 401.346574,5.472 C 401.346574,4.517652 402.119153,3.744 403.072178,3.744 C 404.025202,3.744 404.797781,4.517652 404.797781,5.472" fill-opacity="0" stroke="red" stroke-width="1"/>
    <path d="M 404.797781,340.128 C 404.797781,341.082348 404.025202,341.856 403.072178,341.856 C 402.119153,341.856 401.346574,341.082348 401.346574,340.128 C 401.346574,339.173652 402.119153,338.4 403.072178,338.4 C 404.025202,338.4 404.797781,339.173652 404.797781,340.128" fill-opacity="0" stroke="red" stroke-width="1"/>
    <path d="M 287.097254,322.56 C 287.097254,323.514348 286.324675,324.288 285.37165,324.288 C 284.418626,324.288 283.646047,323.514348 283.646047,322.56 C 283.646047,321.605652 284.418626,320.832 285.37165,320.832 C 286.324675,320.832 287.097254,321.605652 287.097254,322.56" fill-opacity="0" stroke="red" stroke-width="1"/>
    <path d="M 287.097254,23.04 C 287.097254,23.994348 286.324675,24.768 285.37165,24.768 C 284.418626,24.768 283.646047,23.994348 283.646047,23.04 C 283.646047,22.085652 284.418626,21.312 285.37165,21.312 C 286.324675,21.312 287.097254,22.085652 287.097254,23.04" fill-opacity="0" stroke="red" stroke-width="1"/>
    <path d="M 191.97337,322.56 C 191.97337,323.514348 191.200791,324.288 190.247767,324.288 C 189.294743,324.288 188.522164,323.514348 188.522164,322.56 C 188.522164,321.605652 189.294743,320.832 190.247767,320.832 C 191.200791,320.832 191.97337,321.605652 191.97337,322.56" fill-opacity="0" stroke="red" stroke-width="1"/>
    <path d="M 191.97337,23.04 C 191.97337,23.994348 191.200791,24.768 190.247767,24.768 C 189.294743,24.768 188.522164,23.994348 188.522164,23.04 C 188.522164,22.085652 189.294743,21.312 190.247767,21.312 C 191.200791,21.312 191.97337,22.085652 191.97337,23.04" fill-opacity="0" stroke="red" stroke-width="1"/>
    <path d="M 96.849487,322.56 C 96.849487,323.514348 96.076908,324.288 95.123883,324.288 C 94.170859,324.288 93.39828,323.514348 93.39828,322.56 C 93.39828,321.605652 94.170859,320.832 95.123883,320.832 C 96.076908,320.832 96.849487,321.605652 96.849487,322.56" fill-opacity="0" stroke="red" stroke-width="1"/>
    <path d="M 96.849487,23.04 C 96.849487,23.994348 96.076908,24.768 95.123883,24.768 C 94.170859,24.768 93.39828,23.994348 93.39828,23.04 C 93.39828,22.085652 94.170859,21.312 95.123883,21.312 C 96.076908,21.312 96.849487,22.085652 96.849487,23.04" fill-opacity="0" stroke="red" stroke-width="1"/>
    <path d="M 359.213093,340.128 C 359.213093,341.082348 358.440514,341.856 357.48749,341.856 C 356.534465,341.856 355.761886,341.082348 355.761886,340.128 C 355.761886,339.173652 356.534465,338.4 357.48749,338.4 C 358.440514,338.4 359.213093,339.173652 359.213093,340.128" fill-opacity="0" stroke="red" stroke-width="1"/>
    <path d="M 315.569709,340.128 C 315.569709,341.082348 314.79713,341.856 313.844105,341.856 C 312.891081,341.856 312.118502,341.082348 312.118502,340.128 C 312.118502,339.173652 312.891081,338.4 313.844105,338.4 C 314.79713,338.4 315.569709,339.173652 315.569709,340.128" fill-opacity="0" stroke="red" stroke-width="1"/>
    <path d="M 258.624799,340.128 C 258.624799,341.082348 257.85222,341.856 256.899196,341.856 C 255.946171,341.856 255.173592,341.082348 255.173592,340.128 C 255.173592,339.173652 255.946171,338.4 256.899196,338.4 C 257.85222,338.4 258.624799,339.173652 258.624799,340.128" fill-opacity="0" stroke="red" stroke-width="1"/>
    <path d="M 220.445825,340.128 C 220.445825,341.082348 219.673246,341.856 218.720222,341.856 C 217.767198,341.856 216.994619,341.082348 216.994619,340.128 C 216.994619,339.173652 217.767198,338.4 218.720222,338.4 C 219.673246,338.4 220.445825,339.173652 220.445825,340.128" fill-opacity="0" stroke="red" stroke-width="1"/>
    <path d="M 0.0,0.0 L 414.72,0.0 L 414.72,345.6 L 0.0,345.6 L 0.0,0.0" fill-opacity="0" stroke="red" stroke-width="1"/>
  </g>
  <g transform="translate(829.4402,1497.6001) rotate(0)">
    <path d="M 414.72,345.6 L 414.72,345.6 L 414.72,0.0 L 414.72,0.0 L 414.72,345.6" fill-opacity="0" stroke="red" stroke-width="1"/>
    <path d="M 414.72,345.6 L 414.72,345.6 L 0.0,345.6 L 0.0,345.6 L 414.72,345.6" fill-opacity="0" stroke="red" stroke-width="1"/>
    <path d="M 414.72,0.0 L 414.72,0.0 L 0.0,0.0 L 0.0,0.0 L 414.72,0.0" fill-opacity="0" stroke="red" stroke-width="1"/>
    <path d="M 0.0,345.6 L 0.0,345.6 L 0.0,0.0 L 0.0,0.0 L 0.0,345.6" fill-opacity="0" stroke="red" stroke-width="1"/>
    <path d="M 414.72,345.6 L 414.72,0.0 L 0.0,0.0 L 0.0,345.6 L 414.72,345.6" fill-opacity="0" stroke="red" stroke-width="1"/>
    <path d="M 387.685548,322.56 C 387.685548,323.514348 386.912969,324.288 385.959945,324.288 C 385.00692,324.288 384.234341,323.514348 384.234341,322.56 C 384.234341,321.605652 385.00692,320.832 385.959945,320.832 C 386.912969,320.832 387.685548,321.605652 387.685548,322.56" fill-opacity="0" stroke="red" stroke-width="1"/>
    <path d="M 387.685548,23.04 C 387.685548,23.994348 386.912969,24.768 385.959945,24.768 C 385.00692,24.768 384.234341,23.994348 384.234341,23.04 C 384.234341,22.085652 385.00692,21.312 385.959945,21.312 C 386.912969,21.312 387.685548,22.085652 387.685548,23.04" fill-opacity="0" stroke="red" stroke-width="1"/>
    <path d="M 404.797781,5.472 C 404.797781,6.426348 404.025202,7.2 403.072178,7.2 C 402.119153,7.2 401.346574,6.426348 401.346574,5.472 C 401.346574,4.517652 402.119153,3.744 403.072178,3.744 C 404.025202,3.744 404.797781,4.517652 404.797781,5.472" fill-opacity="0" stroke="red" stroke-width="1"/>
    <path d="M 404.797781,340.128 C 404.797781,341.082348 404.025202,341.856 403.072178,341.856 C 402.119153,341.856 401.346574,341.082348 401.346574,340.128 C 401.346574,339.173652 402.119153,338.4 403.072178,338.4 C 404.025202,338.4 404.797781,339.173652 404.797781,340.128" fill-opacity="0" stroke="red" stroke-width="1"/>
    <path d="M 287.097254,322.56 C 287.097254,323.514348 286.324675,324.288 285.37165,324.288 C 284.418626,324.288 283.646047,323.514348 283.646047,322.56 C 283.646047,321.605652 284.418626,320.832 285.37165,320.832 C 286.324675,320.832 287.097254,321.605652 287.097254,322.56" fill-opacity="0" stroke="red" stroke-width="1"/>
    <path d="M 287.097254,23.04 C 287.097254,23.994348 286.324675,24.768 285.37165,24.768 C 284.418626,24.768 283.646047,23.994348 283.646047,23.04 C 283.646047,22.085652 284.418626,21.312 285.37165,21.312 C 286.324675,21.312 287.097254,22.085652 287.097254,23.04" fill-opacity="0" stroke="red" stroke-width="1"/>
    <path d="M 191.97337,322.56 C 191.97337,323.514348 191.200791,324.288 190.247767,324.288 C 189.294743,324.288 188.522164,323.514348 188.522164,322.56 C 188.522164,321.605652 189.294743,320.832 190.247767,320.832 C 191.200791,320.832 191.97337,321.605652 191.97337,322.56" fill-opacity="0" stroke="red" stroke-width="1"/>
    <path d="M 191.97337,23.04 C 191.97337,23.994348 191.200791,24.768 190.247767,24.768 C 189.294743,24.768 188.522164,23.994348 188.522164,23.04 C 188.522164,22.085652 189.294743,21.312 190.247767,21.312 C 191.200791,21.312 191.97337,22.085652 191.97337,23.04" fill-opacity="0" stroke="red" stroke-width="1"/>
    <path d="M 96.849487,322.56 C 96.849487,323.514348 96.076908,324.288 95.123883,324.288 C 94.170859,324.288 93.39828,323.514348 93.39828,322.56 C 93.39828,321.605652 94.170859,320.832 95.123883,320.832 C 96.076908,320.832 96.849487,321.605652 96.849487,322.56" fill-opacity="0" stroke="red" stroke-width="1"/>
    <path d="M 96.849487,23.04 C 96.849487,23.994348 96.076908,24.768 95.123883,24.768 C 94.170859,24.768 93.39828,23.994348 93.39828,23.04 C 93.39828,22.085652 94.170859,21.312 95.123883,21.312 C 96.076908,21.312 96.849487,22.085652 96.849487,23.04" fill-opacity="0" stroke="red" stroke-width="1"/>
    <path d="M 359.213093,340.128 C 359.213093,341.082348 358.440514,341.856 357.48749,341.856 C 356.534465,341.856 355.761886,341.082348 355.761886,340.128 C 355.761886,339.173652 356.534465,338.4 357.48749,338.4 C 358.440514,338.4 359.213093,339.173652 359.213093,340.128" fill-opacity="0" stroke="red" stroke-width="1"/>
    <path d="M 315.569709,340.128 C 315.569709,341.082348 314.79713,341.856 313.844105,341.856 C 312.891081,341.856 312.118502,341.082348 312.118502,340.128 C 312.118502,339.173652 312.891081,338.4 313.844105,338.4 C 314.79713,338.4 315.569709,339.173652 315.569709,340.128" fill-opacity="0" stroke="red" stroke-width="1"/>
    <path d="M 258.624799,340.128 C 258.624799,341.082348 257.85222,341.856 256.899196,341.856 C 255.946171,341.856 255.173592,341.082348 255.173592,340.128 C 255.173592,339.173652 255.946171,338.4 256.899196,338.4 C 257.85222,338.4 258.624799,339.173652 258.624799,340.128" fill-opacity="0" stroke="red" stroke-width="1"/>
    <path d="M 220.445825,340.128 C 220.445825,341.082348 219.673246,341.856 218.720222,341.856 C 217.767198,341.856 216.994619,341.082348 216.994619,340.128 C 216.994619,339.173652 217.767198,338.4 218.720222,338.4 C 219.673246,338.4 220.445825,339.173652 220.445825,340.128" fill-opacity="0" stroke="red" stroke-width="1"/>
    <path d="M 414.72,345.6 L 414.72,0.0 L 0.0,0.0 L 0.0,345.6 L 414.72,345.6" fill-opacity="0" stroke="red" stroke-width="1"/>
    <path d="M 24.158447,322.56 C 24.158447,325.104928 22.098236,327.168 19.556838,327.168 C 17.015439,327.168 14.955229,325.104928 14.955229,322.56 C 14.955229,320.015072 17.015439,317.952 19.556838,317.952 C 22.098236,317.952 24.158447,320.015072 24.158447,322.56" fill-opacity="0" stroke="red" stroke-width="1"/>
    <path d="M 24.158447,23.04 C 24.158447,25.584928 22.098236,27.648 19.556838,27.648 C 17.015439,27.648 14.955229,25.584928 14.955229,23.04 C 14.955229,20.495072 17.015439,18.432 19.556838,18.432 C 22.098236,18.432 24.158447,20.495072 24.158447,23.04" fill-opacity="0" stroke="red" stroke-width="1"/>
    <path d="M 387.685548,322.56 C 387.685548,323.514348 386.912969,324.288 385.959945,324.288 C 385.00692,324.288 384.234341,323.514348 384.234341,322.56 C 384.234341,321.605652 385.00692,320.832 385.959945,320.832 C 386.912969,320.832 387.685548,321.605652 387.685548,322.56" fill-opacity="0" stroke="red" stroke-width="1"/>
    <path d="M 387.685548,23.04 C 387.685548,23.994348 386.912969,24.768 385.959945,24.768 C 385.00692,24.768 384.234341,23.994348 384.234341,23.04 C 384.234341,22.085652 385.00692,21.312 385.959945,21.312 C 386.912969,21.312 387.685548,22.085652 387.685548,23.04" fill-opacity="0" stroke="red" stroke-width="1"/>
    <path d="M 404.797781,5.472 C 404.797781,6.426348 404.025202,7.2 403.072178,7.2 C 402.119153,7.2 401.346574,6.426348 401.346574,5.472 C 401.346574,4.517652 402.119153,3.744 403.072178,3.744 C 404.025202,3.744 404.797781,4.517652 404.797781,5.472" fill-opacity="0" stroke="red" stroke-width="1"/>
    <path d="M 404.797781,340.128 C 404.797781,341.082348 404.025202,341.856 403.072178,341.856 C 402.119153,341.856 401.346574,341.082348 401.346574,340.128 C 401.346574,339.173652 402.119153,338.4 403.072178,338.4 C 404.025202,338.4 404.797781,339.173652 404.797781,340.128" fill-opacity="0" stroke="red" stroke-width="1"/>
    <path d="M 287.097254,322.56 C 287.097254,323.514348 286.324675,324.288 285.37165,324.288 C 284.418626,324.288 283.646047,323.514348 283.646047,322.56 C 283.646047,321.605652 284.418626,320.832 285.37165,320.832 C 286.324675,320.832 287.097254,321.605652 287.097254,322.56" fill-opacity="0" stroke="red" stroke-width="1"/>
    <path d="M 287.097254,23.04 C 287.097254,23.994348 286.324675,24.768 285.37165,24.768 C 284.418626,24.768 283.646047,23.994348 283.646047,23.04 C 283.646047,22.085652 284.418626,21.312 285.37165,21.312 C 286.324675,21.312 287.097254,22.085652 287.097254,23.04" fill-opacity="0" stroke="red" stroke-width="1"/>
    <path d="M 191.97337,322.56 C 191.97337,323.514348 191.200791,324.288 190.247767,324.288 C 189.294743,324.288 188.522164,323.514348 188.522164,322.56 C 188.522164,321.605652 189.294743,320.832 190.247767,320.832 C 191.200791,320.832 191.97337,321.605652 191.97337,322.56" fill-opacity="0" stroke="red" stroke-width="1"/>
    <path d="M 191.97337,23.04 C 191.97337,23.994348 191.200791,24.768 190.247767,24.768 C 189.294743,24.768 188.522164,23.994348 188.522164,23.04 C 188.522164,22.085652 189.294743,21.312 190.247767,21.312 C 191.200791,21.312 191.97337,22.085652 191.97337,23.04" fill-opacity="0" stroke="red" stroke-width="1"/>
    <path d="M 96.849487,322.56 C 96.849487,323.514348 96.076908,324.288 95.123883,324.288 C 94.170859,324.288 93.39828,323.514348 93.39828,322.56 C 93.39828,321.605652 94.170859,320.832 95.123883,320.832 C 96.076908,320.832 96.849487,321.605652 96.849487,322.56" fill-opacity="0" stroke="red" stroke-width="1"/>
    <path d="M 96.849487,23.04 C 96.849487,23.994348 96.076908,24.768 95.123883,24.768 C 94.170859,24.768 93.39828,23.994348 93.39828,23.04 C 93.39828,22.085652 94.170859,21.312 95.123883,21.312 C 96.076908,21.312 96.849487,22.085652 96.849487,23.04" fill-opacity="0" stroke="red" stroke-width="1"/>
    <path d="M 359.213093,5.472 C 359.213093,6.426348 358.440514,7.2 357.48749,7.2 C 356.534465,7.2 355.761886,6.426348 355.761886,5.472 C 355.761886,4.517652 356.534465,3.744 357.48749,3.744 C 358.440514,3.744 359.213093,4.517652 359.213093,5.472" fill-opacity="0" stroke="red" stroke-width="1"/>
    <path d="M 315.569709,5.472 C 315.569709,6.426348 314.79713,7.2 313.844105,7.2 C 312.891081,7.2 312.118502,6.426348 312.118502,5.472 C 312.118502,4.517652 312.891081,3.744 313.844105,3.744 C 314.79713,3.744 315.569709,4.517652 315.569709,5.472" fill-opacity="0" stroke="red" stroke-width="1"/>
    <path d="M 258.624799,5.472 C 258.624799,6.426348 257.85222,7.2 256.899196,7.2 C 255.946171,7.2 255.173592,6.426348 255.173592,5.472 C 255.173592,4.517652 255.946171,3.744 256.899196,3.744 C 257.85222,3.744 258.624799,4.517652 258.624799,5.472" fill-opacity="0" stroke="red" stroke-width="1"/>
    <path d="M 220.445825,5.472 C 220.445825,6.426348 219.673246,7.2 218.720222,7.2 C 217.767198,7.2 216.994619,6.426348 216.994619,5.472 C 216.994619,4.517652 217.767198,3.744 218.720222,3.744 C 219.673246,3.744 220.445825,4.517652 220.445825,5.472" fill-opacity="0" stroke="red" stroke-width="1"/>
    <path d="M 0.0,0.0 L 414.72,0.0 L 414.72,345.6 L 0.0,345.6 L 0.0,0.0" fill-opacity="0" stroke="red" stroke-width="1"/>
  </g>
  <g transform="translate(1117.4402,1152.0000) rotate(0)">
    <path d="M 414.72,345.6 L 414.72,345.6 L 414.72,0.0 L 414.72,0.0 L 414.72,345.6" fill-opacity="0" stroke="red" stroke-width="1"/>
    <path d="M 414.72,345.6 L 414.72,345.6 L 0.0,345.6 L 0.0,345.6 L 414.72,345.6" fill-opacity="0" stroke="red" stroke-width="1"/>
    <path d="M 414.72,0.0 L 414.72,0.0 L 0.0,0.0 L 0.0,0.0 L 414.72,0.0" fill-opacity="0" stroke="red" stroke-width="1"/>
    <path d="M 0.0,345.6 L 0.0,345.6 L 0.0,0.0 L 0.0,0.0 L 0.0,345.6" fill-opacity="0" stroke="red" stroke-width="1"/>
    <path d="M 414.72,345.6 L 414.72,0.0 L 0.0,0.0 L 0.0,345.6 L 414.72,345.6" fill-opacity="0" stroke="red" stroke-width="1"/>
    <path d="M 387.685548,322.56 C 387.685548,323.514348 386.912969,324.288 385.959945,324.288 C 385.00692,324.288 384.234341,323.514348 384.234341,322.56 C 384.234341,321.605652 385.00692,320.832 385.959945,320.832 C 386.912969,320.832 387.685548,321.605652 387.685548,322.56" fill-opacity="0" stroke="red" stroke-width="1"/>
    <path d="M 387.685548,23.04 C 387.685548,23.994348 386.912969,24.768 385.959945,24.768 C 385.00692,24.768 384.234341,23.994348 384.234341,23.04 C 384.234341,22.085652 385.00692,21.312 385.959945,21.312 C 386.912969,21.312 387.685548,22.085652 387.685548,23.04" fill-opacity="0" stroke="red" stroke-width="1"/>
    <path d="M 404.797781,5.472 C 404.797781,6.426348 404.025202,7.2 403.072178,7.2 C 402.119153,7.2 401.346574,6.426348 401.346574,5.472 C 401.346574,4.517652 402.119153,3.744 403.072178,3.744 C 404.025202,3.744 404.797781,4.517652 404.797781,5.472" fill-opacity="0" stroke="red" stroke-width="1"/>
    <path d="M 404.797781,340.128 C 404.797781,341.082348 404.025202,341.856 403.072178,341.856 C 402.119153,341.856 401.346574,341.082348 401.346574,340.128 C 401.346574,339.173652 402.119153,338.4 403.072178,338.4 C 404.025202,338.4 404.797781,339.173652 404.797781,340.128" fill-opacity="0" stroke="red" stroke-width="1"/>
    <path d="M 287.097254,322.56 C 287.097254,323.514348 286.324675,324.288 285.37165,324.288 C 284.418626,324.288 283.646047,323.514348 283.646047,322.56 C 283.646047,321.605652 284.418626,320.832 285.37165,320.832 C 286.324675,320.832 287.097254,321.605652 287.097254,322.56" fill-opacity="0" stroke="red" stroke-width="1"/>
    <path d="M 287.097254,23.04 C 287.097254,23.994348 286.324675,24.768 285.37165,24.768 C 284.418626,24.768 283.646047,23.994348 283.646047,23.04 C 283.646047,22.085652 284.418626,21.312 285.37165,21.312 C 286.324675,21.312 287.097254,22.085652 287.097254,23.04" fill-opacity="0" stroke="red" stroke-width="1"/>
    <path d="M 191.97337,322.56 C 191.97337,323.514348 191.200791,324.288 190.247767,324.288 C 189.294743,324.288 188.522164,323.514348 188.522164,322.56 C 188.522164,321.605652 189.294743,320.832 190.247767,320.832 C 191.200791,320.832 191.97337,321.605652 191.97337,322.56" fill-opacity="0" stroke="red" stroke-width="1"/>
    <path d="M 191.97337,23.04 C 191.97337,23.994348 191.200791,24.768 190.247767,24.768 C 189.294743,24.768 188.522164,23.994348 188.522164,23.04 C 188.522164,22.085652 189.294743,21.312 190.247767,21.312 C 191.200791,21.312 191.97337,22.085652 191.97337,23.04" fill-opacity="0" stroke="red" stroke-width="1"/>
    <path d="M 96.849487,322.56 C 96.849487,323.514348 96.076908,324.288 95.123883,324.288 C 94.170859,324.288 93.39828,323.514348 93.39828,322.56 C 93.39828,321.605652 94.170859,320.832 95.123883,320.832 C 96.076908,320.832 96.849487,321.605652 96.849487,322.56" fill-opacity="0" stroke="red" stroke-width="1"/>
    <path d="M 96.849487,23.04 C 96.849487,23.994348 96.076908,24.768 95.123883,24.768 C 94.170859,24.768 93.39828,23.994348 93.39828,23.04 C 93.39828,22.085652 94.170859,21.312 95.123883,21.312 C 96.076908,21.312 96.849487,22.085652 96.849487,23.04" fill-opacity="0" stroke="red" stroke-width="1"/>
    <path d="M 359.213093,340.128 C 359.213093,341.082348 358.440514,341.856 357.48749,341.856 C 356.534465,341.856 355.761886,341.082348 355.761886,340.128 C 355.761886,339.173652 356.534465,338.4 357.48749,338.4 C 358.440514,338.4 359.213093,339.173652 359.213093,340.128" fill-opacity="0" stroke="red" stroke-width="1"/>
    <path d="M 315.569709,340.128 C 315.569709,341.082348 314.79713,341.856 313.844105,341.856 C 312.891081,341.856 312.118502,341.082348 312.118502,340.128 C 312.118502,339.173652 312.891081,338.4 313.844105,338.4 C 314.79713,338.4 315.569709,339.173652 315.569709,340.128" fill-opacity="0" stroke="red" stroke-width="1"/>
    <path d="M 258.624799,340.128 C 258.624799,341.082348 257.85222,341.856 256.899196,341.856 C 255.946171,341.856 255.173592,341.082348 255.173592,340.128 C 255.173592,339.173652 255.946171,338.4 256.899196,338.4 C 257.85222,338.4 258.624799,339.173652 258.624799,340.128" fill-opacity="0" stroke="red" stroke-width="1"/>
    <path d="M 220.445825,340.128 C 220.445825,341.082348 219.673246,341.856 218.720222,341.856 C 217.767198,341.856 216.994619,341.082348 216.994619,340.128 C 216.994619,339.173652 217.767198,338.4 218.720222,338.4 C 219.673246,338.4 220.445825,339.173652 220.445825,340.128" fill-opacity="0" stroke="red" stroke-width="1"/>
    <path d="M 414.72,345.6 L 414.72,0.0 L 0.0,0.0 L 0.0,345.6 L 414.72,345.6" fill-opacity="0" stroke="red" stroke-width="1"/>
    <path d="M 24.158447,322.56 C 24.158447,325.104928 22.098236,327.168 19.556838,327.168 C 17.015439,327.168 14.955229,325.104928 14.955229,322.56 C 14.955229,320.015072 17.015439,317.952 19.556838,317.952 C 22.098236,317.952 24.158447,320.015072 24.158447,322.56" fill-opacity="0" stroke="red" stroke-width="1"/>
    <path d="M 24.158447,23.04 C 24.158447,25.584928 22.098236,27.648 19.556838,27.648 C 17.015439,27.648 14.955229,25.584928 14.955229,23.04 C 14.955229,20.495072 17.015439,18.432 19.556838,18.432 C 22.098236,18.432 24.158447,20.495072 24.158447,23.04" fill-opacity="0" stroke="red" stroke-width="1"/>
    <path d="M 387.685548,322.56 C 387.685548,323.514348 386.912969,324.288 385.959945,324.288 C 385.00692,324.288 384.234341,323.514348 384.234341,322.56 C 384.234341,321.605652 385.00692,320.832 385.959945,320.832 C 386.912969,320.832 387.685548,321.605652 387.685548,322.56" fill-opacity="0" stroke="red" stroke-width="1"/>
    <path d="M 387.685548,23.04 C 387.685548,23.994348 386.912969,24.768 385.959945,24.768 C 385.00692,24.768 384.234341,23.994348 384.234341,23.04 C 384.234341,22.085652 385.00692,21.312 385.959945,21.312 C 386.912969,21.312 387.685548,22.085652 387.685548,23.04" fill-opacity="0" stroke="red" stroke-width="1"/>
    <path d="M 404.797781,5.472 C 404.797781,6.426348 404.025202,7.2 403.072178,7.2 C 402.119153,7.2 401.346574,6.426348 401.346574,5.472 C 401.346574,4.517652 402.119153,3.744 403.072178,3.744 C 404.025202,3.744 404.797781,4.517652 404.797781,5.472" fill-opacity="0" stroke="red" stroke-width="1"/>
    <path d="M 404.797781,340.128 C 404.797781,341.082348 404.025202,341.856 403.072178,341.856 C 402.119153,341.856 401.346574,341.082348 401.346574,340.128 C 401.346574,339.173652 402.119153,338.4 403.072178,338.4 C 404.025202,338.4 404.797781,339.173652 404.797781,340.128" fill-opacity="0" stroke="red" stroke-width="1"/>
    <path d="M 287.097254,322.56 C 287.097254,323.514348 286.324675,324.288 285.37165,324.288 C 284.418626,324.288 283.646047,323.514348 283.646047,322.56 C 283.646047,321.605652 284.418626,320.832 285.37165,320.832 C 286.324675,320.832 287.097254,321.605652 287.097254,322.56" fill-opacity="0" stroke="red" stroke-width="1"/>
    <path d="M 287.097254,23.04 C 287.097254,23.994348 286.324675,24.768 285.37165,24.768 C 284.418626,24.768 283.646047,23.994348 283.646047,23.04 C 283.646047,22.085652 284.418626,21.312 285.37165,21.312 C 286.324675,21.312 287.097254,22.085652 287.097254,23.04" fill-opacity="0" stroke="red" stroke-width="1"/>
    <path d="M 191.97337,322.56 C 191.97337,323.514348 191.200791,324.288 190.247767,324.288 C 189.294743,324.288 188.522164,323.514348 188.522164,322.56 C 188.522164,321.605652 189.294743,320.832 190.247767,320.832 C 191.200791,320.832 191.97337,321.605652 191.97337,322.56" fill-opacity="0" stroke="red" stroke-width="1"/>
    <path d="M 191.97337,23.04 C 191.97337,23.994348 191.200791,24.768 190.247767,24.768 C 189.294743,24.768 188.522164,23.994348 188.522164,23.04 C 188.522164,22.085652 189.294743,21.312 190.247767,21.312 C 191.200791,21.312 191.97337,22.085652 191.97337,23.04" fill-opacity="0" stroke="red" stroke-width="1"/>
    <path d="M 96.849487,322.56 C 96.849487,323.514348 96.076908,324.288 95.123883,324.288 C 94.170859,324.288 93.39828,323.514348 93.39828,322.56 C 93.39828,321.605652 94.170859,320.832 95.123883,320.832 C 96.076908,320.832 96.849487,321.605652 96.849487,322.56" fill-opacity="0" stroke="red" stroke-width="1"/>
    <path d="M 96.849487,23.04 C 96.849487,23.994348 96.076908,24.768 95.123883,24.768 C 94.170859,24.768 93.39828,23.994348 93.39828,23.04 C 93.39828,22.085652 94.170859,21.312 95.123883,21.312 C 96.076908,21.312 96.849487,22.085652 96.849487,23.04" fill-opacity="0" stroke="red" stroke-width="1"/>
    <path d="M 359.213093,340.128 C 359.213093,341.082348 358.440514,341.856 357.48749,341.856 C 356.534465,341.856 355.761886,341.082348 355.761886,340.128 C 355.761886,339.173652 356.534465,338.4 357.48749,338.4 C 358.440514,338.4 359.213093,339.173652 359.213093,340.128" fill-opacity="0" stroke="red" stroke-width="1"/>
    <path d="M 315.569709,340.128 C 315.569709,341.082348 314.79713,341.856 313.844105,341.856 C 312.891081,341.856 312.118502,341.082348 312.118502,340.128 C 312.118502,339.173652 312.891081,338.4 313.844105,338.4 C 314.79713,338.4 315.569709,339.173652 315.569709,340.128" fill-opacity="0" stroke="red" stroke-width="1"/>
    <path d="M 258.624799,340.128 C 258.624799,341.082348 257.85222,341.856 256.899196,341.856 C 255.946171,341.856 255.173592,341.082348 255.173592,340.128 C 255.173592,339.173652 255.946171,338.4 256.899196,338.4 C 257.85222,338.4 258.624799,339.173652 258.624799,340.128" fill-opacity="0" stroke="red" stroke-width="1"/>
    <path d="M 220.445825,340.128 C 220.445825,341.082348 219.673246,341.856 218.720222,341.856 C 217.767198,341.856 216.994619,341.082348 216.994619,340.128 C 216.994619,339.173652 217.767198,338.4 218.720222,338.4 C 219.673246,338.4 220.445825,339.173652 220.445825,340.128" fill-opacity="0" stroke="red" stroke-width="1"/>
    <path d="M 0.0,0.0 L 414.72,0.0 L 414.72,345.6 L 0.0,345.6 L 0.0,0.0" fill-opacity="0" stroke="red" stroke-width="1"/>
  </g>
  <g transform="translate(576.0000,345.6001) rotate(0)">
    <path d="M 0.0,534.96 L 0.0,534.96 L 288.0,534.96 L 288.0,534.96 L 0.0,534.96" fill-opacity="0" stroke="red" stroke-width="1"/>
    <path d="M 0.0,0.0 L 0.0,0.0 L 288.0,0.0 L 288.0,0.0 L 0.0,0.0" fill-opacity="0" stroke="red" stroke-width="1"/>
    <path d="M 0.0,534.96 L 0.0,534.96 L 0.0,0.0 L 0.0,0.0 L 0.0,534.96" fill-opacity="0" stroke="red" stroke-width="1"/>
    <path d="M 288.0,534.96 L 288.0,534.96 L 288.0,0.0 L 288.0,0.0 L 288.0,534.96" fill-opacity="0" stroke="red" stroke-width="1"/>
    <path d="M 0.0,534.96 L 0.0,0.0 L 288.0,0.0 L 288.0,534.96 L 0.0,534.96" fill-opacity="0" stroke="red" stroke-width="1"/>
    <path d="M 38.352431,8.4702 C 38.352431,9.947451 37.154457,11.145 35.67668,11.145 C 34.198904,11.145 33.000929,9.947451 33.000929,8.4702 C 33.000929,6.992949 34.198904,5.7954 35.67668,5.7954 C 37.154457,5.7954 38.352431,6.992949 38.352431,8.4702" fill-opacity="0" stroke="red" stroke-width="1"/>
    <path d="M 254.999071,8.4702 C 254.999071,9.947451 253.801096,11.145 252.32332,11.145 C 250.845543,11.145 249.647569,9.947451 249.647569,8.4702 C 249.647569,6.992949 250.845543,5.7954 252.32332,5.7954 C 253.801096,5.7954 254.999071,6.992949 254.999071,8.4702" fill-opacity="0" stroke="red" stroke-width="1"/>
    <path d="M 0.0,534.96 L 0.0,0.0 L 288.0,0.0 L 288.0,534.96 L 0.0,534.96" fill-opacity="0" stroke="red" stroke-width="1"/>
    <path d="M 38.352431,8.4702 C 38.352431,9.947451 37.154457,11.145 35.67668,11.145 C 34.198904,11.145 33.000929,9.947451 33.000929,8.4702 C 33.000929,6.992949 34.198904,5.7954 35.67668,5.7954 C 37.154457,5.7954 38.352431,6.992949 38.352431,8.4702" fill-opacity="0" stroke="red" stroke-width="1"/>
    <path d="M 254.999071,8.4702 C 254.999071,9.947451 253.801096,11.145 252.32332,11.145 C 250.845543,11.145 249.647569,9.947451 249.647569,8.4702 C 249.647569,6.992949 250.845543,5.7954 252.32332,5.7954 C 253.801096,5.7954 254.999071,6.992949 254.999071,8.4702" fill-opacity="0" stroke="red" stroke-width="1"/>
    <path d="M 254.999071,526.4898 C 254.999071,527.967051 253.801096,529.1646 252.32332,529.1646 C 250.845543,529.1646 249.647569,527.967051 249.647569,526.4898 C 249.647569,525.012549 250.845543,523.815 252.32332,523.815 C 253.801096,523.815 254.999071,525.012549 254.999071,526.4898" fill-opacity="0" stroke="red" stroke-width="1"/>
    <path d="M 38.352431,526.4898 C 38.352431,527.967051 37.154457,529.1646 35.67668,529.1646 C 34.198904,529.1646 33.000929,527.967051 33.000929,526.4898 C 33.000929,525.012549 34.198904,523.815 35.67668,523.815 C 37.154457,523.815 38.352431,525.012549 38.352431,526.4898" fill-opacity="0" stroke="red" stroke-width="1"/>
    <path d="M 0.0,0.0 L 288.0,0.0 L 288.0,534.96 L 0.0,534.96 L 0.0,0.0" fill-opacity="0" stroke="red" stroke-width="1"/>
  </g>
  <g transform="translate(978.4801,0.0000) rotate(0)">
    <path d="M 71.754723,0.0 L 71.754723,1152.0 L 71.754723,1152.0 L 71.754723,0.0" fill-opacity="0" stroke="red" stroke-width="1"/>
    <path d="M 71.754723,0.0 L 71.754723,1152.0 L 216.245277,1152.0 L 216.245277,0.0 L 71.754723,0.0" fill-opacity="0" stroke="red" stroke-width="1"/>
    <path d="M 71.754723,0.0 L 216.245277,0.0 L 216.245277,0.0 L 71.754723,0.0" fill-opacity="0" stroke="red" stroke-width="1"/>
    <path d="M 71.754723,1152.0 L 216.245277,1152.0 L 216.245277,1152.0 L 71.754723,1152.0" fill-opacity="0" stroke="red" stroke-width="1"/>
    <path d="M 216.245277,0.0 L 216.245277,1152.0 L 216.245277,1152.0 L 216.245277,0.0" fill-opacity="0" stroke="red" stroke-width="1"/>
    <path d="M 71.754723,0.0 L 71.754723,1152.0 L 216.245277,1152.0 L 216.245277,0.0 L 71.754723,0.0" fill-opacity="0" stroke="red" stroke-width="1"/>
    <path d="M 0.0,0.0 L 288.0,0.0 L 288.0,1152.0 L 0.0,1152.0 L 0.0,0.0" fill-opacity="0" stroke="red" stroke-width="1"/>
  </g>
  <g transform="translate(0.0000,345.6001) rotate(0)">
    <path d="M 216.245277,0.0 L 216.245277,0.0 L 216.245277,1152.0 L 216.245277,1152.0 L 216.245277,0.0" fill-opacity="0" stroke="red" stroke-width="1"/>
    <path d="M 216.245277,0.0 L 216.245277,1152.0 L 71.754723,1152.0 L 71.754723,0.0 L 216.245277,0.0" fill-opacity="0" stroke="red" stroke-width="1"/>
    <path d="M 216.245277,0.0 L 216.245277,0.0 L 71.754723,0.0 L 71.754723,0.0 L 216.245277,0.0" fill-opacity="0" stroke="red" stroke-width="1"/>
    <path d="M 216.245277,1152.0 L 216.245277,1152.0 L 71.754723,1152.0 L 71.754723,1152.0 L 216.245277,1152.0" fill-opacity="0" stroke="red" stroke-width="1"/>
    <path d="M 71.754723,0.0 L 71.754723,0.0 L 71.754723,1152.0 L 71.754723,1152.0 L 71.754723,0.0" fill-opacity="0" stroke="red" stroke-width="1"/>
    <path d="M 216.245277,0.0 L 216.245277,1152.0 L 71.754723,1152.0 L 71.754723,0.0 L 216.245277,0.0" fill-opacity="0" stroke="red" stroke-width="1"/>
    <path d="M 0.0,0.0 L 288.0,0.0 L 288.0,1152.0 L 0.0,1152.0 L 0.0,0.0" fill-opacity="0" stroke="red" stroke-width="1"/>
  </g>
</svg>
