<?xml version="1.0" encoding="utf-8" ?>
<svg xmlns="http://www.w3.org/2000/svg" xmlns:ev="http://www.w3.org/2001/xml-events" xmlns:xlink="http://www.w3.org/1999/xlink" baseProfile="tiny" height="2000mm" version="1.2" viewBox="0 0 2800 2000" width="2800mm">
  <defs/>
  <g transform="translate(433.4407,0.0000) rotate(0)">
    <path d="M 0.0,43.006008 L 0.0,43.006008 L 23.04,43.006008 L 23.04,43.006008 L 0.0,43.006008" fill-opacity="0" stroke="red" stroke-width="1"/>
    <path d="M 0.0,0.193992 L 0.0,0.193992 L 23.04,0.193992 L 23.04,0.193992 L 0.0,0.193992" fill-opacity="0" stroke="red" stroke-width="1"/>
    <path d="M 0.0,43.006008 L 0.0,43.006008 L 0.0,0.193992 L 0.0,0.193992 L 0.0,43.006008" fill-opacity="0" stroke="red" stroke-width="1"/>
    <path d="M 23.04,43.006008 L 23.04,43.006008 L 23.04,0.193992 L 23.04,0.193992 L 23.04,43.006008" fill-opacity="0" stroke="red" stroke-width="1"/>
    <path d="M 0.0,43.006008 L 0.0,0.193992 L 23.04,0.193992 L 23.04,43.006008 L 0.0,43.006008" fill-opacity="0" stroke="red" stroke-width="1"/>
    <path d="M 3.068194,0.871849 C 3.068194,0.990071 2.972357,1.085909 2.854134,1.085909 C 2.735912,1.085909 2.640074,0.990071 2.640074,0.871849 C 2.640074,0.753627 2.735912,0.657789 2.854134,0.657789 C 2.972357,0.657789 3.068194,0.753627 3.068194,0.871849" fill-opacity="0" stroke="red" stroke-width="1"/>
    <path d="M 20.399926,0.871849 C 20.399926,0.990071 20.304088,1.085909 20.185866,1.085909 C 20.067643,1.085909 19.971806,0.990071 19.971806,0.871849 C 19.971806,0.753627 20.067643,0.657789 20.185866,0.657789 C 20.304088,0.657789 20.399926,0.753627 20.399926,0.871849" fill-opacity="0" stroke="red" stroke-width="1"/>
    <path d="M 0.0,43.006008 L 0.0,0.193992 L 23.04,0.193992 L 23.04,43.006008 L 0.0,43.006008" fill-opacity="0" stroke="red" stroke-width="1"/>
    <path d="M 3.068194,0.871849 C 3.068194,0.990071 2.972357,1.085909 2.854134,1.085909 C 2.735912,1.085909 2.640074,0.990071 2.640074,0.871849 C 2.640074,0.753627 2.735912,0.657789 2.854134,0.657789 C 2.972357,0.657789 3.068194,0.753627 3.068194,0.871849" fill-opacity="0" stroke="red" stroke-width="1"/>
    <path d="M 20.399926,0.871849 C 20.399926,0.990071 20.304088,1.085909 20.185866,1.085909 C 20.067643,1.085909 19.971806,0.990071 19.971806,0.871849 C 19.971806,0.753627 20.067643,0.657789 20.185866,0.657789 C 20.304088,0.657789 20.399926,0.753627 20.399926,0.871849" fill-opacity="0" stroke="red" stroke-width="1"/>
    <path d="M 0.0,0.0 L 23.04,0.0 L 23.04,43.2 L 0.0,43.2 L 0.0,0.0" fill-opacity="0" stroke="red" stroke-width="1"/>
  </g>
  <g transform="translate(122.4001,0.0000) rotate(0)">
    <path d="M 51.84,43.2 L 51.84,43.2 L 51.84,0.0 L 51.84,0.0 L 51.84,43.2" fill-opacity="0" stroke="red" stroke-width="1"/>
    <path d="M 51.84,43.2 L 51.84,43.2 L 0.0,43.2 L 0.0,43.2 L 51.84,43.2" fill-opacity="0" stroke="red" stroke-width="1"/>
    <path d="M 51.84,0.0 L 51.84,0.0 L 0.0,0.0 L 0.0,0.0 L 51.84,0.0" fill-opacity="0" stroke="red" stroke-width="1"/>
    <path d="M 0.0,43.2 L 0.0,43.2 L 0.0,0.0 L 0.0,0.0 L 0.0,43.2" fill-opacity="0" stroke="red" stroke-width="1"/>
    <path d="M 51.84,43.2 L 51.84,0.0 L 0.0,0.0 L 0.0,43.2 L 51.84,43.2" fill-opacity="0" stroke="red" stroke-width="1"/>
    <path d="M 48.460693,40.32 C 48.460693,40.439294 48.364121,40.536 48.244993,40.536 C 48.125865,40.536 48.029293,40.439294 48.029293,40.32 C 48.029293,40.200706 48.125865,40.104 48.244993,40.104 C 48.364121,40.104 48.460693,40.200706 48.460693,40.32" fill-opacity="0" stroke="red" stroke-width="1"/>
    <path d="M 48.460693,2.88 C 48.460693,2.999294 48.364121,3.096 48.244993,3.096 C 48.125865,3.096 48.029293,2.999294 48.029293,2.88 C 48.029293,2.760706 48.125865,2.664 48.244993,2.664 C 48.364121,2.664 48.460693,2.760706 48.460693,2.88" fill-opacity="0" stroke="red" stroke-width="1"/>
    <path d="M 50.599723,0.684 C 50.599723,0.803294 50.50315,0.9 50.384022,0.9 C 50.264894,0.9 50.168322,0.803294 50.168322,0.684 C 50.168322,0.564706 50.264894,0.468 50.384022,0.468 C 50.50315,0.468 50.599723,0.564706 50.599723,0.684" fill-opacity="0" stroke="red" stroke-width="1"/>
    <path d="M 50.599723,42.516 C 50.599723,42.635294 50.50315,42.732 50.384022,42.732 C 50.264894,42.732 50.168322,42.635294 50.168322,42.516 C 50.168322,42.396706 50.264894,42.3 50.384022,42.3 C 50.50315,42.3 50.599723,42.396706 50.599723,42.516" fill-opacity="0" stroke="red" stroke-width="1"/>
    <path d="M 35.887157,40.32 C 35.887157,40.439294 35.790584,40.536 35.671456,40.536 C 35.552328,40.536 35.455756,40.439294 35.455756,40.32 C 35.455756,40.200706 35.552328,40.104 35.671456,40.104 C 35.790584,40.104 35.887157,40.200706 35.887157,40.32" fill-opacity="0" stroke="red" stroke-width="1"/>
    <path d="M 35.887157,2.88 C 35.887157,2.999294 35.790584,3.096 35.671456,3.096 C 35.552328,3.096 35.455756,2.999294 35.455756,2.88 C 35.455756,2.760706 35.552328,2.664 35.671456,2.664 C 35.790584,2.664 35.887157,2.760706 35.887157,2.88" fill-opacity="0" stroke="red" stroke-width="1"/>
    <path d="M 23.996671,40.32 C 23.996671,40.439294 23.900099,40.536 23.780971,40.536 C 23.661843,40.536 23.56527,40.439294 23.56527,40.32 C 23.56527,40.200706 23.661843,40.104 23.780971,40.104 C 23.900099,40.104 23.996671,40.200706 23.996671,40.32" fill-opacity="0" stroke="red" stroke-width="1"/>
    <path d="M 23.996671,2.88 C 23.996671,2.999294 23.900099,3.096 23.780971,3.096 C 23.661843,3.096 23.56527,2.999294 23.56527,2.88 C 23.56527,2.760706 23.661843,2.664 23.780971,2.664 C 23.900099,2.664 23.996671,2.760706 23.996671,2.88" fill-opacity="0" stroke="red" stroke-width="1"/>
    <path d="M 12.106186,40.32 C 12.106186,40.439294 12.009613,40.536 11.890485,40.536 C 11.771357,40.536 11.674785,40.439294 11.674785,40.32 C 11.674785,40.200706 11.771357,40.104 11.890485,40.104 C 12.009613,40.104 12.106186,40.200706 12.106186,40.32" fill-opacity="0" stroke="red" stroke-width="1"/>
    <path d="M 12.106186,2.88 C 12.106186,2.999294 12.009613,3.096 11.890485,3.096 C 11.771357,3.096 11.674785,2.999294 11.674785,2.88 C 11.674785,2.760706 11.771357,2.664 11.890485,2.664 C 12.009613,2.664 12.106186,2.760706 12.106186,2.88" fill-opacity="0" stroke="red" stroke-width="1"/>
    <path d="M 44.901637,0.684 C 44.901637,0.803294 44.805064,0.9 44.685936,0.9 C 44.566808,0.9 44.470236,0.803294 44.470236,0.684 C 44.470236,0.564706 44.566808,0.468 44.685936,0.468 C 44.805064,0.468 44.901637,0.564706 44.901637,0.684" fill-opacity="0" stroke="red" stroke-width="1"/>
    <path d="M 39.446214,0.684 C 39.446214,0.803294 39.349641,0.9 39.230513,0.9 C 39.111385,0.9 39.014813,0.803294 39.014813,0.684 C 39.014813,0.564706 39.111385,0.468 39.230513,0.468 C 39.349641,0.468 39.446214,0.564706 39.446214,0.684" fill-opacity="0" stroke="red" stroke-width="1"/>
    <path d="M 32.3281,0.684 C 32.3281,0.803294 32.231527,0.9 32.112399,0.9 C 31.993271,0.9 31.896699,0.803294 31.896699,0.684 C 31.896699,0.564706 31.993271,0.468 32.112399,0.468 C 32.231527,0.468 32.3281,0.564706 32.3281,0.684" fill-opacity="0" stroke="red" stroke-width="1"/>
    <path d="M 27.555728,0.684 C 27.555728,0.803294 27.459156,0.9 27.340028,0.9 C 27.2209,0.9 27.124327,0.803294 27.124327,0.684 C 27.124327,0.564706 27.2209,0.468 27.340028,0.468 C 27.459156,0.468 27.555728,0.564706 27.555728,0.684" fill-opacity="0" stroke="red" stroke-width="1"/>
    <path d="M 51.84,43.2 L 51.84,0.0 L 0.0,0.0 L 0.0,43.2 L 51.84,43.2" fill-opacity="0" stroke="red" stroke-width="1"/>
    <path d="M 3.019806,40.32 C 3.019806,40.638116 2.76228,40.896 2.444605,40.896 C 2.12693,40.896 1.869404,40.638116 1.869404,40.32 C 1.869404,40.001884 2.12693,39.744 2.444605,39.744 C 2.76228,39.744 3.019806,40.001884 3.019806,40.32" fill-opacity="0" stroke="red" stroke-width="1"/>
    <path d="M 3.019806,2.88 C 3.019806,3.198116 2.76228,3.456 2.444605,3.456 C 2.12693,3.456 1.869404,3.198116 1.869404,2.88 C 1.869404,2.561884 2.12693,2.304 2.444605,2.304 C 2.76228,2.304 3.019806,2.561884 3.019806,2.88" fill-opacity="0" stroke="red" stroke-width="1"/>
    <path d="M 48.460693,40.32 C 48.460693,40.439294 48.364121,40.536 48.244993,40.536 C 48.125865,40.536 48.029293,40.439294 48.029293,40.32 C 48.029293,40.200706 48.125865,40.104 48.244993,40.104 C 48.364121,40.104 48.460693,40.200706 48.460693,40.32" fill-opacity="0" stroke="red" stroke-width="1"/>
    <path d="M 48.460693,2.88 C 48.460693,2.999294 48.364121,3.096 48.244993,3.096 C 48.125865,3.096 48.029293,2.999294 48.029293,2.88 C 48.029293,2.760706 48.125865,2.664 48.244993,2.664 C 48.364121,2.664 48.460693,2.760706 48.460693,2.88" fill-opacity="0" stroke="red" stroke-width="1"/>
    <path d="M 50.599723,0.684 C 50.599723,0.803294 50.50315,0.9 50.384022,0.9 C 50.264894,0.9 50.168322,0.803294 50.168322,0.684 C 50.168322,0.564706 50.264894,0.468 50.384022,0.468 C 50.50315,0.468 50.599723,0.564706 50.599723,0.684" fill-opacity="0" stroke="red" stroke-width="1"/>
    <path d="M 50.599723,42.516 C 50.599723,42.635294 50.50315,42.732 50.384022,42.732 C 50.264894,42.732 50.168322,42.635294 50.168322,42.516 C 50.168322,42.396706 50.264894,42.3 50.384022,42.3 C 50.50315,42.3 50.599723,42.396706 50.599723,42.516" fill-opacity="0" stroke="red" stroke-width="1"/>
    <path d="M 35.887157,40.32 C 35.887157,40.439294 35.790584,40.536 35.671456,40.536 C 35.552328,40.536 35.455756,40.439294 35.455756,40.32 C 35.455756,40.200706 35.552328,40.104 35.671456,40.104 C 35.790584,40.104 35.887157,40.200706 35.887157,40.32" fill-opacity="0" stroke="red" stroke-width="1"/>
    <path d="M 35.887157,2.88 C 35.887157,2.999294 35.790584,3.096 35.671456,3.096 C 35.552328,3.096 35.455756,2.999294 35.455756,2.88 C 35.455756,2.760706 35.552328,2.664 35.671456,2.664 C 35.790584,2.664 35.887157,2.760706 35.887157,2.88" fill-opacity="0" stroke="red" stroke-width="1"/>
    <path d="M 23.996671,40.32 C 23.996671,40.439294 23.900099,40.536 23.780971,40.536 C 23.661843,40.536 23.56527,40.439294 23.56527,40.32 C 23.56527,40.200706 23.661843,40.104 23.780971,40.104 C 23.900099,40.104 23.996671,40.200706 23.996671,40.32" fill-opacity="0" stroke="red" stroke-width="1"/>
    <path d="M 23.996671,2.88 C 23.996671,2.999294 23.900099,3.096 23.780971,3.096 C 23.661843,3.096 23.56527,2.999294 23.56527,2.88 C 23.56527,2.760706 23.661843,2.664 23.780971,2.664 C 23.900099,2.664 23.996671,2.760706 23.996671,2.88" fill-opacity="0" stroke="red" stroke-width="1"/>
    <path d="M 12.106186,40.32 C 12.106186,40.439294 12.009613,40.536 11.890485,40.536 C 11.771357,40.536 11.674785,40.439294 11.674785,40.32 C 11.674785,40.200706 11.771357,40.104 11.890485,40.104 C 12.009613,40.104 12.106186,40.200706 12.106186,40.32" fill-opacity="0" stroke="red" stroke-width="1"/>
    <path d="M 12.106186,2.88 C 12.106186,2.999294 12.009613,3.096 11.890485,3.096 C 11.771357,3.096 11.674785,2.999294 11.674785,2.88 C 11.674785,2.760706 11.771357,2.664 11.890485,2.664 C 12.009613,2.664 12.106186,2.760706 12.106186,2.88" fill-opacity="0" stroke="red" stroke-width="1"/>
    <path d="M 44.901637,0.684 C 44.901637,0.803294 44.805064,0.9 44.685936,0.9 C 44.566808,0.9 44.470236,0.803294 44.470236,0.684 C 44.470236,0.564706 44.566808,0.468 44.685936,0.468 C 44.805064,0.468 44.901637,0.564706 44.901637,0.684" fill-opacity="0" stroke="red" stroke-width="1"/>
    <path d="M 39.446214,0.684 C 39.446214,0.803294 39.349641,0.9 39.230513,0.9 C 39.111385,0.9 39.014813,0.803294 39.014813,0.684 C 39.014813,0.564706 39.111385,0.468 39.230513,0.468 C 39.349641,0.468 39.446214,0.564706 39.446214,0.684" fill-opacity="0" stroke="red" stroke-width="1"/>
    <path d="M 32.3281,0.684 C 32.3281,0.803294 32.231527,0.9 32.112399,0.9 C 31.993271,0.9 31.896699,0.803294 31.896699,0.684 C 31.896699,0.564706 31.993271,0.468 32.112399,0.468 C 32.231527,0.468 32.3281,0.564706 32.3281,0.684" fill-opacity="0" stroke="red" stroke-width="1"/>
    <path d="M 27.555728,0.684 C 27.555728,0.803294 27.459156,0.9 27.340028,0.9 C 27.2209,0.9 27.124327,0.803294 27.124327,0.684 C 27.124327,0.564706 27.2209,0.468 27.340028,0.468 C 27.459156,0.468 27.555728,0.564706 27.555728,0.684" fill-opacity="0" stroke="red" stroke-width="1"/>
    <path d="M 0.0,0.0 L 51.84,0.0 L 51.84,43.2 L 0.0,43.2 L 0.0,0.0" fill-opacity="0" stroke="red" stroke-width="1"/>
  </g>
  <g transform="translate(174.2402,0.0000) rotate(0)">
    <path d="M 0.0,43.2 L 0.0,0.0 L 0.0,0.0 L 0.0,43.2" fill-opacity="0" stroke="red" stroke-width="1"/>
    <path d="M 0.0,43.2 L 0.0,0.0 L 51.84,0.0 L 51.84,43.2 L 0.0,43.2" fill-opacity="0" stroke="red" stroke-width="1"/>
    <path d="M 0.0,43.2 L 51.84,43.2 L 51.84,43.2 L 0.0,43.2" fill-opacity="0" stroke="red" stroke-width="1"/>
    <path d="M 0.0,0.0 L 51.84,0.0 L 51.84,0.0 L 0.0,0.0" fill-opacity="0" stroke="red" stroke-width="1"/>
    <path d="M 51.84,43.2 L 51.84,0.0 L 51.84,0.0 L 51.84,43.2" fill-opacity="0" stroke="red" stroke-width="1"/>
    <path d="M 0.0,43.2 L 0.0,0.0 L 51.84,0.0 L 51.84,43.2 L 0.0,43.2" fill-opacity="0" stroke="red" stroke-width="1"/>
    <path d="M 49.970596,2.88 C 49.970596,3.198116 49.71307,3.456 49.395395,3.456 C 49.07772,3.456 48.820194,3.198116 48.820194,2.88 C 48.820194,2.561884 49.07772,2.304 49.395395,2.304 C 49.71307,2.304 49.970596,2.561884 49.970596,2.88" fill-opacity="0" stroke="red" stroke-width="1"/>
    <path d="M 49.970596,40.32 C 49.970596,40.638116 49.71307,40.896 49.395395,40.896 C 49.07772,40.896 48.820194,40.638116 48.820194,40.32 C 48.820194,40.001884 49.07772,39.744 49.395395,39.744 C 49.71307,39.744 49.970596,40.001884 49.970596,40.32" fill-opacity="0" stroke="red" stroke-width="1"/>
    <path d="M 3.810707,40.32 C 3.810707,40.439294 3.714135,40.536 3.595007,40.536 C 3.475879,40.536 3.379307,40.439294 3.379307,40.32 C 3.379307,40.200706 3.475879,40.104 3.595007,40.104 C 3.714135,40.104 3.810707,40.200706 3.810707,40.32" fill-opacity="0" stroke="red" stroke-width="1"/>
    <path d="M 3.810707,2.88 C 3.810707,2.999294 3.714135,3.096 3.595007,3.096 C 3.475879,3.096 3.379307,2.999294 3.379307,2.88 C 3.379307,2.760706 3.475879,2.664 3.595007,2.664 C 3.714135,2.664 3.810707,2.760706 3.810707,2.88" fill-opacity="0" stroke="red" stroke-width="1"/>
    <path d="M 1.671678,0.684 C 1.671678,0.803294 1.575106,0.9 1.455978,0.9 C 1.33685,0.9 1.240277,0.803294 1.240277,0.684 C 1.240277,0.564706 1.33685,0.468 1.455978,0.468 C 1.575106,0.468 1.671678,0.564706 1.671678,0.684" fill-opacity="0" stroke="red" stroke-width="1"/>
    <path d="M 1.671678,42.516 C 1.671678,42.635294 1.575106,42.732 1.455978,42.732 C 1.33685,42.732 1.240277,42.635294 1.240277,42.516 C 1.240277,42.396706 1.33685,42.3 1.455978,42.3 C 1.575106,42.3 1.671678,42.396706 1.671678,42.516" fill-opacity="0" stroke="red" stroke-width="1"/>
    <path d="M 16.384244,40.32 C 16.384244,40.439294 16.287672,40.536 16.168544,40.536 C 16.049416,40.536 15.952843,40.439294 15.952843,40.32 C 15.952843,40.200706 16.049416,40.104 16.168544,40.104 C 16.287672,40.104 16.384244,40.200706 16.384244,40.32" fill-opacity="0" stroke="red" stroke-width="1"/>
    <path d="M 16.384244,2.88 C 16.384244,2.999294 16.287672,3.096 16.168544,3.096 C 16.049416,3.096 15.952843,2.999294 15.952843,2.88 C 15.952843,2.760706 16.049416,2.664 16.168544,2.664 C 16.287672,2.664 16.384244,2.760706 16.384244,2.88" fill-opacity="0" stroke="red" stroke-width="1"/>
    <path d="M 28.27473,40.32 C 28.27473,40.439294 28.178157,40.536 28.059029,40.536 C 27.939901,40.536 27.843329,40.439294 27.843329,40.32 C 27.843329,40.200706 27.939901,40.104 28.059029,40.104 C 28.178157,40.104 28.27473,40.200706 28.27473,40.32" fill-opacity="0" stroke="red" stroke-width="1"/>
    <path d="M 28.27473,2.88 C 28.27473,2.999294 28.178157,3.096 28.059029,3.096 C 27.939901,3.096 27.843329,2.999294 27.843329,2.88 C 27.843329,2.760706 27.939901,2.664 28.059029,2.664 C 28.178157,2.664 28.27473,2.760706 28.27473,2.88" fill-opacity="0" stroke="red" stroke-width="1"/>
    <path d="M 40.165215,40.32 C 40.165215,40.439294 40.068643,40.536 39.949515,40.536 C 39.830387,40.536 39.733814,40.439294 39.733814,40.32 C 39.733814,40.200706 39.830387,40.104 39.949515,40.104 C 40.068643,40.104 40.165215,40.200706 40.165215,40.32" fill-opacity="0" stroke="red" stroke-width="1"/>
    <path d="M 40.165215,2.88 C 40.165215,2.999294 40.068643,3.096 39.949515,3.096 C 39.830387,3.096 39.733814,2.999294 39.733814,2.88 C 39.733814,2.760706 39.830387,2.664 39.949515,2.664 C 40.068643,2.664 40.165215,2.760706 40.165215,2.88" fill-opacity="0" stroke="red" stroke-width="1"/>
    <path d="M 7.369764,0.684 C 7.369764,0.803294 7.273192,0.9 7.154064,0.9 C 7.034936,0.9 6.938363,0.803294 6.938363,0.684 C 6.938363,0.564706 7.034936,0.468 7.154064,0.468 C 7.273192,0.468 7.369764,0.564706 7.369764,0.684" fill-opacity="0" stroke="red" stroke-width="1"/>
    <path d="M 12.825187,0.684 C 12.825187,0.803294 12.728615,0.9 12.609487,0.9 C 12.490359,0.9 12.393786,0.803294 12.393786,0.684 C 12.393786,0.564706 12.490359,0.468 12.609487,0.468 C 12.728615,0.468 12.825187,0.564706 12.825187,0.684" fill-opacity="0" stroke="red" stroke-width="1"/>
    <path d="M 19.943301,0.684 C 19.943301,0.803294 19.846729,0.9 19.727601,0.9 C 19.608473,0.9 19.5119,0.803294 19.5119,0.684 C 19.5119,0.564706 19.608473,0.468 19.727601,0.468 C 19.846729,0.468 19.943301,0.564706 19.943301,0.684" fill-opacity="0" stroke="red" stroke-width="1"/>
    <path d="M 24.715673,0.684 C 24.715673,0.803294 24.6191,0.9 24.499972,0.9 C 24.380844,0.9 24.284272,0.803294 24.284272,0.684 C 24.284272,0.564706 24.380844,0.468 24.499972,0.468 C 24.6191,0.468 24.715673,0.564706 24.715673,0.684" fill-opacity="0" stroke="red" stroke-width="1"/>
    <path d="M 0.0,0.0 L 51.84,0.0 L 51.84,43.2 L 0.0,43.2 L 0.0,0.0" fill-opacity="0" stroke="red" stroke-width="1"/>
  </g>
  <g transform="translate(0.0000,0.0000) rotate(0)">
    <path d="M 122.4,43.2 L 122.4,43.2 L 122.4,0.0 L 122.4,0.0 L 122.4,43.2" fill-opacity="0" stroke="red" stroke-width="1"/>
    <path d="M 0.0,43.2 L 0.0,43.2 L 0.0,0.0 L 0.0,0.0 L 0.0,43.2" fill-opacity="0" stroke="red" stroke-width="1"/>
    <path d="M 0.0,43.2 L 0.0,43.2 L 122.4,43.2 L 122.4,43.2 L 0.0,43.2" fill-opacity="0" stroke="red" stroke-width="1"/>
    <path d="M 122.4,0.0 L 122.4,0.0 L 0.0,0.0 L 0.0,0.0 L 122.4,0.0" fill-opacity="0" stroke="red" stroke-width="1"/>
    <path d="M 122.4,43.2 L 0.0,43.2 L 0.0,0.0 L 122.4,0.0 L 122.4,43.2" fill-opacity="0" stroke="red" stroke-width="1"/>
    <path d="M 0.0,43.2 L 122.4,43.2 L 122.4,0.0 L 0.0,0.0 L 0.0,43.2" fill-opacity="0" stroke="red" stroke-width="1"/>
    <path d="M 121.932,40.32 C 121.932,40.439294 121.835294,40.536 121.716,40.536 C 121.596706,40.536 121.5,40.439294 121.5,40.32 C 121.5,40.200706 121.596706,40.104 121.716,40.104 C 121.835294,40.104 121.932,40.200706 121.932,40.32" fill-opacity="0" stroke="red" stroke-width="1"/>
    <path d="M 121.932,2.88 C 121.932,2.999294 121.835294,3.096 121.716,3.096 C 121.596706,3.096 121.5,2.999294 121.5,2.88 C 121.5,2.760706 121.596706,2.664 121.716,2.664 C 121.835294,2.664 121.932,2.760706 121.932,2.88" fill-opacity="0" stroke="red" stroke-width="1"/>
    <path d="M 0.9,2.88 C 0.9,2.999294 0.803294,3.096 0.684,3.096 C 0.564706,3.096 0.468,2.999294 0.468,2.88 C 0.468,2.760706 0.564706,2.664 0.684,2.664 C 0.803294,2.664 0.9,2.760706 0.9,2.88" fill-opacity="0" stroke="red" stroke-width="1"/>
    <path d="M 0.9,40.32 C 0.9,40.439294 0.803294,40.536 0.684,40.536 C 0.564706,40.536 0.468,40.439294 0.468,40.32 C 0.468,40.200706 0.564706,40.104 0.684,40.104 C 0.803294,40.104 0.9,40.200706 0.9,40.32" fill-opacity="0" stroke="red" stroke-width="1"/>
    <path d="M 25.5168,40.32 C 25.5168,40.439294 25.420094,40.536 25.3008,40.536 C 25.181506,40.536 25.0848,40.439294 25.0848,40.32 C 25.0848,40.200706 25.181506,40.104 25.3008,40.104 C 25.420094,40.104 25.5168,40.200706 25.5168,40.32" fill-opacity="0" stroke="red" stroke-width="1"/>
    <path d="M 25.5168,2.88 C 25.5168,2.999294 25.420094,3.096 25.3008,3.096 C 25.181506,3.096 25.0848,2.999294 25.0848,2.88 C 25.0848,2.760706 25.181506,2.664 25.3008,2.664 C 25.420094,2.664 25.5168,2.760706 25.5168,2.88" fill-opacity="0" stroke="red" stroke-width="1"/>
    <path d="M 49.4496,40.32 C 49.4496,40.439294 49.352894,40.536 49.2336,40.536 C 49.114306,40.536 49.0176,40.439294 49.0176,40.32 C 49.0176,40.200706 49.114306,40.104 49.2336,40.104 C 49.352894,40.104 49.4496,40.200706 49.4496,40.32" fill-opacity="0" stroke="red" stroke-width="1"/>
    <path d="M 49.4496,2.88 C 49.4496,2.999294 49.352894,3.096 49.2336,3.096 C 49.114306,3.096 49.0176,2.999294 49.0176,2.88 C 49.0176,2.760706 49.114306,2.664 49.2336,2.664 C 49.352894,2.664 49.4496,2.760706 49.4496,2.88" fill-opacity="0" stroke="red" stroke-width="1"/>
    <path d="M 73.3824,40.32 C 73.3824,40.439294 73.285694,40.536 73.1664,40.536 C 73.047106,40.536 72.9504,40.439294 72.9504,40.32 C 72.9504,40.200706 73.047106,40.104 73.1664,40.104 C 73.285694,40.104 73.3824,40.200706 73.3824,40.32" fill-opacity="0" stroke="red" stroke-width="1"/>
    <path d="M 73.3824,2.88 C 73.3824,2.999294 73.285694,3.096 73.1664,3.096 C 73.047106,3.096 72.9504,2.999294 72.9504,2.88 C 72.9504,2.760706 73.047106,2.664 73.1664,2.664 C 73.285694,2.664 73.3824,2.760706 73.3824,2.88" fill-opacity="0" stroke="red" stroke-width="1"/>
    <path d="M 97.3152,40.32 C 97.3152,40.439294 97.218494,40.536 97.0992,40.536 C 96.979906,40.536 96.8832,40.439294 96.8832,40.32 C 96.8832,40.200706 96.979906,40.104 97.0992,40.104 C 97.218494,40.104 97.3152,40.200706 97.3152,40.32" fill-opacity="0" stroke="red" stroke-width="1"/>
    <path d="M 97.3152,2.88 C 97.3152,2.999294 97.218494,3.096 97.0992,3.096 C 96.979906,3.096 96.8832,2.999294 96.8832,2.88 C 96.8832,2.760706 96.979906,2.664 97.0992,2.664 C 97.218494,2.664 97.3152,2.760706 97.3152,2.88" fill-opacity="0" stroke="red" stroke-width="1"/>
    <path d="M 0.0,0.0 L 122.4,0.0 L 122.4,43.2 L 0.0,43.2 L 0.0,0.0" fill-opacity="0" stroke="red" stroke-width="1"/>
  </g>
  <g transform="translate(226.0803,0.0000) rotate(0)">
    <path d="M 51.84,43.2 L 51.84,43.2 L 51.84,0.0 L 51.84,0.0 L 51.84,43.2" fill-opacity="0" stroke="red" stroke-width="1"/>
    <path d="M 51.84,43.2 L 51.84,0.0 L 0.0,0.0 L 0.0,43.2 L 51.84,43.2" fill-opacity="0" stroke="red" stroke-width="1"/>
    <path d="M 51.84,43.2 L 51.84,43.2 L 0.0,43.2 L 0.0,43.2 L 51.84,43.2" fill-opacity="0" stroke="red" stroke-width="1"/>
    <path d="M 51.84,0.0 L 51.84,0.0 L 0.0,0.0 L 0.0,0.0 L 51.84,0.0" fill-opacity="0" stroke="red" stroke-width="1"/>
    <path d="M 0.0,43.2 L 0.0,43.2 L 0.0,0.0 L 0.0,0.0 L 0.0,43.2" fill-opacity="0" stroke="red" stroke-width="1"/>
    <path d="M 51.84,43.2 L 51.84,0.0 L 0.0,0.0 L 0.0,43.2 L 51.84,43.2" fill-opacity="0" stroke="red" stroke-width="1"/>
    <path d="M 3.019806,40.32 C 3.019806,40.638116 2.76228,40.896 2.444605,40.896 C 2.12693,40.896 1.869404,40.638116 1.869404,40.32 C 1.869404,40.001884 2.12693,39.744 2.444605,39.744 C 2.76228,39.744 3.019806,40.001884 3.019806,40.32" fill-opacity="0" stroke="red" stroke-width="1"/>
    <path d="M 3.019806,2.88 C 3.019806,3.198116 2.76228,3.456 2.444605,3.456 C 2.12693,3.456 1.869404,3.198116 1.869404,2.88 C 1.869404,2.561884 2.12693,2.304 2.444605,2.304 C 2.76228,2.304 3.019806,2.561884 3.019806,2.88" fill-opacity="0" stroke="red" stroke-width="1"/>
    <path d="M 48.460693,40.32 C 48.460693,40.439294 48.364121,40.536 48.244993,40.536 C 48.125865,40.536 48.029293,40.439294 48.029293,40.32 C 48.029293,40.200706 48.125865,40.104 48.244993,40.104 C 48.364121,40.104 48.460693,40.200706 48.460693,40.32" fill-opacity="0" stroke="red" stroke-width="1"/>
    <path d="M 48.460693,2.88 C 48.460693,2.999294 48.364121,3.096 48.244993,3.096 C 48.125865,3.096 48.029293,2.999294 48.029293,2.88 C 48.029293,2.760706 48.125865,2.664 48.244993,2.664 C 48.364121,2.664 48.460693,2.760706 48.460693,2.88" fill-opacity="0" stroke="red" stroke-width="1"/>
    <path d="M 50.599723,0.684 C 50.599723,0.803294 50.50315,0.9 50.384022,0.9 C 50.264894,0.9 50.168322,0.803294 50.168322,0.684 C 50.168322,0.564706 50.264894,0.468 50.384022,0.468 C 50.50315,0.468 50.599723,0.564706 50.599723,0.684" fill-opacity="0" stroke="red" stroke-width="1"/>
    <path d="M 50.599723,42.516 C 50.599723,42.635294 50.50315,42.732 50.384022,42.732 C 50.264894,42.732 50.168322,42.635294 50.168322,42.516 C 50.168322,42.396706 50.264894,42.3 50.384022,42.3 C 50.50315,42.3 50.599723,42.396706 50.599723,42.516" fill-opacity="0" stroke="red" stroke-width="1"/>
    <path d="M 35.887157,40.32 C 35.887157,40.439294 35.790584,40.536 35.671456,40.536 C 35.552328,40.536 35.455756,40.439294 35.455756,40.32 C 35.455756,40.200706 35.552328,40.104 35.671456,40.104 C 35.790584,40.104 35.887157,40.200706 35.887157,40.32" fill-opacity="0" stroke="red" stroke-width="1"/>
    <path d="M 35.887157,2.88 C 35.887157,2.999294 35.790584,3.096 35.671456,3.096 C 35.552328,3.096 35.455756,2.999294 35.455756,2.88 C 35.455756,2.760706 35.552328,2.664 35.671456,2.664 C 35.790584,2.664 35.887157,2.760706 35.887157,2.88" fill-opacity="0" stroke="red" stroke-width="1"/>
    <path d="M 23.996671,40.32 C 23.996671,40.439294 23.900099,40.536 23.780971,40.536 C 23.661843,40.536 23.56527,40.439294 23.56527,40.32 C 23.56527,40.200706 23.661843,40.104 23.780971,40.104 C 23.900099,40.104 23.996671,40.200706 23.996671,40.32" fill-opacity="0" stroke="red" stroke-width="1"/>
    <path d="M 23.996671,2.88 C 23.996671,2.999294 23.900099,3.096 23.780971,3.096 C 23.661843,3.096 23.56527,2.999294 23.56527,2.88 C 23.56527,2.760706 23.661843,2.664 23.780971,2.664 C 23.900099,2.664 23.996671,2.760706 23.996671,2.88" fill-opacity="0" stroke="red" stroke-width="1"/>
    <path d="M 12.106186,40.32 C 12.106186,40.439294 12.009613,40.536 11.890485,40.536 C 11.771357,40.536 11.674785,40.439294 11.674785,40.32 C 11.674785,40.200706 11.771357,40.104 11.890485,40.104 C 12.009613,40.104 12.106186,40.200706 12.106186,40.32" fill-opacity="0" stroke="red" stroke-width="1"/>
    <path d="M 12.106186,2.88 C 12.106186,2.999294 12.009613,3.096 11.890485,3.096 C 11.771357,3.096 11.674785,2.999294 11.674785,2.88 C 11.674785,2.760706 11.771357,2.664 11.890485,2.664 C 12.009613,2.664 12.106186,2.760706 12.106186,2.88" fill-opacity="0" stroke="red" stroke-width="1"/>
    <path d="M 44.901637,42.516 C 44.901637,42.635294 44.805064,42.732 44.685936,42.732 C 44.566808,42.732 44.470236,42.635294 44.470236,42.516 C 44.470236,42.396706 44.566808,42.3 44.685936,42.3 C 44.805064,42.3 44.901637,42.396706 44.901637,42.516" fill-opacity="0" stroke="red" stroke-width="1"/>
    <path d="M 39.446214,42.516 C 39.446214,42.635294 39.349641,42.732 39.230513,42.732 C 39.111385,42.732 39.014813,42.635294 39.014813,42.516 C 39.014813,42.396706 39.111385,42.3 39.230513,42.3 C 39.349641,42.3 39.446214,42.396706 39.446214,42.516" fill-opacity="0" stroke="red" stroke-width="1"/>
    <path d="M 32.3281,42.516 C 32.3281,42.635294 32.231527,42.732 32.112399,42.732 C 31.993271,42.732 31.896699,42.635294 31.896699,42.516 C 31.896699,42.396706 31.993271,42.3 32.112399,42.3 C 32.231527,42.3 32.3281,42.396706 32.3281,42.516" fill-opacity="0" stroke="red" stroke-width="1"/>
    <path d="M 27.555728,42.516 C 27.555728,42.635294 27.459156,42.732 27.340028,42.732 C 27.2209,42.732 27.124327,42.635294 27.124327,42.516 C 27.124327,42.396706 27.2209,42.3 27.340028,42.3 C 27.459156,42.3 27.555728,42.396706 27.555728,42.516" fill-opacity="0" stroke="red" stroke-width="1"/>
    <path d="M 0.0,0.0 L 51.84,0.0 L 51.84,43.2 L 0.0,43.2 L 0.0,0.0" fill-opacity="0" stroke="red" stroke-width="1"/>
  </g>
  <g transform="translate(277.9204,0.0000) rotate(0)">
    <path d="M 51.84,43.2 L 51.84,43.2 L 51.84,0.0 L 51.84,0.0 L 51.84,43.2" fill-opacity="0" stroke="red" stroke-width="1"/>
    <path d="M 51.84,43.2 L 51.84,43.2 L 0.0,43.2 L 0.0,43.2 L 51.84,43.2" fill-opacity="0" stroke="red" stroke-width="1"/>
    <path d="M 51.84,0.0 L 51.84,0.0 L 0.0,0.0 L 0.0,0.0 L 51.84,0.0" fill-opacity="0" stroke="red" stroke-width="1"/>
    <path d="M 0.0,43.2 L 0.0,43.2 L 0.0,0.0 L 0.0,0.0 L 0.0,43.2" fill-opacity="0" stroke="red" stroke-width="1"/>
    <path d="M 51.84,43.2 L 51.84,0.0 L 0.0,0.0 L 0.0,43.2 L 51.84,43.2" fill-opacity="0" stroke="red" stroke-width="1"/>
    <path d="M 48.460693,40.32 C 48.460693,40.439294 48.364121,40.536 48.244993,40.536 C 48.125865,40.536 48.029293,40.439294 48.029293,40.32 C 48.029293,40.200706 48.125865,40.104 48.244993,40.104 C 48.364121,40.104 48.460693,40.200706 48.460693,40.32" fill-opacity="0" stroke="red" stroke-width="1"/>
    <path d="M 48.460693,2.88 C 48.460693,2.999294 48.364121,3.096 48.244993,3.096 C 48.125865,3.096 48.029293,2.999294 48.029293,2.88 C 48.029293,2.760706 48.125865,2.664 48.244993,2.664 C 48.364121,2.664 48.460693,2.760706 48.460693,2.88" fill-opacity="0" stroke="red" stroke-width="1"/>
    <path d="M 50.599723,0.684 C 50.599723,0.803294 50.50315,0.9 50.384022,0.9 C 50.264894,0.9 50.168322,0.803294 50.168322,0.684 C 50.168322,0.564706 50.264894,0.468 50.384022,0.468 C 50.50315,0.468 50.599723,0.564706 50.599723,0.684" fill-opacity="0" stroke="red" stroke-width="1"/>
    <path d="M 50.599723,42.516 C 50.599723,42.635294 50.50315,42.732 50.384022,42.732 C 50.264894,42.732 50.168322,42.635294 50.168322,42.516 C 50.168322,42.396706 50.264894,42.3 50.384022,42.3 C 50.50315,42.3 50.599723,42.396706 50.599723,42.516" fill-opacity="0" stroke="red" stroke-width="1"/>
    <path d="M 35.887157,40.32 C 35.887157,40.439294 35.790584,40.536 35.671456,40.536 C 35.552328,40.536 35.455756,40.439294 35.455756,40.32 C 35.455756,40.200706 35.552328,40.104 35.671456,40.104 C 35.790584,40.104 35.887157,40.200706 35.887157,40.32" fill-opacity="0" stroke="red" stroke-width="1"/>
    <path d="M 35.887157,2.88 C 35.887157,2.999294 35.790584,3.096 35.671456,3.096 C 35.552328,3.096 35.455756,2.999294 35.455756,2.88 C 35.455756,2.760706 35.552328,2.664 35.671456,2.664 C 35.790584,2.664 35.887157,2.760706 35.887157,2.88" fill-opacity="0" stroke="red" stroke-width="1"/>
    <path d="M 23.996671,40.32 C 23.996671,40.439294 23.900099,40.536 23.780971,40.536 C 23.661843,40.536 23.56527,40.439294 23.56527,40.32 C 23.56527,40.200706 23.661843,40.104 23.780971,40.104 C 23.900099,40.104 23.996671,40.200706 23.996671,40.32" fill-opacity="0" stroke="red" stroke-width="1"/>
    <path d="M 23.996671,2.88 C 23.996671,2.999294 23.900099,3.096 23.780971,3.096 C 23.661843,3.096 23.56527,2.999294 23.56527,2.88 C 23.56527,2.760706 23.661843,2.664 23.780971,2.664 C 23.900099,2.664 23.996671,2.760706 23.996671,2.88" fill-opacity="0" stroke="red" stroke-width="1"/>
    <path d="M 12.106186,40.32 C 12.106186,40.439294 12.009613,40.536 11.890485,40.536 C 11.771357,40.536 11.674785,40.439294 11.674785,40.32 C 11.674785,40.200706 11.771357,40.104 11.890485,40.104 C 12.009613,40.104 12.106186,40.200706 12.106186,40.32" fill-opacity="0" stroke="red" stroke-width="1"/>
    <path d="M 12.106186,2.88 C 12.106186,2.999294 12.009613,3.096 11.890485,3.096 C 11.771357,3.096 11.674785,2.999294 11.674785,2.88 C 11.674785,2.760706 11.771357,2.664 11.890485,2.664 C 12.009613,2.664 12.106186,2.760706 12.106186,2.88" fill-opacity="0" stroke="red" stroke-width="1"/>
    <path d="M 44.901637,42.516 C 44.901637,42.635294 44.805064,42.732 44.685936,42.732 C 44.566808,42.732 44.470236,42.635294 44.470236,42.516 C 44.470236,42.396706 44.566808,42.3 44.685936,42.3 C 44.805064,42.3 44.901637,42.396706 44.901637,42.516" fill-opacity="0" stroke="red" stroke-width="1"/>
    <path d="M 39.446214,42.516 C 39.446214,42.635294 39.349641,42.732 39.230513,42.732 C 39.111385,42.732 39.014813,42.635294 39.014813,42.516 C 39.014813,42.396706 39.111385,42.3 39.230513,42.3 C 39.349641,42.3 39.446214,42.396706 39.446214,42.516" fill-opacity="0" stroke="red" stroke-width="1"/>
    <path d="M 32.3281,42.516 C 32.3281,42.635294 32.231527,42.732 32.112399,42.732 C 31.993271,42.732 31.896699,42.635294 31.896699,42.516 C 31.896699,42.396706 31.993271,42.3 32.112399,42.3 C 32.231527,42.3 32.3281,42.396706 32.3281,42.516" fill-opacity="0" stroke="red" stroke-width="1"/>
    <path d="M 27.555728,42.516 C 27.555728,42.635294 27.459156,42.732 27.340028,42.732 C 27.2209,42.732 27.124327,42.635294 27.124327,42.516 C 27.124327,42.396706 27.2209,42.3 27.340028,42.3 C 27.459156,42.3 27.555728,42.396706 27.555728,42.516" fill-opacity="0" stroke="red" stroke-width="1"/>
    <path d="M 51.84,43.2 L 51.84,0.0 L 0.0,0.0 L 0.0,43.2 L 51.84,43.2" fill-opacity="0" stroke="red" stroke-width="1"/>
    <path d="M 3.019806,40.32 C 3.019806,40.638116 2.76228,40.896 2.444605,40.896 C 2.12693,40.896 1.869404,40.638116 1.869404,40.32 C 1.869404,40.001884 2.12693,39.744 2.444605,39.744 C 2.76228,39.744 3.019806,40.001884 3.019806,40.32" fill-opacity="0" stroke="red" stroke-width="1"/>
    <path d="M 3.019806,2.88 C 3.019806,3.198116 2.76228,3.456 2.444605,3.456 C 2.12693,3.456 1.869404,3.198116 1.869404,2.88 C 1.869404,2.561884 2.12693,2.304 2.444605,2.304 C 2.76228,2.304 3.019806,2.561884 3.019806,2.88" fill-opacity="0" stroke="red" stroke-width="1"/>
    <path d="M 48.460693,40.32 C 48.460693,40.439294 48.364121,40.536 48.244993,40.536 C 48.125865,40.536 48.029293,40.439294 48.029293,40.32 C 48.029293,40.200706 48.125865,40.104 48.244993,40.104 C 48.364121,40.104 48.460693,40.200706 48.460693,40.32" fill-opacity="0" stroke="red" stroke-width="1"/>
    <path d="M 48.460693,2.88 C 48.460693,2.999294 48.364121,3.096 48.244993,3.096 C 48.125865,3.096 48.029293,2.999294 48.029293,2.88 C 48.029293,2.760706 48.125865,2.664 48.244993,2.664 C 48.364121,2.664 48.460693,2.760706 48.460693,2.88" fill-opacity="0" stroke="red" stroke-width="1"/>
    <path d="M 50.599723,0.684 C 50.599723,0.803294 50.50315,0.9 50.384022,0.9 C 50.264894,0.9 50.168322,0.803294 50.168322,0.684 C 50.168322,0.564706 50.264894,0.468 50.384022,0.468 C 50.50315,0.468 50.599723,0.564706 50.599723,0.684" fill-opacity="0" stroke="red" stroke-width="1"/>
    <path d="M 50.599723,42.516 C 50.599723,42.635294 50.50315,42.732 50.384022,42.732 C 50.264894,42.732 50.168322,42.635294 50.168322,42.516 C 50.168322,42.396706 50.264894,42.3 50.384022,42.3 C 50.50315,42.3 50.599723,42.396706 50.599723,42.516" fill-opacity="0" stroke="red" stroke-width="1"/>
    <path d="M 35.887157,40.32 C 35.887157,40.439294 35.790584,40.536 35.671456,40.536 C 35.552328,40.536 35.455756,40.439294 35.455756,40.32 C 35.455756,40.200706 35.552328,40.104 35.671456,40.104 C 35.790584,40.104 35.887157,40.200706 35.887157,40.32" fill-opacity="0" stroke="red" stroke-width="1"/>
    <path d="M 35.887157,2.88 C 35.887157,2.999294 35.790584,3.096 35.671456,3.096 C 35.552328,3.096 35.455756,2.999294 35.455756,2.88 C 35.455756,2.760706 35.552328,2.664 35.671456,2.664 C 35.790584,2.664 35.887157,2.760706 35.887157,2.88" fill-opacity="0" stroke="red" stroke-width="1"/>
    <path d="M 23.996671,40.32 C 23.996671,40.439294 23.900099,40.536 23.780971,40.536 C 23.661843,40.536 23.56527,40.439294 23.56527,40.32 C 23.56527,40.200706 23.661843,40.104 23.780971,40.104 C 23.900099,40.104 23.996671,40.200706 23.996671,40.32" fill-opacity="0" stroke="red" stroke-width="1"/>
    <path d="M 23.996671,2.88 C 23.996671,2.999294 23.900099,3.096 23.780971,3.096 C 23.661843,3.096 23.56527,2.999294 23.56527,2.88 C 23.56527,2.760706 23.661843,2.664 23.780971,2.664 C 23.900099,2.664 23.996671,2.760706 23.996671,2.88" fill-opacity="0" stroke="red" stroke-width="1"/>
    <path d="M 12.106186,40.32 C 12.106186,40.439294 12.009613,40.536 11.890485,40.536 C 11.771357,40.536 11.674785,40.439294 11.674785,40.32 C 11.674785,40.200706 11.771357,40.104 11.890485,40.104 C 12.009613,40.104 12.106186,40.200706 12.106186,40.32" fill-opacity="0" stroke="red" stroke-width="1"/>
    <path d="M 12.106186,2.88 C 12.106186,2.999294 12.009613,3.096 11.890485,3.096 C 11.771357,3.096 11.674785,2.999294 11.674785,2.88 C 11.674785,2.760706 11.771357,2.664 11.890485,2.664 C 12.009613,2.664 12.106186,2.760706 12.106186,2.88" fill-opacity="0" stroke="red" stroke-width="1"/>
    <path d="M 44.901637,42.516 C 44.901637,42.635294 44.805064,42.732 44.685936,42.732 C 44.566808,42.732 44.470236,42.635294 44.470236,42.516 C 44.470236,42.396706 44.566808,42.3 44.685936,42.3 C 44.805064,42.3 44.901637,42.396706 44.901637,42.516" fill-opacity="0" stroke="red" stroke-width="1"/>
    <path d="M 39.446214,42.516 C 39.446214,42.635294 39.349641,42.732 39.230513,42.732 C 39.111385,42.732 39.014813,42.635294 39.014813,42.516 C 39.014813,42.396706 39.111385,42.3 39.230513,42.3 C 39.349641,42.3 39.446214,42.396706 39.446214,42.516" fill-opacity="0" stroke="red" stroke-width="1"/>
    <path d="M 32.3281,42.516 C 32.3281,42.635294 32.231527,42.732 32.112399,42.732 C 31.993271,42.732 31.896699,42.635294 31.896699,42.516 C 31.896699,42.396706 31.993271,42.3 32.112399,42.3 C 32.231527,42.3 32.3281,42.396706 32.3281,42.516" fill-opacity="0" stroke="red" stroke-width="1"/>
    <path d="M 27.555728,42.516 C 27.555728,42.635294 27.459156,42.732 27.340028,42.732 C 27.2209,42.732 27.124327,42.635294 27.124327,42.516 C 27.124327,42.396706 27.2209,42.3 27.340028,42.3 C 27.459156,42.3 27.555728,42.396706 27.555728,42.516" fill-opacity="0" stroke="red" stroke-width="1"/>
    <path d="M 0.0,0.0 L 51.84,0.0 L 51.84,43.2 L 0.0,43.2 L 0.0,0.0" fill-opacity="0" stroke="red" stroke-width="1"/>
  </g>
  <g transform="translate(329.7605,0.0000) rotate(0)">
    <path d="M 51.84,43.2 L 51.84,43.2 L 51.84,0.0 L 51.84,0.0 L 51.84,43.2" fill-opacity="0" stroke="red" stroke-width="1"/>
    <path d="M 51.84,43.2 L 51.84,43.2 L 0.0,43.2 L 0.0,43.2 L 51.84,43.2" fill-opacity="0" stroke="red" stroke-width="1"/>
    <path d="M 51.84,0.0 L 51.84,0.0 L 0.0,0.0 L 0.0,0.0 L 51.84,0.0" fill-opacity="0" stroke="red" stroke-width="1"/>
    <path d="M 0.0,43.2 L 0.0,43.2 L 0.0,0.0 L 0.0,0.0 L 0.0,43.2" fill-opacity="0" stroke="red" stroke-width="1"/>
    <path d="M 51.84,43.2 L 51.84,0.0 L 0.0,0.0 L 0.0,43.2 L 51.84,43.2" fill-opacity="0" stroke="red" stroke-width="1"/>
    <path d="M 48.460693,40.32 C 48.460693,40.439294 48.364121,40.536 48.244993,40.536 C 48.125865,40.536 48.029293,40.439294 48.029293,40.32 C 48.029293,40.200706 48.125865,40.104 48.244993,40.104 C 48.364121,40.104 48.460693,40.200706 48.460693,40.32" fill-opacity="0" stroke="red" stroke-width="1"/>
    <path d="M 48.460693,2.88 C 48.460693,2.999294 48.364121,3.096 48.244993,3.096 C 48.125865,3.096 48.029293,2.999294 48.029293,2.88 C 48.029293,2.760706 48.125865,2.664 48.244993,2.664 C 48.364121,2.664 48.460693,2.760706 48.460693,2.88" fill-opacity="0" stroke="red" stroke-width="1"/>
    <path d="M 50.599723,0.684 C 50.599723,0.803294 50.50315,0.9 50.384022,0.9 C 50.264894,0.9 50.168322,0.803294 50.168322,0.684 C 50.168322,0.564706 50.264894,0.468 50.384022,0.468 C 50.50315,0.468 50.599723,0.564706 50.599723,0.684" fill-opacity="0" stroke="red" stroke-width="1"/>
    <path d="M 50.599723,42.516 C 50.599723,42.635294 50.50315,42.732 50.384022,42.732 C 50.264894,42.732 50.168322,42.635294 50.168322,42.516 C 50.168322,42.396706 50.264894,42.3 50.384022,42.3 C 50.50315,42.3 50.599723,42.396706 50.599723,42.516" fill-opacity="0" stroke="red" stroke-width="1"/>
    <path d="M 35.887157,40.32 C 35.887157,40.439294 35.790584,40.536 35.671456,40.536 C 35.552328,40.536 35.455756,40.439294 35.455756,40.32 C 35.455756,40.200706 35.552328,40.104 35.671456,40.104 C 35.790584,40.104 35.887157,40.200706 35.887157,40.32" fill-opacity="0" stroke="red" stroke-width="1"/>
    <path d="M 35.887157,2.88 C 35.887157,2.999294 35.790584,3.096 35.671456,3.096 C 35.552328,3.096 35.455756,2.999294 35.455756,2.88 C 35.455756,2.760706 35.552328,2.664 35.671456,2.664 C 35.790584,2.664 35.887157,2.760706 35.887157,2.88" fill-opacity="0" stroke="red" stroke-width="1"/>
    <path d="M 23.996671,40.32 C 23.996671,40.439294 23.900099,40.536 23.780971,40.536 C 23.661843,40.536 23.56527,40.439294 23.56527,40.32 C 23.56527,40.200706 23.661843,40.104 23.780971,40.104 C 23.900099,40.104 23.996671,40.200706 23.996671,40.32" fill-opacity="0" stroke="red" stroke-width="1"/>
    <path d="M 23.996671,2.88 C 23.996671,2.999294 23.900099,3.096 23.780971,3.096 C 23.661843,3.096 23.56527,2.999294 23.56527,2.88 C 23.56527,2.760706 23.661843,2.664 23.780971,2.664 C 23.900099,2.664 23.996671,2.760706 23.996671,2.88" fill-opacity="0" stroke="red" stroke-width="1"/>
    <path d="M 12.106186,40.32 C 12.106186,40.439294 12.009613,40.536 11.890485,40.536 C 11.771357,40.536 11.674785,40.439294 11.674785,40.32 C 11.674785,40.200706 11.771357,40.104 11.890485,40.104 C 12.009613,40.104 12.106186,40.200706 12.106186,40.32" fill-opacity="0" stroke="red" stroke-width="1"/>
    <path d="M 12.106186,2.88 C 12.106186,2.999294 12.009613,3.096 11.890485,3.096 C 11.771357,3.096 11.674785,2.999294 11.674785,2.88 C 11.674785,2.760706 11.771357,2.664 11.890485,2.664 C 12.009613,2.664 12.106186,2.760706 12.106186,2.88" fill-opacity="0" stroke="red" stroke-width="1"/>
    <path d="M 44.901637,42.516 C 44.901637,42.635294 44.805064,42.732 44.685936,42.732 C 44.566808,42.732 44.470236,42.635294 44.470236,42.516 C 44.470236,42.396706 44.566808,42.3 44.685936,42.3 C 44.805064,42.3 44.901637,42.396706 44.901637,42.516" fill-opacity="0" stroke="red" stroke-width="1"/>
    <path d="M 39.446214,42.516 C 39.446214,42.635294 39.349641,42.732 39.230513,42.732 C 39.111385,42.732 39.014813,42.635294 39.014813,42.516 C 39.014813,42.396706 39.111385,42.3 39.230513,42.3 C 39.349641,42.3 39.446214,42.396706 39.446214,42.516" fill-opacity="0" stroke="red" stroke-width="1"/>
    <path d="M 32.3281,42.516 C 32.3281,42.635294 32.231527,42.732 32.112399,42.732 C 31.993271,42.732 31.896699,42.635294 31.896699,42.516 C 31.896699,42.396706 31.993271,42.3 32.112399,42.3 C 32.231527,42.3 32.3281,42.396706 32.3281,42.516" fill-opacity="0" stroke="red" stroke-width="1"/>
    <path d="M 27.555728,42.516 C 27.555728,42.635294 27.459156,42.732 27.340028,42.732 C 27.2209,42.732 27.124327,42.635294 27.124327,42.516 C 27.124327,42.396706 27.2209,42.3 27.340028,42.3 C 27.459156,42.3 27.555728,42.396706 27.555728,42.516" fill-opacity="0" stroke="red" stroke-width="1"/>
    <path d="M 51.84,43.2 L 51.84,0.0 L 0.0,0.0 L 0.0,43.2 L 51.84,43.2" fill-opacity="0" stroke="red" stroke-width="1"/>
    <path d="M 3.019806,40.32 C 3.019806,40.638116 2.76228,40.896 2.444605,40.896 C 2.12693,40.896 1.869404,40.638116 1.869404,40.32 C 1.869404,40.001884 2.12693,39.744 2.444605,39.744 C 2.76228,39.744 3.019806,40.001884 3.019806,40.32" fill-opacity="0" stroke="red" stroke-width="1"/>
    <path d="M 3.019806,2.88 C 3.019806,3.198116 2.76228,3.456 2.444605,3.456 C 2.12693,3.456 1.869404,3.198116 1.869404,2.88 C 1.869404,2.561884 2.12693,2.304 2.444605,2.304 C 2.76228,2.304 3.019806,2.561884 3.019806,2.88" fill-opacity="0" stroke="red" stroke-width="1"/>
    <path d="M 48.460693,40.32 C 48.460693,40.439294 48.364121,40.536 48.244993,40.536 C 48.125865,40.536 48.029293,40.439294 48.029293,40.32 C 48.029293,40.200706 48.125865,40.104 48.244993,40.104 C 48.364121,40.104 48.460693,40.200706 48.460693,40.32" fill-opacity="0" stroke="red" stroke-width="1"/>
    <path d="M 48.460693,2.88 C 48.460693,2.999294 48.364121,3.096 48.244993,3.096 C 48.125865,3.096 48.029293,2.999294 48.029293,2.88 C 48.029293,2.760706 48.125865,2.664 48.244993,2.664 C 48.364121,2.664 48.460693,2.760706 48.460693,2.88" fill-opacity="0" stroke="red" stroke-width="1"/>
    <path d="M 50.599723,0.684 C 50.599723,0.803294 50.50315,0.9 50.384022,0.9 C 50.264894,0.9 50.168322,0.803294 50.168322,0.684 C 50.168322,0.564706 50.264894,0.468 50.384022,0.468 C 50.50315,0.468 50.599723,0.564706 50.599723,0.684" fill-opacity="0" stroke="red" stroke-width="1"/>
    <path d="M 50.599723,42.516 C 50.599723,42.635294 50.50315,42.732 50.384022,42.732 C 50.264894,42.732 50.168322,42.635294 50.168322,42.516 C 50.168322,42.396706 50.264894,42.3 50.384022,42.3 C 50.50315,42.3 50.599723,42.396706 50.599723,42.516" fill-opacity="0" stroke="red" stroke-width="1"/>
    <path d="M 35.887157,40.32 C 35.887157,40.439294 35.790584,40.536 35.671456,40.536 C 35.552328,40.536 35.455756,40.439294 35.455756,40.32 C 35.455756,40.200706 35.552328,40.104 35.671456,40.104 C 35.790584,40.104 35.887157,40.200706 35.887157,40.32" fill-opacity="0" stroke="red" stroke-width="1"/>
    <path d="M 35.887157,2.88 C 35.887157,2.999294 35.790584,3.096 35.671456,3.096 C 35.552328,3.096 35.455756,2.999294 35.455756,2.88 C 35.455756,2.760706 35.552328,2.664 35.671456,2.664 C 35.790584,2.664 35.887157,2.760706 35.887157,2.88" fill-opacity="0" stroke="red" stroke-width="1"/>
    <path d="M 23.996671,40.32 C 23.996671,40.439294 23.900099,40.536 23.780971,40.536 C 23.661843,40.536 23.56527,40.439294 23.56527,40.32 C 23.56527,40.200706 23.661843,40.104 23.780971,40.104 C 23.900099,40.104 23.996671,40.200706 23.996671,40.32" fill-opacity="0" stroke="red" stroke-width="1"/>
    <path d="M 23.996671,2.88 C 23.996671,2.999294 23.900099,3.096 23.780971,3.096 C 23.661843,3.096 23.56527,2.999294 23.56527,2.88 C 23.56527,2.760706 23.661843,2.664 23.780971,2.664 C 23.900099,2.664 23.996671,2.760706 23.996671,2.88" fill-opacity="0" stroke="red" stroke-width="1"/>
    <path d="M 12.106186,40.32 C 12.106186,40.439294 12.009613,40.536 11.890485,40.536 C 11.771357,40.536 11.674785,40.439294 11.674785,40.32 C 11.674785,40.200706 11.771357,40.104 11.890485,40.104 C 12.009613,40.104 12.106186,40.200706 12.106186,40.32" fill-opacity="0" stroke="red" stroke-width="1"/>
    <path d="M 12.106186,2.88 C 12.106186,2.999294 12.009613,3.096 11.890485,3.096 C 11.771357,3.096 11.674785,2.999294 11.674785,2.88 C 11.674785,2.760706 11.771357,2.664 11.890485,2.664 C 12.009613,2.664 12.106186,2.760706 12.106186,2.88" fill-opacity="0" stroke="red" stroke-width="1"/>
    <path d="M 44.901637,0.684 C 44.901637,0.803294 44.805064,0.9 44.685936,0.9 C 44.566808,0.9 44.470236,0.803294 44.470236,0.684 C 44.470236,0.564706 44.566808,0.468 44.685936,0.468 C 44.805064,0.468 44.901637,0.564706 44.901637,0.684" fill-opacity="0" stroke="red" stroke-width="1"/>
    <path d="M 39.446214,0.684 C 39.446214,0.803294 39.349641,0.9 39.230513,0.9 C 39.111385,0.9 39.014813,0.803294 39.014813,0.684 C 39.014813,0.564706 39.111385,0.468 39.230513,0.468 C 39.349641,0.468 39.446214,0.564706 39.446214,0.684" fill-opacity="0" stroke="red" stroke-width="1"/>
    <path d="M 32.3281,0.684 C 32.3281,0.803294 32.231527,0.9 32.112399,0.9 C 31.993271,0.9 31.896699,0.803294 31.896699,0.684 C 31.896699,0.564706 31.993271,0.468 32.112399,0.468 C 32.231527,0.468 32.3281,0.564706 32.3281,0.684" fill-opacity="0" stroke="red" stroke-width="1"/>
    <path d="M 27.555728,0.684 C 27.555728,0.803294 27.459156,0.9 27.340028,0.9 C 27.2209,0.9 27.124327,0.803294 27.124327,0.684 C 27.124327,0.564706 27.2209,0.468 27.340028,0.468 C 27.459156,0.468 27.555728,0.564706 27.555728,0.684" fill-opacity="0" stroke="red" stroke-width="1"/>
    <path d="M 0.0,0.0 L 51.84,0.0 L 51.84,43.2 L 0.0,43.2 L 0.0,0.0" fill-opacity="0" stroke="red" stroke-width="1"/>
  </g>
  <g transform="translate(381.6006,0.0000) rotate(0)">
    <path d="M 51.84,43.2 L 51.84,43.2 L 51.84,0.0 L 51.84,0.0 L 51.84,43.2" fill-opacity="0" stroke="red" stroke-width="1"/>
    <path d="M 51.84,43.2 L 51.84,43.2 L 0.0,43.2 L 0.0,43.2 L 51.84,43.2" fill-opacity="0" stroke="red" stroke-width="1"/>
    <path d="M 51.84,0.0 L 51.84,0.0 L 0.0,0.0 L 0.0,0.0 L 51.84,0.0" fill-opacity="0" stroke="red" stroke-width="1"/>
    <path d="M 0.0,43.2 L 0.0,43.2 L 0.0,0.0 L 0.0,0.0 L 0.0,43.2" fill-opacity="0" stroke="red" stroke-width="1"/>
    <path d="M 51.84,43.2 L 51.84,0.0 L 0.0,0.0 L 0.0,43.2 L 51.84,43.2" fill-opacity="0" stroke="red" stroke-width="1"/>
    <path d="M 48.460693,40.32 C 48.460693,40.439294 48.364121,40.536 48.244993,40.536 C 48.125865,40.536 48.029293,40.439294 48.029293,40.32 C 48.029293,40.200706 48.125865,40.104 48.244993,40.104 C 48.364121,40.104 48.460693,40.200706 48.460693,40.32" fill-opacity="0" stroke="red" stroke-width="1"/>
    <path d="M 48.460693,2.88 C 48.460693,2.999294 48.364121,3.096 48.244993,3.096 C 48.125865,3.096 48.029293,2.999294 48.029293,2.88 C 48.029293,2.760706 48.125865,2.664 48.244993,2.664 C 48.364121,2.664 48.460693,2.760706 48.460693,2.88" fill-opacity="0" stroke="red" stroke-width="1"/>
    <path d="M 50.599723,0.684 C 50.599723,0.803294 50.50315,0.9 50.384022,0.9 C 50.264894,0.9 50.168322,0.803294 50.168322,0.684 C 50.168322,0.564706 50.264894,0.468 50.384022,0.468 C 50.50315,0.468 50.599723,0.564706 50.599723,0.684" fill-opacity="0" stroke="red" stroke-width="1"/>
    <path d="M 50.599723,42.516 C 50.599723,42.635294 50.50315,42.732 50.384022,42.732 C 50.264894,42.732 50.168322,42.635294 50.168322,42.516 C 50.168322,42.396706 50.264894,42.3 50.384022,42.3 C 50.50315,42.3 50.599723,42.396706 50.599723,42.516" fill-opacity="0" stroke="red" stroke-width="1"/>
    <path d="M 35.887157,40.32 C 35.887157,40.439294 35.790584,40.536 35.671456,40.536 C 35.552328,40.536 35.455756,40.439294 35.455756,40.32 C 35.455756,40.200706 35.552328,40.104 35.671456,40.104 C 35.790584,40.104 35.887157,40.200706 35.887157,40.32" fill-opacity="0" stroke="red" stroke-width="1"/>
    <path d="M 35.887157,2.88 C 35.887157,2.999294 35.790584,3.096 35.671456,3.096 C 35.552328,3.096 35.455756,2.999294 35.455756,2.88 C 35.455756,2.760706 35.552328,2.664 35.671456,2.664 C 35.790584,2.664 35.887157,2.760706 35.887157,2.88" fill-opacity="0" stroke="red" stroke-width="1"/>
    <path d="M 23.996671,40.32 C 23.996671,40.439294 23.900099,40.536 23.780971,40.536 C 23.661843,40.536 23.56527,40.439294 23.56527,40.32 C 23.56527,40.200706 23.661843,40.104 23.780971,40.104 C 23.900099,40.104 23.996671,40.200706 23.996671,40.32" fill-opacity="0" stroke="red" stroke-width="1"/>
    <path d="M 23.996671,2.88 C 23.996671,2.999294 23.900099,3.096 23.780971,3.096 C 23.661843,3.096 23.56527,2.999294 23.56527,2.88 C 23.56527,2.760706 23.661843,2.664 23.780971,2.664 C 23.900099,2.664 23.996671,2.760706 23.996671,2.88" fill-opacity="0" stroke="red" stroke-width="1"/>
    <path d="M 12.106186,40.32 C 12.106186,40.439294 12.009613,40.536 11.890485,40.536 C 11.771357,40.536 11.674785,40.439294 11.674785,40.32 C 11.674785,40.200706 11.771357,40.104 11.890485,40.104 C 12.009613,40.104 12.106186,40.200706 12.106186,40.32" fill-opacity="0" stroke="red" stroke-width="1"/>
    <path d="M 12.106186,2.88 C 12.106186,2.999294 12.009613,3.096 11.890485,3.096 C 11.771357,3.096 11.674785,2.999294 11.674785,2.88 C 11.674785,2.760706 11.771357,2.664 11.890485,2.664 C 12.009613,2.664 12.106186,2.760706 12.106186,2.88" fill-opacity="0" stroke="red" stroke-width="1"/>
    <path d="M 44.901637,42.516 C 44.901637,42.635294 44.805064,42.732 44.685936,42.732 C 44.566808,42.732 44.470236,42.635294 44.470236,42.516 C 44.470236,42.396706 44.566808,42.3 44.685936,42.3 C 44.805064,42.3 44.901637,42.396706 44.901637,42.516" fill-opacity="0" stroke="red" stroke-width="1"/>
    <path d="M 39.446214,42.516 C 39.446214,42.635294 39.349641,42.732 39.230513,42.732 C 39.111385,42.732 39.014813,42.635294 39.014813,42.516 C 39.014813,42.396706 39.111385,42.3 39.230513,42.3 C 39.349641,42.3 39.446214,42.396706 39.446214,42.516" fill-opacity="0" stroke="red" stroke-width="1"/>
    <path d="M 32.3281,42.516 C 32.3281,42.635294 32.231527,42.732 32.112399,42.732 C 31.993271,42.732 31.896699,42.635294 31.896699,42.516 C 31.896699,42.396706 31.993271,42.3 32.112399,42.3 C 32.231527,42.3 32.3281,42.396706 32.3281,42.516" fill-opacity="0" stroke="red" stroke-width="1"/>
    <path d="M 27.555728,42.516 C 27.555728,42.635294 27.459156,42.732 27.340028,42.732 C 27.2209,42.732 27.124327,42.635294 27.124327,42.516 C 27.124327,42.396706 27.2209,42.3 27.340028,42.3 C 27.459156,42.3 27.555728,42.396706 27.555728,42.516" fill-opacity="0" stroke="red" stroke-width="1"/>
    <path d="M 51.84,43.2 L 51.84,0.0 L 0.0,0.0 L 0.0,43.2 L 51.84,43.2" fill-opacity="0" stroke="red" stroke-width="1"/>
    <path d="M 3.019806,40.32 C 3.019806,40.638116 2.76228,40.896 2.444605,40.896 C 2.12693,40.896 1.869404,40.638116 1.869404,40.32 C 1.869404,40.001884 2.12693,39.744 2.444605,39.744 C 2.76228,39.744 3.019806,40.001884 3.019806,40.32" fill-opacity="0" stroke="red" stroke-width="1"/>
    <path d="M 3.019806,2.88 C 3.019806,3.198116 2.76228,3.456 2.444605,3.456 C 2.12693,3.456 1.869404,3.198116 1.869404,2.88 C 1.869404,2.561884 2.12693,2.304 2.444605,2.304 C 2.76228,2.304 3.019806,2.561884 3.019806,2.88" fill-opacity="0" stroke="red" stroke-width="1"/>
    <path d="M 48.460693,40.32 C 48.460693,40.439294 48.364121,40.536 48.244993,40.536 C 48.125865,40.536 48.029293,40.439294 48.029293,40.32 C 48.029293,40.200706 48.125865,40.104 48.244993,40.104 C 48.364121,40.104 48.460693,40.200706 48.460693,40.32" fill-opacity="0" stroke="red" stroke-width="1"/>
    <path d="M 48.460693,2.88 C 48.460693,2.999294 48.364121,3.096 48.244993,3.096 C 48.125865,3.096 48.029293,2.999294 48.029293,2.88 C 48.029293,2.760706 48.125865,2.664 48.244993,2.664 C 48.364121,2.664 48.460693,2.760706 48.460693,2.88" fill-opacity="0" stroke="red" stroke-width="1"/>
    <path d="M 50.599723,0.684 C 50.599723,0.803294 50.50315,0.9 50.384022,0.9 C 50.264894,0.9 50.168322,0.803294 50.168322,0.684 C 50.168322,0.564706 50.264894,0.468 50.384022,0.468 C 50.50315,0.468 50.599723,0.564706 50.599723,0.684" fill-opacity="0" stroke="red" stroke-width="1"/>
    <path d="M 50.599723,42.516 C 50.599723,42.635294 50.50315,42.732 50.384022,42.732 C 50.264894,42.732 50.168322,42.635294 50.168322,42.516 C 50.168322,42.396706 50.264894,42.3 50.384022,42.3 C 50.50315,42.3 50.599723,42.396706 50.599723,42.516" fill-opacity="0" stroke="red" stroke-width="1"/>
    <path d="M 35.887157,40.32 C 35.887157,40.439294 35.790584,40.536 35.671456,40.536 C 35.552328,40.536 35.455756,40.439294 35.455756,40.32 C 35.455756,40.200706 35.552328,40.104 35.671456,40.104 C 35.790584,40.104 35.887157,40.200706 35.887157,40.32" fill-opacity="0" stroke="red" stroke-width="1"/>
    <path d="M 35.887157,2.88 C 35.887157,2.999294 35.790584,3.096 35.671456,3.096 C 35.552328,3.096 35.455756,2.999294 35.455756,2.88 C 35.455756,2.760706 35.552328,2.664 35.671456,2.664 C 35.790584,2.664 35.887157,2.760706 35.887157,2.88" fill-opacity="0" stroke="red" stroke-width="1"/>
    <path d="M 23.996671,40.32 C 23.996671,40.439294 23.900099,40.536 23.780971,40.536 C 23.661843,40.536 23.56527,40.439294 23.56527,40.32 C 23.56527,40.200706 23.661843,40.104 23.780971,40.104 C 23.900099,40.104 23.996671,40.200706 23.996671,40.32" fill-opacity="0" stroke="red" stroke-width="1"/>
    <path d="M 23.996671,2.88 C 23.996671,2.999294 23.900099,3.096 23.780971,3.096 C 23.661843,3.096 23.56527,2.999294 23.56527,2.88 C 23.56527,2.760706 23.661843,2.664 23.780971,2.664 C 23.900099,2.664 23.996671,2.760706 23.996671,2.88" fill-opacity="0" stroke="red" stroke-width="1"/>
    <path d="M 12.106186,40.32 C 12.106186,40.439294 12.009613,40.536 11.890485,40.536 C 11.771357,40.536 11.674785,40.439294 11.674785,40.32 C 11.674785,40.200706 11.771357,40.104 11.890485,40.104 C 12.009613,40.104 12.106186,40.200706 12.106186,40.32" fill-opacity="0" stroke="red" stroke-width="1"/>
    <path d="M 12.106186,2.88 C 12.106186,2.999294 12.009613,3.096 11.890485,3.096 C 11.771357,3.096 11.674785,2.999294 11.674785,2.88 C 11.674785,2.760706 11.771357,2.664 11.890485,2.664 C 12.009613,2.664 12.106186,2.760706 12.106186,2.88" fill-opacity="0" stroke="red" stroke-width="1"/>
    <path d="M 44.901637,42.516 C 44.901637,42.635294 44.805064,42.732 44.685936,42.732 C 44.566808,42.732 44.470236,42.635294 44.470236,42.516 C 44.470236,42.396706 44.566808,42.3 44.685936,42.3 C 44.805064,42.3 44.901637,42.396706 44.901637,42.516" fill-opacity="0" stroke="red" stroke-width="1"/>
    <path d="M 39.446214,42.516 C 39.446214,42.635294 39.349641,42.732 39.230513,42.732 C 39.111385,42.732 39.014813,42.635294 39.014813,42.516 C 39.014813,42.396706 39.111385,42.3 39.230513,42.3 C 39.349641,42.3 39.446214,42.396706 39.446214,42.516" fill-opacity="0" stroke="red" stroke-width="1"/>
    <path d="M 32.3281,42.516 C 32.3281,42.635294 32.231527,42.732 32.112399,42.732 C 31.993271,42.732 31.896699,42.635294 31.896699,42.516 C 31.896699,42.396706 31.993271,42.3 32.112399,42.3 C 32.231527,42.3 32.3281,42.396706 32.3281,42.516" fill-opacity="0" stroke="red" stroke-width="1"/>
    <path d="M 27.555728,42.516 C 27.555728,42.635294 27.459156,42.732 27.340028,42.732 C 27.2209,42.732 27.124327,42.635294 27.124327,42.516 C 27.124327,42.396706 27.2209,42.3 27.340028,42.3 C 27.459156,42.3 27.555728,42.396706 27.555728,42.516" fill-opacity="0" stroke="red" stroke-width="1"/>
    <path d="M 0.0,0.0 L 51.84,0.0 L 51.84,43.2 L 0.0,43.2 L 0.0,0.0" fill-opacity="0" stroke="red" stroke-width="1"/>
  </g>
  <g transform="translate(456.4807,0.0000) rotate(0)">
    <path d="M 0.0,43.006008 L 0.0,43.006008 L 23.04,43.006008 L 23.04,43.006008 L 0.0,43.006008" fill-opacity="0" stroke="red" stroke-width="1"/>
    <path d="M 0.0,0.193992 L 0.0,0.193992 L 23.04,0.193992 L 23.04,0.193992 L 0.0,0.193992" fill-opacity="0" stroke="red" stroke-width="1"/>
    <path d="M 0.0,43.006008 L 0.0,43.006008 L 0.0,0.193992 L 0.0,0.193992 L 0.0,43.006008" fill-opacity="0" stroke="red" stroke-width="1"/>
    <path d="M 23.04,43.006008 L 23.04,43.006008 L 23.04,0.193992 L 23.04,0.193992 L 23.04,43.006008" fill-opacity="0" stroke="red" stroke-width="1"/>
    <path d="M 0.0,43.006008 L 0.0,0.193992 L 23.04,0.193992 L 23.04,43.006008 L 0.0,43.006008" fill-opacity="0" stroke="red" stroke-width="1"/>
    <path d="M 3.068194,0.871849 C 3.068194,0.990071 2.972357,1.085909 2.854134,1.085909 C 2.735912,1.085909 2.640074,0.990071 2.640074,0.871849 C 2.640074,0.753627 2.735912,0.657789 2.854134,0.657789 C 2.972357,0.657789 3.068194,0.753627 3.068194,0.871849" fill-opacity="0" stroke="red" stroke-width="1"/>
    <path d="M 20.399926,0.871849 C 20.399926,0.990071 20.304088,1.085909 20.185866,1.085909 C 20.067643,1.085909 19.971806,0.990071 19.971806,0.871849 C 19.971806,0.753627 20.067643,0.657789 20.185866,0.657789 C 20.304088,0.657789 20.399926,0.753627 20.399926,0.871849" fill-opacity="0" stroke="red" stroke-width="1"/>
    <path d="M 0.0,43.006008 L 0.0,0.193992 L 23.04,0.193992 L 23.04,43.006008 L 0.0,43.006008" fill-opacity="0" stroke="red" stroke-width="1"/>
    <path d="M 3.068194,0.871849 C 3.068194,0.990071 2.972357,1.085909 2.854134,1.085909 C 2.735912,1.085909 2.640074,0.990071 2.640074,0.871849 C 2.640074,0.753627 2.735912,0.657789 2.854134,0.657789 C 2.972357,0.657789 3.068194,0.753627 3.068194,0.871849" fill-opacity="0" stroke="red" stroke-width="1"/>
    <path d="M 20.399926,0.871849 C 20.399926,0.990071 20.304088,1.085909 20.185866,1.085909 C 20.067643,1.085909 19.971806,0.990071 19.971806,0.871849 C 19.971806,0.753627 20.067643,0.657789 20.185866,0.657789 C 20.304088,0.657789 20.399926,0.753627 20.399926,0.871849" fill-opacity="0" stroke="red" stroke-width="1"/>
    <path d="M 20.399926,42.328151 C 20.399926,42.446373 20.304088,42.542211 20.185866,42.542211 C 20.067643,42.542211 19.971806,42.446373 19.971806,42.328151 C 19.971806,42.209929 20.067643,42.114091 20.185866,42.114091 C 20.304088,42.114091 20.399926,42.209929 20.399926,42.328151" fill-opacity="0" stroke="red" stroke-width="1"/>
    <path d="M 3.068194,42.328151 C 3.068194,42.446373 2.972357,42.542211 2.854134,42.542211 C 2.735912,42.542211 2.640074,42.446373 2.640074,42.328151 C 2.640074,42.209929 2.735912,42.114091 2.854134,42.114091 C 2.972357,42.114091 3.068194,42.209929 3.068194,42.328151" fill-opacity="0" stroke="red" stroke-width="1"/>
    <path d="M 0.0,0.0 L 23.04,0.0 L 23.04,43.2 L 0.0,43.2 L 0.0,0.0" fill-opacity="0" stroke="red" stroke-width="1"/>
  </g>
  <g transform="translate(479.5207,0.0000) rotate(0)">
    <path d="M 0.0,0.0 L 0.0,23.04 L 0.0,23.04 L 0.0,0.0" fill-opacity="0" stroke="red" stroke-width="1"/>
    <path d="M 0.0,0.0 L 0.0,23.04 L 2.88,23.04 L 2.88,0.0 L 0.0,0.0" fill-opacity="0" stroke="red" stroke-width="1"/>
    <path d="M 0.0,0.0 L 2.88,0.0 L 2.88,0.0 L 0.0,0.0" fill-opacity="0" stroke="red" stroke-width="1"/>
    <path d="M 0.0,23.04 L 2.88,23.04 L 2.88,23.04 L 0.0,23.04" fill-opacity="0" stroke="red" stroke-width="1"/>
    <path d="M 2.88,0.0 L 2.88,23.04 L 2.88,23.04 L 2.88,0.0" fill-opacity="0" stroke="red" stroke-width="1"/>
    <path d="M 0.0,0.0 L 0.0,23.04 L 2.88,23.04 L 2.88,0.0 L 0.0,0.0" fill-opacity="0" stroke="red" stroke-width="1"/>
    <path d="M 0.0,0.0 L 2.88,0.0 L 2.88,23.04 L 0.0,23.04 L 0.0,0.0" fill-opacity="0" stroke="red" stroke-width="1"/>
  </g>
  <g transform="translate(479.5207,23.0400) rotate(0)">
    <path d="M 2.88,0.0 L 2.88,0.0 L 2.88,23.04 L 2.88,23.04 L 2.88,0.0" fill-opacity="0" stroke="red" stroke-width="1"/>
    <path d="M 2.88,0.0 L 2.88,23.04 L 0.0,23.04 L 0.0,0.0 L 2.88,0.0" fill-opacity="0" stroke="red" stroke-width="1"/>
    <path d="M 2.88,0.0 L 2.88,0.0 L 0.0,0.0 L 0.0,0.0 L 2.88,0.0" fill-opacity="0" stroke="red" stroke-width="1"/>
    <path d="M 2.88,23.04 L 2.88,23.04 L 0.0,23.04 L 0.0,23.04 L 2.88,23.04" fill-opacity="0" stroke="red" stroke-width="1"/>
    <path d="M 0.0,0.0 L 0.0,0.0 L 0.0,23.04 L 0.0,23.04 L 0.0,0.0" fill-opacity="0" stroke="red" stroke-width="1"/>
    <path d="M 2.88,0.0 L 2.88,23.04 L 0.0,23.04 L 0.0,0.0 L 2.88,0.0" fill-opacity="0" stroke="red" stroke-width="1"/>
    <path d="M 0.0,0.0 L 2.88,0.0 L 2.88,23.04 L 0.0,23.04 L 0.0,0.0" fill-opacity="0" stroke="red" stroke-width="1"/>
  </g>
</svg>
